<?xml version="1.0" standalone="no"?>
<!DOCTYPE svg PUBLIC "-//W3C//DTD SVG 20010904//EN"
 "http://www.w3.org/TR/2001/REC-SVG-20010904/DTD/svg10.dtd">
<svg version="1.0" xmlns="http://www.w3.org/2000/svg"
 width="631.000000pt" height="631.000000pt" viewBox="0 0 631.000000 631.000000"
 preserveAspectRatio="xMidYMid meet">
<metadata>
Created by potrace 1.14, written by Peter Selinger 2001-2017
</metadata>
<g transform="translate(0.000000,631.000000) scale(0.100000,-0.100000)"
fill="#000000" stroke="none">
<path d="M2087 6073 c-291 -221 -545 -457 -641 -596 l-37 -53 56 -661 c30
-363 55 -686 55 -717 0 -31 -11 -107 -25 -168 -32 -152 -40 -174 -56 -170 -8
2 -115 49 -239 106 -268 123 -270 124 -270 98 0 -14 13 -25 43 -37 46 -18 414
-209 441 -228 16 -12 14 -20 -19 -106 -122 -320 -349 -691 -608 -994 l-50 -58
37 -112 c101 -302 294 -729 410 -906 31 -46 56 -87 56 -90 0 -3 -196 -123
-436 -266 -240 -142 -442 -264 -450 -270 -12 -8 9 -28 106 -98 67 -48 125 -85
130 -82 5 3 238 191 517 417 280 226 543 439 587 474 l78 63 -35 17 -34 16
-112 -66 c-62 -36 -114 -66 -116 -66 -11 0 -141 218 -201 339 -66 134 -213
488 -229 553 -6 23 4 42 72 130 218 283 395 584 508 866 l41 102 141 -82 c77
-46 150 -90 162 -98 l22 -15 -20 -95 c-47 -223 -51 -512 -11 -810 30 -231 69
-400 150 -661 l40 -126 111 -47 c252 -108 480 -175 749 -220 152 -26 500 -52
550 -43 36 8 187 111 341 234 159 127 408 380 482 490 168 251 260 503 268
736 l2 68 -81 107 c-44 59 -150 184 -235 277 -399 440 -790 710 -1164 805 -24
6 -43 14 -43 18 0 18 85 224 127 309 73 145 153 242 249 299 16 9 17 13 5 27
-12 15 -16 15 -52 -3 -53 -27 -163 -133 -209 -200 -44 -65 -119 -211 -170
-332 l-36 -88 -145 -4 c-119 -3 -159 -8 -232 -30 -164 -49 -300 -131 -418
-253 -85 -87 -136 -161 -187 -272 -19 -42 -36 -78 -39 -81 -2 -2 -78 34 -168
80 -124 64 -163 89 -159 100 3 8 21 74 40 146 57 228 58 220 -2 934 -30 349
-54 643 -54 652 -1 53 386 410 610 563 l55 37 100 -6 c188 -11 398 -66 680
-177 83 -32 197 -82 255 -111 l105 -53 118 -300 c65 -165 199 -507 298 -760
163 -418 183 -463 217 -494 54 -49 326 -227 482 -316 149 -85 518 -268 677
-336 117 -50 109 -36 118 -194 7 -108 -6 -295 -31 -440 -80 -474 -325 -1021
-683 -1527 -42 -59 -80 -108 -84 -108 -4 0 -67 43 -139 96 -102 75 -135 94
-147 87 -9 -6 -16 -15 -16 -20 0 -5 130 -137 290 -293 226 -221 340 -342 517
-550 l228 -267 145 32 c80 17 147 34 148 36 2 2 -110 113 -249 246 -185 177
-294 273 -404 354 -82 61 -150 114 -150 119 0 4 23 37 50 74 28 36 93 130 144
209 362 554 586 1124 636 1622 6 61 18 171 28 245 12 97 17 209 17 400 0 270
-7 347 -47 551 l-20 107 -445 188 -445 189 -192 509 -191 509 -110 55 c-419
211 -836 368 -1291 486 -319 83 -396 96 -570 96 l-141 0 -156 -117z m913
-2114 c0 -6 -23 -84 -50 -172 -42 -132 -104 -356 -138 -491 l-7 -28 -50 41
c-51 42 -95 54 -95 26 0 -9 31 -64 68 -123 38 -59 72 -120 76 -135 3 -15 19
-41 35 -59 23 -26 37 -32 82 -35 70 -6 117 23 139 85 13 37 13 47 0 84 -16 47
-67 88 -107 88 -19 0 -22 4 -18 23 2 12 14 74 26 137 25 139 59 287 101 438
l31 114 43 -7 c191 -28 538 -219 804 -442 151 -126 396 -375 537 -544 l121
-145 -8 -80 c-9 -86 -46 -220 -86 -317 -45 -108 -35 -105 -123 -34 -115 94
-309 221 -433 283 -200 100 -372 146 -558 147 -279 1 -526 -106 -736 -320 -85
-85 -164 -193 -164 -222 0 -9 38 -136 84 -282 125 -394 158 -501 154 -504 -12
-11 -380 110 -478 158 -43 21 -45 24 -67 102 -118 421 -178 878 -155 1187 11
144 36 305 50 320 5 5 316 -193 339 -216 2 -1 -6 -20 -17 -41 -25 -49 -25 -81
-2 -124 34 -63 119 -89 183 -56 63 33 88 124 52 186 -10 16 -20 29 -23 29 -3
0 -13 7 -23 14 -12 10 -21 43 -32 122 -18 131 -19 134 -44 134 -15 0 -20 -10
-25 -47 -4 -27 -9 -61 -12 -76 l-6 -28 -31 21 c-18 11 -97 60 -177 107 -80 48
-147 88 -148 89 -2 1 17 46 42 99 51 108 112 198 177 263 111 111 306 209 458
231 87 13 211 13 211 0z m527 -1210 c112 -16 114 -18 51 -73 -163 -145 -356
-237 -597 -286 l-103 -21 -95 32 -95 31 44 45 c204 209 505 312 795 272z m623
-260 c104 -71 250 -186 250 -197 0 -4 -55 -13 -122 -21 -132 -13 -432 -67
-562 -101 -44 -11 -80 -20 -81 -20 -1 0 -10 49 -20 110 -21 128 -25 119 81
189 83 56 163 88 244 100 85 13 117 3 210 -60z m249 -281 c-28 -54 -115 -175
-183 -256 -166 -196 -306 -320 -530 -469 l-129 -86 -206 7 c-113 3 -230 9
-260 13 l-54 6 6 81 c10 139 58 246 156 350 173 183 460 278 1101 365 111 15
113 14 99 -11z"/>
<path d="M5577 5534 c-125 -163 -131 -172 -297 -505 -94 -186 -170 -341 -170
-345 0 -3 17 -4 37 -2 36 3 41 9 185 218 141 203 159 226 344 411 l195 196
-76 96 c-42 53 -79 97 -83 97 -4 0 -65 -75 -135 -166z"/>
<path d="M580 4773 c-33 -48 -57 -90 -53 -94 18 -18 298 -159 308 -155 6 2 19
20 30 39 l19 35 -118 131 c-64 72 -119 131 -121 131 -2 0 -31 -39 -65 -87z"/>
<path d="M0 3640 c0 -61 2 -110 3 -110 2 0 129 -47 281 -105 l278 -105 95 0
c52 0 93 4 91 9 -1 4 -30 37 -63 73 -59 64 -63 66 -320 183 -143 65 -284 128
-312 141 l-53 24 0 -110z"/>
<path d="M100 1761 c0 -53 58 -183 79 -177 9 3 84 19 167 37 l151 32 42 54
c23 30 41 56 39 57 -4 4 -416 36 -450 36 -26 0 -28 -3 -28 -39z"/>
<path d="M6000 1788 c14 -5 60 -23 102 -39 l78 -28 25 33 c14 18 25 36 25 39
0 4 -57 7 -127 6 -98 0 -122 -3 -103 -11z"/>
<path d="M5611 1286 c-13 -16 -31 -2 322 -260 104 -76 190 -136 191 -134 1 2
42 48 90 102 l89 99 -329 103 c-181 57 -334 104 -340 104 -6 0 -17 -6 -23 -14z"/>
<path d="M1653 1099 l-83 -97 38 -30 c111 -88 349 -220 532 -295 575 -237
1244 -286 1890 -138 178 41 372 102 367 115 -2 6 -21 62 -43 124 -30 87 -42
111 -54 106 -119 -46 -367 -104 -603 -141 -161 -26 -644 -26 -802 0 -401 64
-779 202 -1045 379 -52 34 -99 66 -105 69 -5 3 -47 -38 -92 -92z"/>
<path d="M1237 473 c-97 -101 -177 -187 -177 -193 0 -5 20 -41 45 -80 l45 -70
72 0 73 0 128 234 c70 129 127 238 127 243 0 5 -31 18 -68 29 l-68 20 -177
-183z"/>
</g>
</svg>
