<?xml version="1.0" standalone="no"?>
<!DOCTYPE svg PUBLIC "-//W3C//DTD SVG 20010904//EN"
 "http://www.w3.org/TR/2001/REC-SVG-20010904/DTD/svg10.dtd">
<svg version="1.0" xmlns="http://www.w3.org/2000/svg"
 width="248.000000pt" height="248.000000pt" viewBox="0 0 248.000000 248.000000"
 preserveAspectRatio="xMidYMid meet">
<metadata>
Created by potrace 1.11, written by Peter Selinger 2001-2013
</metadata>
<g transform="translate(0.000000,248.000000) scale(0.100000,-0.100000)"
fill="#000000" stroke="none">
<path d="M790 2371 c-47 -37 -120 -105 -163 -151 -76 -81 -78 -84 -72 -124 3
-22 14 -148 25 -280 17 -195 18 -249 9 -297 -6 -32 -16 -59 -20 -59 -5 0 -50
18 -100 41 -50 22 -93 39 -95 36 -5 -5 53 -40 134 -81 28 -14 52 -31 52 -37 0
-17 -76 -174 -116 -241 -20 -33 -63 -93 -95 -134 l-59 -73 35 -98 c40 -109
114 -269 144 -312 12 -16 21 -32 21 -35 0 -3 -76 -51 -170 -107 -93 -56 -170
-104 -170 -108 1 -3 21 -21 45 -39 l45 -32 227 186 c126 103 230 190 231 195
6 16 -30 9 -65 -12 -19 -12 -36 -20 -37 -18 -32 35 -135 251 -160 335 -4 14 6
36 35 75 54 71 141 220 169 289 13 30 26 59 30 63 4 5 31 -6 59 -23 l52 -32
-8 -62 c-20 -151 4 -403 51 -543 20 -62 26 -70 67 -90 115 -58 313 -103 451
-103 l79 0 72 53 c77 58 202 184 233 236 18 31 43 42 45 19 2 -24 28 86 45
188 l18 102 -44 59 c-79 104 -241 262 -332 323 -76 51 -179 100 -209 100 -30
0 48 167 102 220 22 21 36 41 31 44 -13 8 -57 -25 -92 -69 -30 -37 -90 -153
-90 -173 0 -5 -35 -11 -78 -14 -64 -4 -89 -10 -140 -38 -70 -37 -130 -98 -162
-166 l-22 -44 -51 26 c-29 15 -54 28 -56 30 -2 2 4 41 14 88 17 82 17 91 -5
351 l-23 267 54 54 c30 31 84 80 122 111 l68 56 62 -6 c72 -6 224 -54 316
-100 l64 -32 118 -304 c82 -210 125 -308 140 -320 90 -66 186 -123 327 -192
l162 -81 0 -63 c0 -144 -53 -341 -137 -514 -45 -92 -151 -263 -172 -275 -5 -4
-33 10 -61 30 -86 62 -57 15 71 -111 66 -66 154 -162 197 -212 81 -99 86 -101
156 -82 l39 11 -99 99 c-54 54 -122 115 -151 136 -29 21 -53 41 -53 44 0 3 29
50 65 104 124 184 217 406 250 590 31 177 31 470 0 575 -3 9 -80 47 -178 89
l-173 74 -73 202 -73 203 -91 43 c-274 127 -539 209 -677 209 l-75 -1 -85 -68z
m353 -938 c-19 -65 -37 -124 -39 -131 -3 -10 -8 -10 -23 0 -35 22 -34 1 3 -66
41 -74 72 -91 106 -61 27 25 25 60 -4 82 l-25 18 20 95 c31 149 38 170 57 170
61 -1 210 -94 348 -216 83 -74 214 -225 214 -247 0 -23 -39 -145 -49 -151 -4
-3 -41 18 -82 46 -211 144 -385 166 -541 66 -57 -36 -148 -133 -148 -157 0
-10 11 -51 25 -92 14 -41 34 -105 44 -142 l19 -68 -22 6 c-93 26 -168 60 -176
79 -18 48 -50 218 -59 318 -9 94 -1 261 13 275 4 4 65 -28 102 -55 19 -13 22
-23 18 -45 -11 -54 47 -87 88 -50 21 19 23 41 4 68 -7 11 -16 41 -20 68 -5 31
-12 47 -22 47 -8 0 -14 -9 -14 -19 0 -33 -14 -31 -78 10 l-62 41 32 60 c54
101 155 166 259 167 l46 1 -34 -117z m275 -372 c10 -6 0 -18 -36 -44 -94 -70
-212 -106 -282 -87 l-42 11 23 26 c28 29 96 71 147 89 41 15 170 18 190 5z
m243 -118 l64 -47 -45 -9 c-57 -11 -220 -44 -239 -49 -10 -2 -17 11 -23 40
-11 49 -4 58 67 92 67 32 104 27 176 -27z m53 -95 c-51 -86 -158 -194 -265
-265 l-66 -44 -92 7 -91 7 0 29 c0 35 40 115 72 144 65 60 243 114 436 133 8
0 10 -4 6 -11z"/>
<path d="M2182 2167 c-41 -56 -172 -302 -172 -323 0 -2 6 -4 13 -4 6 0 32 31
57 68 25 37 85 108 134 159 l88 92 -28 40 c-16 22 -31 40 -34 40 -3 0 -29 -32
-58 -72z"/>
<path d="M241 1871 c-12 -16 -21 -32 -21 -35 0 -3 27 -19 59 -36 51 -25 61
-27 71 -15 10 12 5 24 -31 63 -24 26 -46 48 -50 50 -4 2 -16 -10 -28 -27z"/>
<path d="M10 1425 c0 -31 5 -45 18 -50 106 -43 211 -75 245 -75 l42 0 -30 29
c-17 15 -85 53 -152 84 l-123 55 0 -43z"/>
<path d="M2350 695 c0 -13 66 -32 78 -22 23 18 12 27 -33 27 -25 0 -45 -2 -45
-5z"/>
<path d="M50 680 c0 -7 18 -55 26 -68 1 -2 31 3 68 9 48 9 70 18 80 34 14 22
14 23 -37 29 -76 9 -137 7 -137 -4z"/>
<path d="M2200 485 c0 -2 45 -38 99 -80 l100 -75 30 37 c17 21 31 40 31 43 0
3 -51 22 -113 43 -105 34 -147 44 -147 32z"/>
<path d="M656 406 l-36 -45 73 -45 c269 -168 611 -209 955 -116 68 18 82 25
77 39 -4 9 -11 35 -18 59 -6 23 -14 42 -18 42 -3 0 -26 -7 -49 -15 -59 -21
-73 -20 -65 6 6 17 4 20 -12 15 -89 -27 -430 -26 -476 1 -4 2 -18 6 -32 9 -13
2 -37 9 -52 15 -16 6 -30 11 -33 11 -3 0 -22 9 -42 19 -48 25 -49 24 -36 -12
6 -16 8 -33 5 -36 -3 -3 -49 18 -102 46 -52 28 -97 51 -99 51 -2 0 -20 -20
-40 -44z"/>
<path d="M496 169 c-36 -39 -66 -76 -66 -81 0 -25 34 -58 60 -58 25 0 34 10
78 93 28 50 47 95 44 98 -4 4 -17 10 -28 13 -18 5 -34 -7 -88 -65z"/>
</g>
</svg>
