<svg version="1" xmlns="http://www.w3.org/2000/svg" width="533.333" height="533.333" viewBox="0 0 400.000000 400.000000"><path d="M151.5 52c-.3.5-2.1 1-3.9 1-2.3 0-4.4 1-7.2 3.5-2.1 1.9-4.2 3.5-4.5 3.5-.3 0-2 1.2-3.7 2.7-1.7 1.6-4.5 3.9-6.3 5.3-4.3 3.3-11.2 10.3-16.1 16.4-2.8 3.5-3.8 5.7-3.5 7.3.3 1.5-.1 2.3-.9 2.3-.9 0-1.2.9-.8 2.7.3 1.6.9 8.2 1.4 14.8.5 6.6 1.4 15.6 2 20 1.2 9.1 1.7 47.5.6 49.3-.3.6-.4 2.3 0 3.7.9 3.6-2 3.3-10.5-1-3.7-1.9-7.2-3.5-7.6-3.5-.4 0-2-.9-3.5-2-3.3-2.4-8.6-2.8-11.8-1.1-2.5 1.3-2.9 3.1-.7 3.1.7 0 1.8.6 2.2 1.3 1.1 1.7 10.9 6.8 11.7 6 .3-.3.6-.2.6.4 0 .5 1.7 1.8 3.8 2.9 2 1 3.9 2.1 4.2 2.4.3.3 1.9 1.2 3.5 2.1 2.7 1.4 3 1.9 2.7 5.6-.2 2.3.2 4.4.7 4.8 1.9 1.1 1.2 2.2-1.7 2.8-2.2.4-3.3 1.6-4.7 4.9-1.1 2.4-3.8 7-6.1 10.3-2.3 3.3-4.9 7.6-5.8 9.5-.9 1.9-3 4.9-4.6 6.7-1.7 1.8-3 3.6-3 4.1 0 .5-.9 1.7-2 2.7-1.1 1-1.7 2.2-1.4 2.6.3.5.1.9-.4.9s-1.5 1.5-2.2 3.2c-.8 1.8-1.8 3.9-2.4 4.7-1.2 1.6-1.6 9-.5 11.1 1.7 3.4 3.9 10.2 3.9 12 0 1 1.1 4 2.4 6.5 1.4 2.5 2.6 5.6 2.8 6.8.2 1.2.7 2.5 1.1 2.8.4.3.9 1.5 1 2.7 0 1.2.6 2.3 1.3 2.6.6.2 1.4 2.2 1.8 4.4.3 2.2 1.2 4.2 1.9 4.5.7.2 2.1 2.2 3.2 4.3 1.1 2.2 3 4.8 4.2 5.9 2.3 2.1 2.3 2.1.3 3.8-1.1.9-2.3 1.7-2.7 1.7-1.9 0-27.5 16.5-34.3 22.1-2.5 2-6 4.4-7.7 5.3-4 2-4.1 3-.8 5.2 2.6 1.7 3.3 4 1.3 4.6-.6.2-.8 1-.4 1.6.5.9 2 1 4.4.6 4.8-.9 7-2 10.7-5.6 1.7-1.7 7.2-6.1 12.3-9.9 5-3.8 9.2-7.3 9.2-7.7 0-.4 1.2-1.3 2.8-1.9 1.5-.7 5.6-4 9.2-7.3 3.6-3.4 8.1-7 10-7.9 4.4-2.4 16.8-13.2 16.9-14.9.1-.6-.3-1.2-.8-1.2s-1.6-.2-2.3-.5c-.8-.3-2.5.3-3.8 1.5-4.1 3.5-6.9 2.3-9.9-4.5-.7-1.7-2.1-4.4-2.9-6-.9-1.7-2.3-4.5-3.2-6.3-.9-1.8-1.9-2.9-2.3-2.6-.4.4-.7-.2-.7-1.3 0-1.2-.7-2.4-1.6-2.7-1.1-.4-1.4-1.3-1-3 .4-1.6-.1-2.9-1.4-4.1-1.1-1-2-2.7-2-3.7 0-3.3-2.9-6.6-5.2-6-1.9.5-2.1.2-1.4-2.9.6-3.1 4.3-9.5 7.4-12.7.6-.7 1.2-2 1.2-2.8 0-.8 1.3-3.2 2.8-5.2 10.6-13.7 15.3-20.6 17.7-25.8 1.5-3.2 3.5-7.5 4.4-9.6l1.8-3.6 4.2 1.9c2.4 1 4.9 1.9 5.7 1.9.8 0 1.4.4 1.4 1 0 .5.6 1 1.3 1 2.5 0 3.4 3.3 2.6 9.5-2 14.6-2.7 24.7-2.5 34 .3 9.3 1.1 14.5 5.3 33.5.9 4.1 1.7 8.3 1.8 9.2.1 1 1 2.7 2 3.8 1 1.1 1.5 2.8 1.2 3.9-.3 1.3.1 2.2 1.2 2.6.9.3 3.6 2.4 6 4.7 2.4 2.4 6.2 5 8.3 6 3.7 1.7 4.9 4 2.7 5.4-.6.3-2.4-.9-3.9-2.7-1.9-2.2-2.9-2.8-3-1.9 0 .9 1.4 3.1 3.2 5 1.8 1.9 3.2 3.8 3.1 4.1-.1.3.9 1.8 2.2 3.5 1.9 2.4 2.6 2.7 3.7 1.6s1-1.2-.7-.7c-2 .7-2 .6-.1-.9 1.8-1.4 2.2-1.4 4.2-.1 1.4.9 2.5 1.1 2.9.5.8-1.3 5.5-1.3 5.5 0 0 .5 1.1 1 2.5 1 1.5 0 2.5.6 2.5 1.4 0 .8.9 1.8 2 2.1 1.1.3 2 1.3 2 2.1 0 1.8 1.9 1.8 4.4-.1 1.3-1 1.7-2.1 1.2-4-.6-2.2-.4-2.6 1.1-2.3 1.1.2 2 1.5 2.3 3.3.6 3.2 3.4 4.5 5.3 2.6.9-.9.6-1.3-1-1.7-1.3-.4-2.1-1.3-2-2.4.1-1.1.7-1.6 1.9-1.2 1 .2 1.8.8 1.8 1.3s.7.9 1.5.9 1.5-.5 1.5-1c0-.6 1.3-.9 2.8-.8 1.5.1 3.3-.1 3.9-.5.6-.4 1.4-.3 1.8.3 1.5 2.4 5.5.8 10.4-4 3.3-3.3 5.9-5 7.5-5 1.4 0 3.1-.9 4-2.1 1.4-2.1 3.9-3.8 8.4-5.8 1.2-.6 3.6-2.7 5.3-4.6 1.8-2 3.4-3.4 3.6-3.1.7.6-3.8 9.6-4.8 9.6-.9 0-5.1 8.1-4.5 8.7.3.3 1.2-.2 2.1-1.1.9-.9 2-1.4 2.5-1.1.5.3 1-.5 1.2-1.7.2-1.4 1-2.3 2-2.3 2.3 0 5.9-4 5.2-5.8-.6-1.6 2.2-3.1 3.1-1.7.3.5-.1 2.4-.8 4.2-.8 1.8-1.4 5.9-1.5 9 0 5.4.1 5.7 1.9 4.5 2.2-1.3 2.5-3.3.7-4-1-.4-1-.7 0-1.8.6-.7 1.2-2.1 1.2-3.1s.4-1.8.9-1.8c.8 0 11.1-19.8 11.1-21.4 0-.8 3.5-9.1 4.9-11.6.5-.9 1.2-3 1.5-4.8.4-1.7 1.1-3.4 1.6-3.7 1.5-.9 4-6.7 4-9.2 0-1.2.5-2.3 1-2.3.6 0 1.5-1.2 2-2.8.6-1.5 1.4-3.6 1.9-4.7 3-7.3 3.3-9.5 1.6-15-1.5-4.7-3.5-7.2-14.9-18.9-7.2-7.4-16-15.9-19.6-18.8-3.5-2.9-7.2-6-8.2-7-.9-.9-3.5-2.9-5.7-4.2-2.2-1.4-4.2-3-4.6-3.6-.3-.5-1.5-1-2.5-1s-2-.3-2.2-.8c-.6-1.3-6.7-5.2-8.1-5.2-.8 0-2-.7-2.8-1.6-1.7-2.1-7.6-5-11.9-5.9-7.4-1.5-11.9-6.7-8.4-9.6.7-.6 1.6-2.1 2-3.2.3-1.2 2.2-5.6 4.1-9.7 1.9-4.1 4-8.6 4.7-10 .6-1.4 2.3-3.7 3.8-5.2 2.9-3 4.7-10.3 3-12-1.3-1.3-2.8-.4-4.5 3-2.1 4.3-4.1 7.5-5.4 9-.7.7-1.3 1.8-1.3 2.4 0 .6-.6 1.9-1.4 2.7-2.6 3-9.5 15.8-12 22.5l-1.9 4.9-7.7-.7c-6.6-.5-8.1-.4-9.5 1-1.3 1.4-1.9 1.5-2.5.4-.8-1.3-.9-1.3-11.1 4.3-2.5 1.3-7.3 4.5-10.5 7-4.8 3.7-6.7 5.9-9.4 11.6-1.9 3.9-3.9 7.1-4.3 7.1-.9 0-6.8-2.4-9.9-4.1-1-.5-2.5-.9-3.4-.9-1.5 0-1.6-.9-1-7.3 1.5-15 1.7-22.6.8-26.1-.7-2.2-.7-3.8-.1-4.2.5-.3.6-1 .3-1.6-.4-.6-.8-6.1-1-12.2-.2-6.1-.4-15.2-.5-20.3-.2-6.6-.6-9.4-1.6-9.7-1-.4-1.2-2.4-.8-8.3.7-9.8.9-10.5 5.9-17.8 2.2-3.3 4-6.3 3.9-6.7-.2-.4.6-.9 1.6-1.3 1-.3 3.4-2.2 5.3-4.3 6.2-6.5 14.2-12.2 17.2-12.2 1.1 0 3.3-.5 5.1-1.1 4.1-1.5 14 .5 17 3.5 1.2 1.2 2.7 2 3.3 1.8.7-.2 1.2.2 1.2.8 0 .7.8.9 1.9.5 1-.3 2.3.1 3 .8.6.8 2.2 1.2 3.7.9 1.6-.3 3.3.2 4.7 1.5 1.2 1.1 4.7 2.8 7.7 3.8 4.8 1.5 10 3.7 16.1 7 1.2.6 1.9 2.1 1.9 4 0 1.6.7 3.9 1.5 4.9.8 1.1 1.5 2.6 1.5 3.4 0 .8.9 2.5 2 3.9s2 3.7 2 5c0 1.4 2 7.6 4.5 13.8 2.4 6.2 5 13.5 5.7 16.2.7 2.6 2.5 6.8 4 9.2 1.6 2.5 2.8 5.6 2.8 6.8 0 2.6 2.6 8.3 3.8 8.3.8 0 3.2 4.9 3.2 6.6 0 2.2 4.1 6.3 7 6.9 1.7.4 3 1 3 1.5 0 2.2 30.3 22 33.6 22 .7 0 1.7.6 2.1 1.3.4.7 4.2 2.8 8.3 4.6 4.1 1.8 8.9 3.9 10.7 4.7 1.7.8 3.8 1.4 4.6 1.4 2.2 0 2.6 2.3 2.2 12-.8 21.3-2.4 31.9-6 40.5-.7 1.6-2.5 7.5-4 13s-3.9 12.5-5.3 15.5-2.9 6.4-3.3 7.5c-.4 1.1-1.9 4.5-3.2 7.5-1.4 3-3.1 7.1-3.9 9-.8 1.9-4.3 6.3-7.6 9.7-3.7 3.6-6.2 7-6.2 8.3 0 1.7-.5 2-3.5 1.8-2.1-.1-3.5-.7-3.5-1.5 0-.7-.7-1.3-1.5-1.3s-1.5-.7-1.5-1.5c0-1.8-2.4-3-3.9-2-2.4 1.4 4.9 10.1 21 25 5.9 5.5 14.9 16.2 14.9 17.8 0 2.1 19.4 21.7 21.5 21.7.7 0 2.6-.5 4.2-1.2 1.5-.6 3-1.2 3.3-1.2 2.7-.6 4.4-6.9 2.1-7.8-.5-.2-4.5-3.5-8.8-7.5-9.4-8.7-24.9-21.1-28.1-22.6-3.3-1.5-3.9-5.3-1.3-8.1 1.1-1.2 2.1-3.1 2.1-4.2 0-1 1.8-3.7 4-5.8 2.2-2.2 4-4.5 4-5.1 0-.7 1-2.5 2.2-4 1.2-1.5 3-4.3 4-6.1 1-1.9 2.7-5 3.7-7 1.1-1.9 2.4-4.7 3-6.2.6-1.5 2.1-4.3 3.3-6.2 1.1-1.9 2.9-6.5 3.9-10.1 1-3.7 2.2-7.5 2.7-8.5.6-1.1 2-4.8 3.2-8.4 1.2-3.6 2.6-7.3 3.1-8.3.5-1 .7-2.2.5-2.6-.7-1.1 2.1-10.9 3.8-13.6.7-1.1 1.6-4.7 2-8 .4-3.3 1.5-8.5 2.4-11.5 2.2-7.2 2.1-31.3-.2-42-.9-4.1-2.2-10.5-3-14.1-.7-3.6-2.2-7.6-3.2-8.8-2.5-3-20.2-11.5-33.6-16.2-14.2-4.9-16.8-7.1-18.9-16.3-2.2-9.2-5.7-18.3-12.5-32.5-2.9-6.2-5.4-11.9-5.4-12.7 0-1.8-6.9-7.2-10.2-7.9-1.5-.4-3-1.1-3.4-1.6-.6-1-10.6-5.9-11.9-5.9-.3 0-4.2-1.8-8.6-4-4.4-2.2-9.2-4-10.7-4s-3.6-.7-4.6-1.5c-1.1-.8-2.7-1.5-3.5-1.5-.9 0-2.9-.7-4.5-1.5-3.5-1.8-8.9-3.3-16.8-4.6-3.2-.5-10.1-1.7-15.5-2.8-11.9-2.4-28.9-3.6-29.8-2.1zm91.8 38.4c1.3 1.1 1.5 1.9.8 3.7l-1 2.4v-2.3c-.1-1.2-.5-2.2-1-2.2s-1.1-.7-1.5-1.5c-.7-1.8.3-1.9 2.7-.1zm-134.7 10.3c-1 1-1.9-.5-1-1.8.6-1.1.8-1.1 1.2 0 .2.7.1 1.5-.2 1.8zM272 128.2c0 2-.5 2.1-3.5.8-1.7-.7-1.8-.9-.2-.9 1.4-.1 1.6-.7 1.2-2.9-.6-2.6-.6-2.6.9-.8.9 1.1 1.6 2.8 1.6 3.8zm3 9.1c0 4.7-2.5 2.6-2.6-2.3-.1-3.8.1-4.1 1.3-2.4.7 1 1.3 3.1 1.3 4.7zm-22 4.2c0 .9-.6 1.2-1.5.9-.8-.4-1.5-1-1.5-1.5s.7-.9 1.5-.9 1.5.7 1.5 1.5zm24.6 3.9c.5 2.2.4 2.8-.7 2.4-.8-.2-1.5-2-1.7-3.9-.4-4 1.3-3 2.4 1.5zm-9.6 4.1c1.3 2.4.6 5-.8 2.9-.4-.6-1.5-1.4-2.6-1.7-1.5-.6-1.6-1-.6-2.2 1.7-2.1 2.5-1.9 4 1zm-152.3 22.2c-.2 1.6-.4.3-.4-2.7s.2-4.3.4-2.8c.2 1.6.2 4 0 5.5zm-.4 6.3c-.3 1.2-.8 1.9-1.1 1.6-.5-.6.5-3.6 1.2-3.6.2 0 .2.9-.1 2zm69.7 3.6c4.4.5 6 1 5.6 2-.3.7-1 3.2-1.6 5.5-.6 2.3-1.5 4.9-2 5.8-2.2 4-5 11.5-5 13.5 0 1.8-1.7 8.6-3.7 14.7-.3 1 .7 2.9 2.4 4.6 1.5 1.6 3.7 4.2 4.8 5.7 1.8 2.4 2.3 2.6 5.6 1.6 3-.9 4.2-2 6.4-6.4 3.1-6.1 2.7-7.6-1.6-7.6-3.3 0-3.6-1.2-1.8-7 .6-1.9 1-6.3 1-9.8 0-3.5.6-8.2 1.3-10.5.8-2.3 1.7-5.4 2-7 .6-2.7 3.2-3.6 5.1-1.8.6.5 4.4 2.3 8.5 4.1 4.1 1.8 8.7 4.5 10.2 6.1 1.5 1.6 3.2 2.9 3.7 2.9.6 0 1.1.7 1.1 1.5 0 .9.6 1.5 1.3 1.4 2.5-.3 3.8.1 3.6 1.3-.1.7-.1 1.9 0 2.5.1 1.4 15.4 16.8 17.4 17.6.7.2 2.6 2.4 4.2 4.8 3.7 5.4 9 12.7 11.3 15.4.9 1.1 2.2 2.9 2.8 4 3.5 6.5 7.6 11.5 9.4 11.5.6 0 1 1.1 1 2.5 0 2.6-1.4 3.3-2.5 1.5-.5-.8-1.1-.8-1.9-.1-1.4 1.2-6.5-.8-8.6-3.4-.7-.8-1.7-1.5-2.3-1.5-.6 0-1.8-.6-2.6-1.4-3.1-2.7-27.3-11.6-31.7-11.6-1.1 0-2.4-.3-2.8-.7-.7-.7-2-1.1-7.1-1.9-7-1.1-11.8-.6-17.7 2-2.1.9-5 1.6-6.6 1.6-1.6 0-4.1.9-5.5 2-1.4 1.1-2.8 2-3.1 2-.9 0-11.6 11.1-11.6 12.1 0 .4-1.2 1.9-2.7 3.3-2.2 2.1-2.6 3.4-2.9 9.1-.2 3.8.3 9 1.1 11.9.8 2.8 1.9 7.1 2.6 9.6.6 2.5 1.5 5.8 2.1 7.5.6 1.6 1.3 4.2 1.5 5.8.3 1.5.9 2.7 1.4 2.7.5 0 .9.7.9 1.5 0 1.7-4.5 2.1-5.5.5-.3-.6-1.7-1-3.1-1-1.4 0-2.3-.4-1.9-1 1-1.6-2.3-4.2-4.4-3.5-1.2.4-2.3-.2-3.4-1.7-.8-1.3-3.3-4.2-5.6-6.5s-4.1-4.8-4.1-5.5c0-.7-.7-2.6-1.5-4.1-1.4-2.7-1.3-2.8.5-2.2 2.4.8 2.8-2 .5-2.9-1.1-.4-1.4-1.3-.9-3 .3-1.3.1-2.7-.5-3-.7-.5-1.1.2-1.1 1.6-.1 2-.2 2.1-1.1.6-.7-1.2-.6-2.4.1-3.7 1.3-2.6 1.3-3.1-.4-3.1-2.2 0-3.9-9-2-11.1.8-.8 1.1-1.9.7-2.3-.9-.8-1.6-11.3-1.6-22.1 0-10.4 1.2-17.5 2.9-17.5.7 0 3.6 2 6.3 4.4 2.7 2.4 5.9 4.7 7 5.1 1.4.4 1.9 1.3 1.7 3-.2 1.4-.6 2.8-.9 3.2-1.7 1.6-.4 3 3.8 4.1 6.2 1.6 8.6 1.5 11.5-.8 2.1-1.6 2.3-2.2 1.4-3.7-.7-1-1.9-1.7-2.8-1.7-2 .2-2-.1-.1-2.9 1.2-1.9 1.3-3.4.4-8.2-.6-3.3-1.1-6.8-1.2-7.8-.5-4.4-6.5-4.1-7.4.4-.3 1.6-.9 2.9-1.4 2.9-.4 0-3-1.2-5.6-2.8-2.6-1.5-6.1-3.4-7.7-4.2-1.6-.8-3.1-2-3.3-2.7-.6-1.6 4.8-13 7.5-15.9 6.7-7.1 19.3-14.2 22.9-12.9.6.2 3.9.7 7.3 1.1zm54 25.5c1.2 1.6 1.9 3.3 1.6 3.6-.3.4-.6.1-.6-.5 0-.7-.9-1.2-2-1.2s-2-.4-2-.9-.3-1.6-.6-2.5c-1-2.7 1.4-1.8 3.6 1.5zm16.3 13c3.3 1.8 6.3 4.4 9.8 8.6 1.3 1.5 3.9 3.9 5.7 5.2 2.4 1.6 3.2 2.9 2.9 4.2-.3 1.1-.1 1.9.4 1.9s.9.5.9 1.1c0 .7.7 1.7 1.6 2.3.8.7 1.8 3.2 2 5.6l.5 4.5-3.9-4.4c-2.6-3-3.8-5.2-3.6-6.8.1-1.6-.6-2.9-2.1-3.9-1.4-.9-2.7-2.4-3-3.5-.4-1.1-1.1-1.7-1.6-1.4-.5.4-.9-.1-.9-.9s-1.8-2.9-4-4.7c-2.2-1.8-3.7-3.6-3.4-4 .3-.5-.1-.9-.9-.9s-2.2-.9-3.2-2c-2-2.2-.6-2.7 2.8-.9zm-47.3 28c0 .8 1.4 1 4 .6 3.3-.4 4.5-.1 6.6 1.8 1.8 1.7 2.2 2.5 1.3 3.1-.9.5-.7.9.6 1.4 1.8.6 1.7.7-.3 1.2-1.2.4-2 .2-1.6-.3.6-1-.7-1.2-3-.3-2.1.8-2 2.4.1 2.4 1 0 0 .9-2.2 2s-4.5 2-5.3 2c-.7 0-3.4 1-6 2.1-6.8 3.2-12 3.5-16 .9-2.7-1.6-3.2-2.5-2.6-4.3.4-1.2 1.1-2.4 1.6-2.5.4-.2 1.4-1 2.1-1.7 1.9-1.8 13.3-7.5 15.2-7.5.8 0 1.5-.5 1.5-1 0-.6.9-1 2-1s2 .5 2 1.1zm74 1.9c0 .5-.2 1-.4 1-.3 0-.8-.5-1.1-1-.3-.6-.1-1 .4-1 .6 0 1.1.4 1.1 1zm-33 10c.8 1 3.1 2.6 5 3.5 1.9 1 4.6 2.8 5.9 4.1 1.7 1.7 2.7 2.1 3.6 1.4.9-.7 2-.3 3.9 1.5 1.5 1.4 3.1 2.5 3.7 2.5 1.6 0 1 1.7-.8 2.5-1 .4-2.9.8-4.3 1-6 .5-23.6 2.6-25 3-.8.3-3.7.7-6.3 1-5.1.6-5.1.7-4.7-5.5.4-6.4 5.5-13 10.2-13 1.8 0 2.8-.5 2.8-1.5 0-.8-.4-1.5-1-1.5-.5 0-1-.5-1-1.1 0-1.6 6.2 0 8 2.1zm17 22.5c-1.2 1.3-2.7 2.2-3.1 1.9-1.4-.8-1-2.4.6-2.4.8 0 1.5-.5 1.5-1 0-.6.8-1 1.7-1 1.4 0 1.3.4-.7 2.5zm-8.1-.9c3.1.6 4.4 2.4 1.7 2.4-.7 0-4.9 3.9-9.2 8.7-7.5 8.3-18.5 17.3-21 17.3-.6 0-1.7.6-2.3 1.4-1.6 1.9-10.2 4.6-14.6 4.6-3.1 0-3.5.3-3 1.9.7 2.5-3.4 3.5-10 2.6-5.4-.9-6.1-1.7-4.1-4.7.9-1.2 1.6-3.3 1.6-4.5 0-1.3 1.8-4.2 4-6.7 2.2-2.4 4-4.7 4-5.2.1-1.3 3.2-4.7 6-6.5 2.7-1.7 13.7-4.9 17-4.9.9 0 2.3-.6 2.9-1.4.6-.7 3.3-1.6 5.9-1.9 2.6-.4 7.4-1.3 10.7-2.1 7.6-1.8 6.7-1.7 10.4-1zm-176.2 3.6c-.3.8-.6.5-.6-.6-.1-1.1.2-1.7.5-1.3.3.3.4 1.2.1 1.9zm115 4.4c-.3.3-1.2.4-1.9.1-.8-.3-.5-.6.6-.6 1.1-.1 1.7.2 1.3.5zm68 17.6c-.3.7-.5.2-.5-1.2s.2-1.9.5-1.3c.2.7.2 1.9 0 2.5zm-30.2 7.8c-.3.5-1.1 1-1.6 1-.6 0-.7-.5-.4-1 .3-.6 1.1-1 1.6-1 .6 0 .7.4.4 1zm-7.5 4.8c0 .9-4.4 3.2-6.1 3.2-1.6 0 .1-2 2.5-3 2.8-1.1 3.6-1.2 3.6-.2zM167 330c0 .5-.5 1-1.1 1-.5 0-.7-.5-.4-1 .3-.6.8-1 1.1-1 .2 0 .4.4.4 1zm44.1 2.3c-.1 1.2-1.5.9-1.9-.4-.3-.6.1-1 .8-.8.6.3 1.1.8 1.1 1.2zM52.7 356.6c-.3.3-1.2.4-1.9.1-.8-.3-.5-.6.6-.6 1.1-.1 1.7.2 1.3.5z"/><path d="M206 317c0 .5.5 1 1 1 .6 0 1-.5 1-1 0-.6-.4-1-1-1-.5 0-1 .4-1 1zM345 80.9c-3.9 4.1-11 14.4-15.5 22.6-1.5 2.7-4.7 8.4-7 12.5-9.3 16.2-10.4 20.6-4.5 17.7 2.3-1.2 9.8-11.1 10-13.2 0-1.1 9.3-11.7 20.6-23.8l7.3-7.8-1.4-3.8c-1.6-4.7-3.7-8.1-4.9-8.1-.5 0-2.6 1.7-4.6 3.9zM55.8 128.1c-3.1 1.8-2 4.5 3.7 8.7 7.8 5.9 9.3 6.6 11.1 5.1 2.7-2.2 2-3.7-6.3-12.6-2.3-2.4-5.6-2.9-8.5-1.2zM23 192c-2.3 4.3 2.8 11 8.3 11 1.6 0 4.1.8 5.5 1.9 2.6 1.8 4.1 2.2 14.7 4 2.8.5 6.4 1.6 8 2.5 6.8 3.6 9.6.6 4.3-4.7-1.9-2-7-4.9-12.3-7.2-4.9-2-9.9-4.4-11-5.1-1.1-.8-2.9-1.4-4.1-1.4-1.2 0-2.7-.7-3.4-1.5-1.9-2.3-8.7-2-10 .5zM362.8 297.1c-3 1.9 7.3 7.6 11.6 6.5 4.1-1 3.6-5.1-.7-6.5-3.6-1.2-9-1.2-10.9 0zM36 301.7c-3.4 1.3-5.1 4.2-4.4 7.8.5 3.1 1 3.5 3.6 3.5 1.6 0 4.2-.7 5.8-1.5 1.6-.8 3.5-1.2 4.2-1 .8.3 3.1-.1 5.2-1 2.9-1.2 3.7-2.1 3.4-3.7-.2-1.7-1.4-2.4-6.3-3.4-6.5-1.4-9.2-1.5-11.5-.7zM247.7 329.7c-.4.3-.7 1.3-.7 2.2 0 .9-1.3 2.5-3 3.6-1.8 1.2-2.6 2.3-2 2.9.5.5 1.9.2 3.4-.7 1.4-.9 3.2-1.4 4-1.1 2 .8 2.1-1.9.2-3.6-.8-.6-1.2-1.8-.9-2.6.5-1.5.1-1.8-1-.7zM255.7 330.9c-.4 1.7-.3 2.1.5 1.3.5-.5.8-1.6.6-2.3-.3-.8-.7-.3-1.1 1zM344.7 330.7c-1.3 1.2-.7 3.4 1.1 4 .9.4 4.5 2.7 7.9 5.2 13.7 10.1 18.1 13.1 19.2 13.1 1.8 0 7.2-8.2 6.9-10.4-.3-2.1-10.4-6.3-22.3-9.3-3.3-.9-6.8-2-7.7-2.4-2.1-1.1-4.2-1.2-5.1-.2zM121.3 333.8c-1.8 1.5-4.9 4-6.8 5.5-3.2 2.6-4.7 5.7-2.7 5.7.4 0 3.1 1.9 6.1 4.1 5 3.8 17.6 10.9 19.4 10.9.4 0 .7-.7.7-1.5 0-1.8 6.2-1.5 6.8.4.2.6.7.9 1.2.6.5-.3 1.4.8 2.2 2.5.7 1.6 2 3 2.8 3 2.1 0 7 2.3 7 3.2 0 .5.9.8 2.1.8 1.1 0 4.6.7 7.7 1.6 3.9 1.2 7.9 1.5 13.5 1.2 8-.5 15.4 1 16.9 3.5.4.7 1.1.7 2.3-.3 1.5-1.2 1.8-1.2 2.6.3 1.2 2.1 4.2 2.2 5.9.2 1.3-1.6 3.1-2 2.9-.8-.5 2.9.3 3.4 4.6 2.9 2.5-.2 4.7-.1 5 .3.2.5 2.8.4 5.7 0 2.9-.5 6.9-.9 8.8-1 1.9-.1 5.9-.5 8.8-1.1 2.9-.5 7.7-1.1 10.5-1.2 7-.4 18.5-3.5 22.2-5.9 5.9-3.9 5.9-4.5.5-10.4-2.8-3-5-5.9-5-6.4 0-1.5-1.9-1-4.8 1.1-4.3 3.2-12.7 5.1-27.7 6.4-18.3 1.6-34.8 1.5-36.8-.3-.9-.7-2.1-1-2.6-.6-.6.3-.8 0-.5-.8.7-2-.8-2.8-2.6-1.6-1.2.8-1.2 1.2-.2 1.6.6.2 1.2 1 1.2 1.7 0 1-2.3.9-10.2-.5-5.7-1-11.7-1.8-13.4-1.9-3.7 0-16.6-5.1-20.6-8-1.5-1.1-3.1-2-3.7-2-.5 0-3.2-1.5-6-3.3-10.3-6.6-12.3-7.7-14-7.7-1 0-2.3-1.1-2.9-2.5-1.5-3.2-2.9-3.1-6.9.3zm2.1 7.7c-.6 1.6-2.4 2.1-2.4.7 0-1.1 1.1-2.2 2.1-2.2.5 0 .6.7.3 1.5zm139.9 21.2c-.7.2-1.9.2-2.5 0-.7-.3-.2-.5 1.2-.5s1.9.2 1.3.5zm-63.5 3.1c.2.7-.3 1.2-1.2 1.2-.9 0-1.6-.7-1.6-1.6 0-1.7 2.2-1.4 2.8.4zm4.7 1.2c-.3.5-1.2.7-2 .3-2.1-.7-1.9-1.3.6-1.3 1.1 0 1.8.4 1.4 1zm14.2 7.6c-.3.3-1.2.4-1.9.1-.8-.3-.5-.6.6-.6 1.1-.1 1.7.2 1.3.5z"/><path d="M173 338c0 .5.5 1 1 1 .6 0 1-.5 1-1 0-.6-.4-1-1-1-.5 0-1 .4-1 1zM234.3 337.7c-1.3.2-2.3.9-2.3 1.4 0 1.5 6.3.6 6.8-.9.4-1.2-.4-1.3-4.5-.5zM208 340.6c0 .8.5 1.2 1 .9.6-.3 1-1 1-1.6 0-.5-.4-.9-1-.9-.5 0-1 .7-1 1.6zM175.7 343.1c.4 1.3.8 1.8 1.1 1 .2-.7-.1-1.8-.6-2.3-.8-.8-.9-.4-.5 1.3zM171 345.5c0 .8.5 1.5 1 1.5.6 0 1-.7 1-1.5s-.4-1.5-1-1.5c-.5 0-1 .7-1 1.5zM176.2 350.5c0 1.6.2 2.2.5 1.2.2-.9.2-2.3 0-3-.3-.6-.5.1-.5 1.8zM144.8 361.7c.7.3 1.6.2 1.9-.1.4-.3-.2-.6-1.3-.5-1.1 0-1.4.3-.6.6zM102.1 371.8c-1.1 1.7-2.1 3.5-2.1 4.2 0 .6-.5.8-1.1.5-1.1-.8-6.5 4.7-10.5 10.6l-2.5 3.6 1.9 3.4c1.6 2.8 2.5 3.4 5.1 3.2 3.7-.1 6.4-2 5.7-4-.3-.7-.2-1.3.3-1.3s1.4-1.4 2.1-3c.7-1.7 2.2-3.7 3.4-4.5 1.1-.8 1.7-1.5 1.4-1.5-.4 0 .9-2.7 2.8-6.1 2-3.3 3.4-6.3 3.1-6.5-.2-.3-2-.7-3.9-1.1-3.1-.4-3.8-.1-5.7 2.5z"/></svg>