<svg width="180" height="54" viewBox="0 0 180 54" fill="none" xmlns="http://www.w3.org/2000/svg">
<rect width="180" height="54" fill="black"/>
<path d="M43.7298 27.4055C43.7441 26.2787 44.0397 25.1739 44.5891 24.1939C45.1384 23.2138 45.9237 22.3904 46.8718 21.8002C46.2695 20.9293 45.4749 20.2125 44.5512 19.7069C43.6274 19.2012 42.5999 18.9206 41.5503 18.8874C39.3113 18.6494 37.1407 20.2439 35.9998 20.2439C34.8367 20.2439 33.0801 18.911 31.1884 18.9504C29.9649 18.9904 28.7724 19.3507 27.7272 19.9961C26.682 20.6414 25.8198 21.5499 25.2245 22.633C22.6459 27.1534 24.5693 33.7968 27.0395 37.4507C28.2753 39.24 29.7197 41.2386 31.6096 41.1677C33.459 41.09 34.1498 39.9736 36.3822 39.9736C38.5938 39.9736 39.2419 41.1677 41.1702 41.1226C43.1547 41.09 44.405 39.3254 45.5975 37.5193C46.4855 36.2444 47.1688 34.8354 47.6221 33.3444C46.4691 32.8507 45.4852 32.0242 44.7931 30.9681C44.1009 29.912 43.7311 28.673 43.7298 27.4055Z" fill="white"/>
<path d="M40.0885 16.4847C41.1705 15.1695 41.7036 13.4791 41.5745 11.7723C39.9214 11.9481 38.3944 12.7481 37.2978 14.0128C36.7616 14.6307 36.3509 15.3495 36.0892 16.1281C35.8276 16.9067 35.7201 17.7299 35.7728 18.5507C36.5997 18.5593 37.4177 18.3779 38.1652 18.02C38.9128 17.6621 39.5704 17.1372 40.0885 16.4847Z" fill="white"/>
<path d="M67.1074 36.6386H60.7962L59.2806 41.1698H56.6074L62.5853 24.4055H65.3626L71.3405 41.1698H68.6217L67.1074 36.6386ZM61.4499 34.5477H66.4525L63.9864 27.1939H63.9174L61.4499 34.5477Z" fill="white"/>
<path d="M84.2506 35.0592C84.2506 38.8574 82.2428 41.2977 79.2129 41.2977C78.4453 41.3383 77.682 41.1593 77.0103 40.7811C76.3386 40.4029 75.7856 39.8409 75.4147 39.1593H75.3574V45.2132H72.8795V28.9473H75.278V30.9802H75.3236C75.7115 30.3019 76.2738 29.7427 76.9507 29.3622C77.6275 28.9817 78.3936 28.7941 79.1673 28.8194C82.2311 28.8194 84.2506 31.2716 84.2506 35.0592ZM81.7038 35.0592C81.7038 32.5847 80.4407 30.9578 78.5137 30.9578C76.6204 30.9578 75.347 32.6189 75.347 35.0592C75.347 37.5219 76.6204 39.1712 78.5137 39.1712C80.4408 39.1712 81.7038 37.5562 81.7038 35.0592Z" fill="white"/>
<path d="M97.5371 35.0592C97.5371 38.8574 95.5293 41.2977 92.4993 41.2977C91.7318 41.3383 90.9685 41.1593 90.2967 40.7811C89.625 40.4029 89.0721 39.8409 88.7012 39.1593H88.6438V45.2132H86.166V28.9473H88.5644V30.9802H88.61C88.9979 30.3019 89.5602 29.7427 90.2371 29.3622C90.9139 28.9817 91.68 28.7941 92.4537 28.8194C95.5176 28.8194 97.5371 31.2716 97.5371 35.0592ZM94.9902 35.0592C94.9902 32.5847 93.7272 30.9578 91.8001 30.9578C89.9069 30.9578 88.6334 32.6189 88.6334 35.0592C88.6334 37.5219 89.9069 39.1712 91.8001 39.1712C93.7272 39.1712 94.9902 37.5562 94.9902 35.0592Z" fill="white"/>
<path d="M106.318 36.4988C106.502 38.1613 108.097 39.2528 110.277 39.2528C112.365 39.2528 113.868 38.1613 113.868 36.6623C113.868 35.361 112.962 34.5819 110.816 34.048L108.67 33.5246C105.63 32.781 104.218 31.3414 104.218 29.0052C104.218 26.1127 106.708 24.126 110.243 24.126C113.742 24.126 116.14 26.1127 116.221 29.0052H113.719C113.57 27.3322 112.204 26.3224 110.208 26.3224C108.212 26.3224 106.846 27.3441 106.846 28.8312C106.846 30.0164 107.718 30.7138 109.852 31.2477L111.676 31.7012C115.074 32.5147 116.485 33.8963 116.485 36.3484C116.485 39.4848 114.018 41.4492 110.093 41.4492C106.421 41.4492 103.942 39.531 103.782 36.4987L106.318 36.4988Z" fill="white"/>
<path d="M121.833 26.0548V28.9473H124.128V30.9341H121.833V37.6722C121.833 38.719 122.292 39.2068 123.301 39.2068C123.574 39.2019 123.846 39.1826 124.117 39.1487V41.1236C123.663 41.2094 123.202 41.2483 122.74 41.2396C120.296 41.2396 119.343 40.3102 119.343 37.9398V30.9341H117.588V28.9473H119.343V26.0548H121.833Z" fill="white"/>
<path d="M125.458 35.0592C125.458 31.2136 127.695 28.797 131.183 28.797C134.683 28.797 136.91 31.2135 136.91 35.0592C136.91 38.9154 134.695 41.3214 131.183 41.3214C127.673 41.3214 125.458 38.9154 125.458 35.0592ZM134.385 35.0592C134.385 32.4212 133.191 30.8642 131.183 30.8642C129.175 30.8642 127.982 32.433 127.982 35.0592C127.982 37.7078 129.175 39.2529 131.183 39.2529C133.191 39.2529 134.385 37.7078 134.385 35.0592Z" fill="white"/>
<path d="M138.952 28.9473H141.316V31.0276H141.373C141.533 30.3779 141.909 29.8037 142.438 29.4016C142.966 28.9994 143.616 28.7938 144.277 28.8194C144.562 28.8184 144.847 28.8498 145.126 28.913V31.2597C144.765 31.1481 144.389 31.0969 144.012 31.1081C143.652 31.0933 143.294 31.1575 142.96 31.2964C142.627 31.4353 142.328 31.6456 142.082 31.9127C141.837 32.1799 141.652 32.4976 141.539 32.8441C141.427 33.1906 141.39 33.5577 141.43 33.9201V41.1698H138.952L138.952 28.9473Z" fill="white"/>
<path d="M156.55 37.5799C156.217 39.7987 154.083 41.3214 151.352 41.3214C147.84 41.3214 145.661 38.9391 145.661 35.1172C145.661 31.2834 147.852 28.797 151.248 28.797C154.588 28.797 156.688 31.1199 156.688 34.8258V35.6854H148.162V35.837C148.123 36.2868 148.178 36.74 148.325 37.1664C148.472 37.5928 148.707 37.9826 149.014 38.3101C149.321 38.6375 149.694 38.895 150.107 39.0655C150.52 39.2361 150.964 39.3156 151.41 39.299C151.995 39.3546 152.583 39.2173 153.085 38.9075C153.587 38.5978 153.977 38.1322 154.197 37.5799L156.55 37.5799ZM148.174 33.932H154.209C154.231 33.5275 154.171 33.1228 154.031 32.7432C153.892 32.3635 153.676 32.0172 153.398 31.7259C153.12 31.4346 152.785 31.2047 152.415 31.0505C152.045 30.8963 151.648 30.8212 151.248 30.8299C150.845 30.8275 150.445 30.906 150.071 31.0609C149.698 31.2158 149.358 31.444 149.073 31.7324C148.787 32.0208 148.56 32.3637 148.406 32.7412C148.252 33.1187 148.173 33.5234 148.174 33.932Z" fill="white"/>
<path d="M61.1393 11.7865C61.6588 11.7488 62.1801 11.8283 62.6656 12.0192C63.1511 12.2101 63.5886 12.5078 63.9467 12.8907C64.3049 13.2736 64.5746 13.7322 64.7365 14.2334C64.8983 14.7346 64.9483 15.2659 64.8828 15.7891C64.8828 18.3625 63.5091 19.8418 61.1393 19.8418H58.2656V11.7865H61.1393ZM59.5013 18.7026H61.0013C61.3725 18.7251 61.744 18.6634 62.0887 18.5222C62.4334 18.381 62.7427 18.1637 62.994 17.8862C63.2453 17.6087 63.4324 17.2779 63.5415 16.918C63.6507 16.558 63.6792 16.178 63.625 15.8055C63.6753 15.4345 63.6439 15.0568 63.533 14.6995C63.4222 14.3422 63.2347 14.0141 62.984 13.7388C62.7332 13.4635 62.4254 13.2478 62.0826 13.1071C61.7399 12.9663 61.3706 12.9041 61.0013 12.9249H59.5013V18.7026Z" fill="white"/>
<path d="M66.2786 16.7996C66.2409 16.4001 66.286 15.997 66.4111 15.6162C66.5363 15.2354 66.7386 14.8853 67.0052 14.5883C67.2718 14.2913 67.5967 14.0541 67.9592 13.8917C68.3217 13.7293 68.7137 13.6454 69.11 13.6454C69.5064 13.6454 69.8984 13.7293 70.2608 13.8917C70.6233 14.0541 70.9482 14.2913 71.2148 14.5883C71.4814 14.8853 71.6838 15.2354 71.8089 15.6162C71.934 15.997 71.9791 16.4001 71.9414 16.7996C71.9799 17.1995 71.9353 17.6031 71.8105 17.9845C71.6857 18.3659 71.4835 18.7167 71.2168 19.0142C70.9501 19.3118 70.625 19.5496 70.2621 19.7123C69.8993 19.875 69.5068 19.9591 69.11 19.9591C68.7132 19.9591 68.3207 19.875 67.9579 19.7123C67.5951 19.5496 67.2699 19.3118 67.0032 19.0142C66.7366 18.7167 66.5344 18.3659 66.4096 17.9845C66.2848 17.6031 66.2402 17.1995 66.2786 16.7996ZM70.7226 16.7996C70.7226 15.4819 70.138 14.7113 69.112 14.7113C68.082 14.7113 67.5026 15.4819 67.5026 16.7996C67.5026 18.1278 68.0821 18.8925 69.112 18.8925C70.138 18.8924 70.7226 18.1225 70.7226 16.7996Z" fill="white"/>
<path d="M79.4687 19.8417H78.2396L76.9987 15.3645H76.905L75.6693 19.8417H74.4518L72.7969 13.7627H73.9987L75.0742 18.4013H75.1628L76.3971 13.7627H77.5339L78.7682 18.4013H78.862L79.9323 13.7627H81.1172L79.4687 19.8417Z" fill="white"/>
<path d="M82.5091 13.7627H83.6497V14.7284H83.7383C83.8885 14.3816 84.1418 14.0908 84.463 13.8967C84.7841 13.7025 85.1571 13.6147 85.5299 13.6454C85.8221 13.6231 86.1154 13.6677 86.3882 13.7759C86.661 13.884 86.9063 14.0529 87.1059 14.27C87.3054 14.4871 87.4542 14.747 87.5411 15.0302C87.6281 15.3135 87.6509 15.6129 87.6081 15.9063V19.8416H86.4232V16.2076C86.4232 15.2307 86.0039 14.7449 85.1276 14.7449C84.9293 14.7355 84.7313 14.7697 84.5472 14.8451C84.3631 14.9205 84.1973 15.0352 84.0611 15.1816C83.925 15.3279 83.8217 15.5023 83.7583 15.6928C83.6949 15.8833 83.673 16.0855 83.694 16.2854V19.8417H82.5091L82.5091 13.7627Z" fill="white"/>
<path d="M89.4961 11.3896H90.681V19.8416H89.4961V11.3896Z" fill="white"/>
<path d="M92.3281 16.7996C92.2904 16.4 92.3356 15.997 92.4607 15.6161C92.5859 15.2353 92.7882 14.8852 93.0548 14.5882C93.3215 14.2912 93.6464 14.054 94.0089 13.8916C94.3714 13.7292 94.7634 13.6453 95.1598 13.6453C95.5562 13.6453 95.9482 13.7292 96.3107 13.8916C96.6732 14.054 96.9982 14.2912 97.2648 14.5882C97.5314 14.8852 97.7338 15.2353 97.8589 15.6161C97.9841 15.997 98.0292 16.4 97.9915 16.7996C98.0299 17.1995 97.9853 17.6031 97.8605 17.9845C97.7356 18.3659 97.5334 18.7167 97.2667 19.0142C97 19.3118 96.6748 19.5495 96.312 19.7123C95.9491 19.875 95.5567 19.959 95.1598 19.959C94.763 19.959 94.3705 19.875 94.0077 19.7123C93.6448 19.5495 93.3196 19.3118 93.0529 19.0142C92.7862 18.7167 92.584 18.3659 92.4592 17.9845C92.3343 17.6031 92.2897 17.1995 92.3281 16.7996ZM96.7721 16.7996C96.7721 15.4819 96.1875 14.7113 95.1614 14.7113C94.1315 14.7113 93.5521 15.4819 93.5521 16.7996C93.5521 18.1278 94.1315 18.8925 95.1614 18.8925C96.1875 18.8924 96.7721 18.1225 96.7721 16.7996Z" fill="white"/>
<path d="M99.2389 18.1225C99.2389 17.0283 100.044 16.3975 101.472 16.3078L103.098 16.2129V15.6882C103.098 15.0461 102.679 14.6836 101.869 14.6836C101.208 14.6836 100.749 14.9295 100.618 15.3593H99.4707C99.5918 14.3151 100.562 13.6454 101.924 13.6454C103.429 13.6454 104.278 14.4041 104.278 15.6882V19.8417H103.137V18.9874H103.044C102.853 19.2938 102.586 19.5436 102.269 19.7113C101.952 19.879 101.597 19.9585 101.24 19.9418C100.988 19.9684 100.733 19.9411 100.492 19.8619C100.251 19.7827 100.029 19.6532 99.8409 19.4818C99.6524 19.3103 99.5014 19.1008 99.3977 18.8667C99.294 18.6326 99.2399 18.3791 99.2389 18.1225ZM103.098 17.6031V17.0949L101.632 17.1898C100.805 17.2458 100.43 17.5306 100.43 18.0665C100.43 18.6136 100.899 18.932 101.544 18.932C101.733 18.9513 101.923 18.932 102.105 18.8752C102.286 18.8184 102.454 18.7252 102.599 18.6012C102.744 18.4772 102.863 18.325 102.949 18.1535C103.035 17.982 103.085 17.7948 103.098 17.6031Z" fill="white"/>
<path d="M105.835 16.7996C105.835 14.8787 106.811 13.6619 108.327 13.6619C108.703 13.6444 109.075 13.7353 109.401 13.9242C109.727 14.1131 109.993 14.392 110.169 14.7284H110.257V11.3896H111.442V19.8416H110.307V18.8812H110.213C110.024 19.2153 109.749 19.4908 109.416 19.6777C109.084 19.8647 108.707 19.956 108.327 19.9418C106.8 19.9419 105.835 18.725 105.835 16.7996ZM107.059 16.7996C107.059 18.0889 107.66 18.8648 108.663 18.8648C109.662 18.8648 110.279 18.0777 110.279 16.8048C110.279 15.5379 109.656 14.7396 108.663 14.7396C107.666 14.7396 107.059 15.5207 107.059 16.7996Z" fill="white"/>
<path d="M116.344 16.7996C116.307 16.4001 116.352 15.997 116.477 15.6162C116.602 15.2354 116.804 14.8853 117.071 14.5883C117.338 14.2913 117.662 14.0541 118.025 13.8917C118.387 13.7293 118.779 13.6454 119.176 13.6454C119.572 13.6454 119.964 13.7293 120.327 13.8917C120.689 14.0541 121.014 14.2913 121.281 14.5883C121.547 14.8853 121.75 15.2354 121.875 15.6162C122 15.997 122.045 16.4001 122.007 16.7996C122.046 17.1995 122.001 17.6031 121.876 17.9845C121.751 18.3659 121.549 18.7167 121.283 19.0142C121.016 19.3118 120.691 19.5496 120.328 19.7123C119.965 19.875 119.573 19.9591 119.176 19.9591C118.779 19.9591 118.387 19.875 118.024 19.7123C117.661 19.5496 117.336 19.3118 117.069 19.0142C116.802 18.7167 116.6 18.3659 116.475 17.9845C116.351 17.6031 116.306 17.1995 116.344 16.7996ZM120.788 16.7996C120.788 15.4819 120.204 14.7113 119.178 14.7113C118.148 14.7113 117.568 15.4819 117.568 16.7996C117.568 18.1278 118.148 18.8925 119.178 18.8925C120.204 18.8924 120.788 18.1225 120.788 16.7996Z" fill="white"/>
<path d="M123.597 13.7627H124.738V14.7284H124.826C124.976 14.3816 125.23 14.0908 125.551 13.8967C125.872 13.7025 126.245 13.6147 126.618 13.6454C126.91 13.6231 127.203 13.6677 127.476 13.7759C127.749 13.884 127.994 14.0529 128.194 14.27C128.393 14.4871 128.542 14.747 128.629 15.0302C128.716 15.3135 128.739 15.6129 128.696 15.9063V19.8416H127.511V16.2076C127.511 15.2307 127.092 14.7449 126.215 14.7449C126.017 14.7355 125.819 14.7697 125.635 14.8451C125.451 14.9205 125.285 15.0352 125.149 15.1816C125.013 15.3279 124.91 15.5023 124.846 15.6928C124.783 15.8833 124.761 16.0855 124.782 16.2854V19.8417H123.597V13.7627Z" fill="white"/>
<path d="M135.391 12.2492V13.7904H136.692V14.8009H135.391V17.9268C135.391 18.5635 135.65 18.8423 136.24 18.8423C136.391 18.8419 136.542 18.8326 136.692 18.8147V19.814C136.479 19.8525 136.264 19.873 136.048 19.8753C134.73 19.8753 134.205 19.4059 134.205 18.2339V14.8009H133.252V13.7903H134.205V12.2492H135.391Z" fill="white"/>
<path d="M138.311 11.3896H139.485V14.7396H139.579C139.736 14.3895 139.997 14.0971 140.324 13.9023C140.652 13.7074 141.031 13.6195 141.409 13.6506C141.7 13.6346 141.991 13.6838 142.26 13.7945C142.53 13.9053 142.772 14.0749 142.97 14.2914C143.167 14.5078 143.315 14.7658 143.403 15.0467C143.491 15.3277 143.516 15.6248 143.477 15.9169V19.8417H142.291V16.2129C142.291 15.2419 141.844 14.7501 141.007 14.7501C140.804 14.7332 140.599 14.7616 140.407 14.8332C140.215 14.9048 140.041 15.018 139.897 15.1648C139.753 15.3116 139.643 15.4885 139.573 15.683C139.504 15.8776 139.477 16.0852 139.495 16.2913V19.8416H138.311L138.311 11.3896Z" fill="white"/>
<path d="M150.386 18.2003C150.225 18.7559 149.876 19.2365 149.401 19.558C148.925 19.8795 148.353 20.0214 147.785 19.959C147.389 19.9696 146.996 19.8929 146.633 19.7342C146.269 19.5755 145.944 19.3387 145.68 19.0402C145.417 18.7416 145.22 18.3885 145.104 18.0054C144.989 17.6222 144.957 17.2182 145.011 16.8213C144.958 16.4232 144.991 16.0183 145.106 15.634C145.221 15.2497 145.417 14.895 145.679 14.5938C145.942 14.2927 146.265 14.0521 146.628 13.8885C146.99 13.7249 147.383 13.642 147.779 13.6454C149.45 13.6454 150.458 14.801 150.458 16.7099V17.1285H146.218V17.1957C146.2 17.4188 146.227 17.6434 146.299 17.855C146.372 18.0666 146.487 18.2606 146.637 18.4246C146.788 18.5885 146.97 18.7188 147.174 18.8071C147.377 18.8954 147.596 18.9397 147.817 18.9372C148.1 18.9717 148.388 18.92 148.642 18.7888C148.896 18.6575 149.106 18.4527 149.245 18.2003L150.386 18.2003ZM146.218 16.2412H149.251C149.266 16.0372 149.238 15.8323 149.17 15.6396C149.102 15.4469 148.995 15.2708 148.856 15.1225C148.717 14.9742 148.549 14.857 148.362 14.7784C148.175 14.6999 147.975 14.6618 147.773 14.6664C147.568 14.6638 147.364 14.7028 147.175 14.781C146.985 14.8593 146.812 14.9752 146.667 15.1219C146.523 15.2687 146.408 15.4433 146.331 15.6356C146.254 15.8278 146.215 16.0337 146.218 16.2412Z" fill="white"/>
</svg>
