<svg width="20" height="14" viewBox="0 0 20 14" fill="none" xmlns="http://www.w3.org/2000/svg">
<path d="M13.4062 0.478201L19.5938 6.38445C19.7695 6.56023 19.875 6.77117 19.875 7.01726C19.875 7.2282 19.7695 7.43914 19.5938 7.61492L13.4062 13.5212C13.0898 13.8376 12.5273 13.8376 12.2109 13.486C11.8945 13.1696 11.8945 12.6071 12.2461 12.2907L16.9219 7.86101H0.96875C0.476562 7.86101 0.125 7.47429 0.125 7.01726C0.125 6.52508 0.476562 6.17351 0.96875 6.17351H16.9219L12.2461 1.70867C11.8945 1.39226 11.8945 0.829763 12.2109 0.513357C12.5273 0.161795 13.0547 0.161795 13.4062 0.478201Z" fill="#002F39"/>
</svg>
