<svg width="530" height="80" viewBox="0 0 530 80" fill="none" xmlns="http://www.w3.org/2000/svg">
<path d="M51.68 40.6C50.8 34.77 28.58 31.8 26.16 31.47C22.42 28.06 23.85 25.31 24.07 24.98C26.16 22.56 29.57 20.58 33.09 18.93L42.99 23.55L50.25 14.97L46.18 2.87L35.07 1.66C32.1 2.21 5.26003 7.49 2.73003 19.59C0.310031 31.58 2.07003 34.99 3.17003 40.16C4.16003 45.33 26.16 48.08 29.46 49.18C32.65 50.28 33.2 56.99 30.78 60.84C29.57 62.71 25.83 62.49 18.68 62.93C17.47 62.93 14.94 56.99 14.72 56.33L2.51003 55.12L0.970031 64.14L4.16003 78.22C5.48003 78.44 11.53 79.32 18.79 79.32C27.81 79.32 38.59 77.89 43.98 72.06C53.66 61.5 52.56 46.54 51.68 40.6ZM80.2439 62.05L78.9239 52.37L79.5839 46.98L86.7339 48.85L99.2739 46.98V35.43L84.6439 34.44L79.9139 33.45V15.3H94.5439L104.994 16.51L108.294 1.88L92.3439 0.889996L60.8839 2.21L61.4339 15.3L57.5839 78.77L81.1239 75.91H95.7539L105.214 76.9L108.294 62.27L93.6639 61.28L80.2439 62.05ZM166.474 63.59L158.444 58.2C157.344 57.98 155.034 55.78 152.724 53.36L158.444 50.83C163.614 44.89 167.684 39.39 169.554 34.77C170.544 31.69 179.784 3.63999 158.884 1.22C156.684 0.999995 154.484 0.889996 152.284 0.889996C133.914 0.889996 117.414 8.92 115.324 9.91L114.444 37.19L116.314 55.01V76.79L134.794 79.87L133.474 59.85L138.534 58.53L144.694 68.32C146.784 71.84 153.274 79.87 153.824 79.87L169.444 78.22L172.964 65.35L166.474 63.59ZM132.044 43.35V21.35C131.934 21.35 141.724 16.95 148.434 16.95C151.844 16.95 154.484 18.16 154.484 21.57C154.484 39.28 135.894 43.35 132.044 43.35ZM179.436 3.08999L180.756 21.79L178.776 79.21L197.256 76.13L201.106 28.61L199.676 1.10999L179.436 3.08999ZM269.917 37.19C269.917 18.16 261.337 0.00999439 239.887 0.00999439C237.687 0.00999439 235.487 0.229998 233.947 0.559994C228.007 1.88 216.237 8.14999 215.027 9.13999C213.927 10.9 206.007 28.06 206.007 42.25C206.007 59.85 220.747 79.65 239.447 79.65C241.427 79.65 243.187 79.32 244.507 78.88C249.457 77.01 261.447 67.66 262.987 66.23C263.537 64.91 269.917 47.64 269.917 37.19ZM237.687 59.96C228.447 59.96 222.947 50.39 221.627 46.76C221.957 44.45 228.007 21.24 237.467 18.38C238.127 18.16 238.897 18.05 239.557 18.05C245.387 18.05 251.437 24.87 251.437 37.74C251.437 53.36 242.417 59.96 237.687 59.96ZM321.536 0.229998L314.386 2.87L310.976 25.97V57.1C308.886 58.75 306.906 59.19 305.036 59.19C301.296 59.19 298.436 57.21 297.996 56.88L295.466 37.74L294.036 2.43L274.786 1.66V28.06L281.166 67.88C290.516 76.57 298.656 79.43 305.366 79.43C317.686 79.43 325.056 69.64 326.156 68.1C332.316 54.9 334.186 15.52 333.636 5.73L321.536 0.229998ZM389.737 40.6C388.857 34.77 366.637 31.8 364.217 31.47C360.477 28.06 361.907 25.31 362.127 24.98C364.217 22.56 367.627 20.58 371.147 18.93L381.047 23.55L388.307 14.97L384.237 2.87L373.127 1.66C370.157 2.21 343.317 7.49 340.787 19.59C338.367 31.58 340.127 34.99 341.227 40.16C342.217 45.33 364.217 48.08 367.517 49.18C370.707 50.28 371.257 56.99 368.837 60.84C367.627 62.71 363.887 62.49 356.737 62.93C355.527 62.93 352.997 56.99 352.777 56.33L340.567 55.12L339.027 64.14L342.217 78.22C343.537 78.44 349.587 79.32 356.847 79.32C365.867 79.32 376.647 77.89 382.037 72.06C391.717 61.5 390.617 46.54 389.737 40.6ZM433.151 51.71L431.281 61.72H416.651L419.401 28.39L417.641 1.33L398.391 2.98L399.161 22.56L397.071 79.54L415.991 78L434.691 79.1L445.471 78.33L449.211 60.4V51.71H433.151ZM494.036 1.77L490.626 2.64999L487.436 0.999995L481.386 1.33L479.406 17.83L474.236 32.13L464.776 12.33L458.506 1.77L447.946 1.22L439.916 2.09999L454.766 33.89L464.776 51.71L462.796 79.87L483.696 77.01L482.486 50.06L496.346 29.93L501.626 17.61L504.266 4.62999L494.036 1.77ZM525.949 54.02L529.029 22.45L529.799 1.33L508.129 2.76L512.089 41.26V54.57L525.949 54.02ZM515.939 60.73C513.409 62.6 510.549 65.57 509.889 66.78C509.889 67 509.669 68.87 509.889 71.18C510.329 75.69 511.869 78.33 517.919 78.88C525.069 79.65 528.149 76.9 528.479 72.83C528.809 68.87 527.159 64.58 526.279 63.37C523.639 59.63 516.819 60.73 515.939 60.73Z" fill="url(#paint0_radial_1177_754)"/>
<defs>
<radialGradient id="paint0_radial_1177_754" cx="0" cy="0" r="1" gradientUnits="userSpaceOnUse" gradientTransform="translate(85.8507 47.4305) scale(311.74 1733.38)">
<stop offset="0.0660254" stop-color="#FFA944"/>
<stop offset="0.530983" stop-color="#FF8B20"/>
<stop offset="1" stop-color="#F9B935"/>
</radialGradient>
</defs>
</svg>
