<svg width="219" height="74" viewBox="0 0 219 74" fill="none" xmlns="http://www.w3.org/2000/svg">
<g clip-path="url(#clip0_825_4503)">
<path d="M98.3418 19.2491L98.8987 28.6202L98.5274 35.579L103.075 35.9501L103.447 30.3831L109.665 28.9914L109.851 26.4862L103.725 26.8574L104.003 23.3316L110.222 22.4038L112.078 19.4347L111.614 18.4141L98.3418 19.2491Z" fill="white"/>
<path d="M114.492 19.7131L119.133 18.4141L120.247 30.012C120.247 30.012 121.082 31.9605 123.402 30.1976L124.702 23.61L125.351 18.2285L127.857 18.7852H130.085L128.6 31.6821C128.6 31.6821 123.681 40.0326 116.72 33.1667L114.585 25.744L114.492 19.7131Z" fill="white"/>
<path d="M148.369 31.6805L144.471 27.8764L147.998 24.5362C147.998 24.5362 150.782 17.6702 145.028 17.0207C139.273 16.3712 132.962 20.3609 132.962 20.3609V26.2063L133.148 30.8454L133.333 36.0413L137.139 37.1547L137.417 32.1444L140.851 30.7527L146.513 36.4125L151.246 35.2991L148.369 31.6805ZM137.695 27.8764L137.51 23.33C137.51 23.33 145.956 19.2475 144.842 21.6599C143.636 24.4434 137.695 27.8764 137.695 27.8764Z" fill="white"/>
<path d="M153.567 17.8574L153.103 22.9605L153.474 35.3007L158.115 35.0224L158.764 24.4451L158.393 18.878L153.567 17.8574Z" fill="white"/>
<path d="M180.483 22.4951C179.926 21.5673 177.42 17.0209 170.552 17.7632C163.498 18.5054 161.734 22.959 161.642 29.4539L162.291 30.9384C162.291 30.9384 165.169 37.8972 175.007 36.5054C184.845 35.1137 181.04 23.5157 180.483 22.4951ZM175.749 31.0312C171.851 32.8869 169.531 31.959 169.531 31.959C165.725 29.5467 165.54 26.4848 166.19 25.3714C169.809 20.0828 173.707 22.0312 173.707 22.0312C178.998 25.8353 175.749 31.0312 175.749 31.0312Z" fill="white"/>
<path d="M184.288 19.7121H189.114L189.95 26.0214L190.599 30.8461C190.599 30.8461 192.363 32.1451 193.941 30.9389V22.9595L194.126 18.1348L197.189 17.7637C197.189 17.7637 198.489 18.3204 200.067 20.4544C200.067 20.4544 199.138 30.475 197.746 33.7224C197.746 33.7224 193.477 39.8461 186.608 33.5369L185.309 27.042L184.567 24.0729L184.288 19.7121Z" fill="white"/>
<path d="M214.174 16.836V19.3412C214.174 19.3412 209.998 20.4546 208.513 22.2175C208.513 22.2175 208.141 23.0525 209.069 23.9803C209.069 23.9803 215.381 24.8154 215.566 26.3927C215.752 27.97 216.123 31.5886 213.617 34.3721C211.111 37.1556 202.294 36.5989 202.294 36.5989L203.686 32.5164C203.686 32.5164 209.626 32.4236 210.276 31.403C210.926 30.3824 210.74 29.5474 209.905 29.269C209.069 28.9907 203.501 28.0628 203.222 26.6711C202.944 25.2793 202.387 23.9803 203.037 20.8257C203.686 17.6711 211.297 16.0938 211.297 16.0938L214.174 16.836Z" fill="white"/>
<path d="M107.437 42.1659C107.437 42.1659 101.497 40.9597 99.0838 42.2586C99.0838 42.2586 95.1856 56.1762 95 59.238L96.1138 59.8875L96.7635 58.8669L99.6407 58.5885L100.383 56.0834C100.383 56.0834 105.674 52.5576 106.602 53.2071L107.716 57.3824L112.635 58.9597C112.635 59.0525 109.015 44.8566 107.437 42.1659ZM105.117 49.3102C105.117 49.3102 103.539 50.1452 101.126 52.0009L102.425 45.5061L104.374 45.2277L105.117 49.3102Z" fill="white"/>
<path d="M112.728 44.5793L115.234 43.4659L116.069 43.837L116.811 43.1875L120.153 54.6927L122.473 47.3628L123.958 43.4659L126.557 43.2803L128.599 43.5586L124.886 55.3421L123.865 58.7751L116.533 59.703L114.677 52.837L113.377 49.3112L112.728 44.5793Z" fill="white"/>
<path d="M139.736 42.8161C134.167 42.0738 130.826 44.7645 129.991 49.1253C129.155 53.4862 130.362 58.4965 136.488 59.8882C143.078 61.4655 145.862 58.2181 147.161 53.5789C148.461 48.9398 145.398 43.5583 139.736 42.8161ZM142.985 52.8367C142.985 52.8367 140.293 56.548 138.53 56.3624C136.766 56.0841 135.188 54.3212 134.353 53.3006C134.353 53.3006 133.239 50.4243 136.024 48.1047C138.808 45.7851 142.057 48.5686 142.057 48.5686L143.263 50.981L142.985 52.8367Z" fill="white"/>
<path d="M162.012 41.2387C162.012 41.3315 162.291 42.3521 162.569 43.3727C162.94 44.5789 163.497 45.6923 163.497 45.6923L162.105 46.249L159.506 46.6201C159.506 46.6201 155.237 49.4964 154.494 52.7438C154.494 52.7438 157.65 57.0119 163.219 55.4346C163.219 55.4346 164.611 57.5686 163.312 59.981C163.312 59.981 153.845 62.95 149.761 54.3212V51.1665C149.761 51.1665 151.06 46.8057 155.701 43.4655C160.434 40.1253 162.012 41.2387 162.012 41.2387Z" fill="white"/>
<path d="M184.009 58.8672L182.431 55.527C182.431 55.527 180.575 45.228 178.069 40.6816L172.685 41.9806L169.622 43.7435L167.952 52.9291C167.952 52.9291 166.745 58.1249 167.302 59.9806L168.694 59.795L169.251 59.5167L169.901 59.6095L171.015 59.3311L171.386 56.9188C171.386 56.9188 175.748 53.4858 177.419 53.1146L178.904 57.9394L180.575 60.4445L181.41 59.9806L181.781 59.6095L184.009 58.8672ZM174.542 50.2383L172.128 52.3724L173.242 46.2486L175.006 45.3208C175.006 47.2693 176.119 49.4033 176.119 49.4033L174.542 50.2383Z" fill="white"/>
<path d="M198.674 49.589C198.674 49.589 198.952 47.0839 198.21 44.8571C197.467 42.6302 190.135 38.9189 185.773 41.4241L185.494 50.7952L186.422 60.2591L187.165 60.3519L187.443 60.9086C187.443 60.9086 195.24 59.7952 197.56 53.6715L198.024 51.2591L198.674 49.589ZM190.599 55.9911L189.485 45.9705C191.341 45.0426 193.847 46.6199 193.847 46.6199L194.497 47.9189C193.94 53.022 190.599 55.9911 190.599 55.9911Z" fill="white"/>
<path d="M208.419 41.4241C204.614 42.1663 199.138 46.6199 200.716 52.7437C202.294 58.8674 209.069 60.3519 211.482 59.6096C213.896 58.8674 219.279 56.5478 219 49.589C218.722 42.6303 212.689 40.589 208.419 41.4241ZM210.833 55.9911C209.533 56.3622 206.192 55.8055 204.985 51.723C203.779 47.6406 207.77 45.5993 208.791 45.5065C210.647 45.321 214.36 46.4344 214.36 50.1457C214.36 53.8571 212.132 55.6199 210.833 55.9911Z" fill="white"/>
</g>
<g clip-path="url(#clip1_825_4503)">
<path d="M20.9629 60.9551L18.9395 63.3707C19.3441 63.7734 27.195 70.0541 39.6594 70.0541C43.6253 70.0541 48.1578 69.4099 53.014 67.719L51.9618 64.7396C33.5891 71.1009 21.4485 61.4382 20.9629 60.9551Z" fill="white"/>
<path d="M58.032 64.0152C59.4888 62.1631 67.8254 50.89 68.23 38.6506C69.525 31.4036 67.9872 25.606 67.9063 25.3644L67.7444 24.8008L57.0607 20.211L52.4473 7.81058L52.0426 7.56901C51.6379 7.32745 43.2205 2.89872 35.2077 1.12723C32.5368 0.322007 29.704 -0.241649 27.2758 0.0804398L26.8712 0.160962L26.5474 0.402529C26.3855 0.563574 20.3962 4.67021 17.3206 8.85737L16.9968 9.34051L18.3728 26.0891C18.3728 26.4112 18.2918 27.9412 17.4824 30.4373C17.1587 30.2763 16.754 30.1153 16.4303 29.8737C14.8115 29.0685 13.1118 28.3438 11.4931 27.6191C11.4122 27.5385 11.2503 27.6191 11.2503 27.6996C11.1693 27.7801 11.2503 27.9412 11.3312 27.9412C12.95 28.7464 14.5687 29.6321 16.1874 30.4373C16.5921 30.6789 16.9968 30.84 17.3206 31.0815C16.1874 34.3829 14.0021 39.0532 9.5506 44.4482L8.98404 45.0924L9.22685 45.8976C9.30779 46.2197 11.8978 54.272 15.1353 58.6202L4.04688 65.384L7.04155 67.5581L21.3674 55.8824L20.5581 55.4798L17.8871 57.0902C15.459 53.9499 13.2737 47.9912 12.5453 45.8171C16.6731 40.6637 18.9393 36.1544 20.1534 32.692C20.3962 32.853 20.639 33.0141 20.8818 33.0946C21.8531 33.6582 22.8243 34.2219 23.7955 34.7856C23.3099 36.396 23.0671 38.248 22.9862 40.2611C22.9052 45.0924 23.7955 50.0848 25.6571 55.5603L25.738 55.8019L25.9808 55.8824C26.3855 56.0434 26.7902 56.285 27.2758 56.4461V56.5266C28.1662 56.9292 29.0565 57.3318 30.0277 57.6539C31.3227 58.137 32.7796 58.5396 34.3174 58.8617C35.6933 59.1838 37.2311 59.4254 38.688 59.5864C40.0639 59.7475 41.197 59.828 42.3302 59.828C42.573 59.828 42.8967 59.828 43.1395 59.828H43.3823L45.9723 58.0565C46.2151 57.8149 46.458 57.6539 46.7817 57.4123C47.2673 57.0097 47.7529 56.6071 48.2386 56.2045C48.4004 56.0434 48.6433 55.8824 48.8051 55.6408C49.2907 55.1577 49.8573 54.6746 50.3429 54.1914C50.4239 54.0304 50.5857 53.9499 50.6667 53.7888C50.9095 53.5473 51.0714 53.3057 51.3142 53.0641L52.2045 51.9368C53.4995 50.2458 54.4707 48.5549 55.1182 46.8639L55.2801 46.5418C55.442 46.2197 55.5229 45.8171 55.6848 45.495L55.9276 44.7703L56.0895 44.0456C56.2514 43.5625 56.3323 42.9988 56.3323 42.5962V42.4352C56.3323 42.2741 56.4132 42.0326 56.4132 41.8715V41.7105C56.4132 41.63 56.4132 41.5494 56.4132 41.4689V41.3884C56.4132 41.3079 56.4132 41.2273 56.4132 40.9858V40.9053C56.4132 40.8247 56.3323 40.8247 56.3323 40.7442L55.1992 39.2143C54.7945 38.7311 54.3898 38.1675 53.9851 37.6844C53.1757 36.6376 52.2854 35.6713 51.3951 34.7856C49.3717 32.692 47.4292 31.001 45.4867 29.6321C43.1395 27.9412 40.7114 26.7333 38.3642 26.0891C38.2024 26.0086 37.9595 26.0086 37.7977 25.9281C38.2024 24.7203 38.688 23.593 39.2545 22.4656C39.6592 21.7409 40.0639 21.0162 40.5495 20.2915C41.0352 19.6474 41.6017 19.0032 42.3302 18.6811C42.492 18.6006 42.573 18.4395 42.492 18.2785C42.4111 18.1174 42.2492 18.0369 42.0873 18.1174C41.197 18.52 40.5495 19.1642 39.983 19.8084C39.4164 20.5331 38.9308 21.2578 38.5261 21.9825C37.8786 23.1903 37.312 24.3982 36.8264 25.6865C34.5602 25.445 32.2939 25.7671 30.3515 26.6528C29.0565 27.297 27.9233 28.1022 26.9521 29.0685C26.0618 30.0347 25.2524 31.1621 24.6859 32.4504C24.524 32.853 24.3621 33.2556 24.2002 33.6582C23.3099 33.1751 22.3387 32.692 21.4484 32.2088C21.1246 32.0478 20.8009 31.8868 20.5581 31.7257C21.6912 28.2632 21.6912 26.0891 21.6912 25.9281L20.2343 10.3068C22.7434 7.1664 26.9521 4.02603 28.1661 3.22081C32.3749 2.8182 39.1736 5.87805 42.0064 7.40797L49.2908 26.1697L49.6145 26.4112C54.9564 30.5179 62.4026 33.8998 64.9116 34.9466C66.5304 47.4276 56.656 60.6332 55.442 62.1631L52.0426 59.6669L51.6379 60.0696L58.7604 67.1555L64.2641 73.6778L67.9063 72.8726L61.5932 66.7529L58.032 64.0152ZM32.6177 45.9782L34.5602 46.7029C34.5602 46.7029 39.983 46.3002 43.5442 42.5962C45.082 42.9183 46.6198 43.5625 48.1576 44.5288C45.3248 44.5288 43.3014 46.7834 43.3014 46.7834L43.7061 49.199C42.0873 49.6822 40.4686 50.2458 39.4164 51.0511C36.2599 53.1446 35.6933 56.124 35.6124 57.8149C35.2886 57.7344 34.8839 57.7344 34.5602 57.6539C34.3983 57.6539 34.1555 57.5734 33.9936 57.4928L31.0799 48.1523C31.3227 47.5886 31.8083 46.7834 32.6177 45.9782ZM50.9904 51.0511L50.1001 52.0979C49.9382 52.3394 49.6954 52.5005 49.5336 52.742C49.4526 52.8226 49.2907 52.9836 49.2098 53.1446C48.8051 53.6278 48.2386 54.0304 47.7529 54.5135C47.5911 54.6746 47.3483 54.8356 47.1864 55.0772C46.7008 55.4798 46.2151 55.8019 45.8105 56.2045C45.5676 56.4461 45.2439 56.6071 45.0011 56.7681L42.8158 58.2175C41.6017 58.2981 40.3067 58.2175 38.8499 58.137C38.2024 58.0565 37.5549 57.976 36.9074 57.8955C36.9074 56.6876 37.312 53.8693 40.1448 52.0173C43.1395 50.0043 49.8573 49.038 52.6901 48.7159C52.2045 49.4406 51.6379 50.2458 50.9904 51.0511ZM26.1427 33.2556C26.7093 32.1283 27.3568 31.0815 28.1661 30.3568C28.9755 29.5516 29.9468 28.8269 31.0799 28.3438C32.6177 27.6191 34.3983 27.297 36.1789 27.458C35.6933 28.9074 35.2077 30.4374 34.803 31.9673C34.4792 33.2556 34.1555 34.4635 33.9127 35.7518L32.6177 34.6245C32.5368 34.544 32.3749 34.544 32.213 34.6245C32.0511 34.705 32.0511 34.9466 32.1321 35.0271L33.7508 37.6038L33.8318 37.6844C33.8318 38.1675 34.1555 38.7311 34.6411 38.9727C35.3696 39.3753 36.4217 39.1338 36.8264 38.4091C37.2311 37.6844 36.9883 36.6376 36.2599 36.235C36.0171 36.0739 35.6933 35.9934 35.3696 35.9934C35.6124 34.705 35.8552 33.4167 36.098 32.2088C36.4217 30.6789 36.8264 29.0685 37.312 27.6191C37.5549 27.6996 37.7977 27.6996 38.0405 27.7801C40.1449 28.3438 42.3302 29.3906 44.6773 31.001C46.5389 32.2894 48.3195 33.8193 50.4239 35.9129C51.3142 36.7986 52.2045 37.7649 53.0139 38.7311C53.4185 39.2143 53.8232 39.6974 54.2279 40.1805L55.2801 41.4689V41.5494C55.2801 41.63 55.2801 41.7105 55.2801 41.7105V41.8715C55.2801 42.0326 55.2801 42.1936 55.1992 42.3547V42.5157C55.1182 42.9183 55.0373 43.4014 54.9564 43.8041L54.7945 44.4482L54.3898 45.0924C54.3089 45.4145 54.147 45.7366 53.9851 46.0587L53.8232 46.3808C53.7423 46.5418 53.6614 46.7029 53.5804 46.7834C48.3195 42.2741 43.2205 40.6637 38.8499 41.0663C32.7796 41.63 29.8658 47.347 29.7849 47.5886C29.704 47.7496 29.704 47.9107 29.704 48.0717L32.4558 57.0097C31.7274 56.8487 30.999 56.6071 30.3515 56.4461C29.0565 56.0434 27.8424 55.5603 26.6283 54.9967C25.9808 52.742 25.4143 50.4069 25.0096 47.9107C24.6049 45.2535 24.3621 42.7573 24.524 40.4221C24.6049 38.6506 24.8477 37.1207 25.1715 35.7518C25.2524 35.8323 25.3333 35.8323 25.4952 35.9129C26.7902 36.7181 28.0852 37.6038 29.2993 38.5701C29.1374 38.6506 29.0565 38.8117 28.9755 38.9727C28.5708 39.6974 28.8136 40.7442 29.5421 41.1468C30.2705 41.5494 31.3227 41.3079 31.7274 40.5832C32.1321 39.8585 31.8893 38.8117 31.1608 38.4091H31.0799L30.6752 35.4297C30.6752 35.2687 30.5133 35.1882 30.4324 35.1882C30.2705 35.1882 30.1086 35.2687 30.1086 35.4297L29.8658 37.1207C28.6518 36.3155 27.4377 35.5908 26.2237 34.8661C26.0618 34.7856 25.819 34.6245 25.6571 34.544C25.738 34.1414 25.8999 33.6582 26.1427 33.2556ZM51.9617 24.2371L45.4058 7.24693C47.8339 8.29372 49.6145 9.17946 50.4239 9.58207L55.0373 22.063L65.5591 26.6528C65.721 27.5385 66.1257 29.5516 66.1257 32.0478C63.9404 31.0815 56.8988 28.0217 51.9617 24.2371Z" fill="white"/>
<path d="M67.9057 59.668L67.501 60.0706L73.8141 64.7409L75.9994 62.2447L67.9057 59.668Z" fill="white"/>
<path d="M75.2715 53.5469H71.7911L74.543 54.5937L75.2715 53.5469Z" fill="white"/>
<path d="M66.2062 12.9649L70.8196 8.3751L68.8771 5.87891L65.6396 10.1466L61.5928 18.4404H62.4831L66.2062 12.9649Z" fill="white"/>
<path d="M12.707 72.1484L13.8402 74.0004H15.6208L18.7773 68.1222L17.0776 67.5586L12.707 72.1484Z" fill="white"/>
<path d="M7.04134 54.03L1.21387 53.5469V54.5937L1.9423 56.2846L5.98916 55.3989L7.04134 54.03Z" fill="white"/>
<path d="M9.1459 35.0269L7.52716 33.2554L0 29.793V32.4502L6.71778 35.0269H9.1459Z" fill="white"/>
<path d="M10.684 19.485L7.77023 16.1836L6.23242 18.4382L10.0365 20.4513L10.684 19.485Z" fill="white"/>
</g>
<defs>
<clipPath id="clip0_825_4503">
<rect width="124" height="45" fill="white" transform="translate(95 16)"/>
</clipPath>
<clipPath id="clip1_825_4503">
<rect width="76" height="74" fill="white"/>
</clipPath>
</defs>
</svg>
