<svg width="42" height="42" viewBox="0 0 42 42" fill="none" xmlns="http://www.w3.org/2000/svg">
<path d="M24.1679 24C24.9424 24 25.6259 23.3438 25.6259 22.5V19.5C25.6259 18.7031 24.9424 18 24.1679 18C23.3477 18 22.7098 18.7031 22.7098 19.5V22.5C22.7098 23.3438 23.3477 24 24.1679 24ZM21.2518 22.5V18C21.2518 17.2031 20.5683 16.5 19.7938 16.5C18.9736 16.5 18.3357 17.2031 18.3357 18V20.6719C19.5204 20.6719 20.6595 21.375 21.2518 22.5ZM28.542 12C27.7218 12 27.0839 12.7031 27.0839 13.5V22.5C27.0839 24.1875 25.7626 25.5 24.1679 25.5C23.2566 25.5 22.482 25.125 21.9808 24.4688C21.7986 24.6562 21.6163 24.7969 21.4341 24.9375C21.1151 26.1094 20.2494 27.0469 19.0647 27.3281L16.2398 27.9844L15.4197 26.625L18.7002 25.8281C19.5659 25.6406 20.1583 24.8906 20.1583 24.0469C20.1583 23.0625 19.3837 22.125 18.3357 22.125C18.199 22.125 18.0623 22.1719 17.9257 22.1719L12.458 23.4844C11.0911 23.8125 11 25.125 11 25.3125C11 25.5469 11.0911 25.8281 11.1823 26.0625L12.1847 28.3594C13.4149 31.2188 16.1487 33 19.1559 33H21.9808C26.4005 33 30 29.3438 30 24.75V13.5C30 12.7031 29.3165 12 28.542 12ZM16.8777 10.5C16.8777 9.70312 16.1942 9 15.4197 9C14.5995 9 13.9616 9.70312 13.9616 10.5V21.5625L16.8777 20.9062V10.5Z" fill="white"/>
</svg>
