<svg width="180" height="54" viewBox="0 0 180 54" fill="none" xmlns="http://www.w3.org/2000/svg">
<rect width="180" height="54" fill="black"/>
<path d="M63.2257 13.8283C63.2499 14.3237 63.1743 14.8189 63.0035 15.2837C62.8327 15.7486 62.5702 16.1734 62.2321 16.5322C61.8531 16.9301 61.3955 17.2426 60.889 17.4491C60.3826 17.6556 59.8388 17.7515 59.2933 17.7306C58.7442 17.7356 58.1997 17.6294 57.6918 17.4183C57.1839 17.2071 56.7228 16.8953 56.3356 16.5012C55.9484 16.107 55.6429 15.6385 55.4371 15.1231C55.2313 14.6077 55.1293 14.0559 55.1371 13.5C55.1294 12.9441 55.2314 12.3923 55.4372 11.8769C55.643 11.3615 55.9485 10.8929 56.3357 10.4987C56.7228 10.1045 57.1839 9.79266 57.6918 9.58143C58.1997 9.37021 58.7442 9.26389 59.2933 9.26871C59.8578 9.26698 60.4166 9.38254 60.9353 9.60824C61.417 9.80593 61.8457 10.116 62.1866 10.5133L61.4834 11.2258C61.2154 10.9065 60.8786 10.6537 60.4989 10.4871C60.1191 10.3205 59.7066 10.2444 59.2933 10.2647C58.8772 10.2626 58.4649 10.3454 58.0812 10.5084C57.6974 10.6713 57.3502 10.911 57.0601 11.2131C56.77 11.5152 56.5431 11.8734 56.3931 12.2664C56.243 12.6593 56.1727 13.0789 56.1866 13.5C56.1767 14.1307 56.352 14.7502 56.6902 15.2799C57.0285 15.8096 57.5145 16.2257 58.0866 16.4754C58.6588 16.7251 59.2912 16.7971 59.9038 16.6824C60.5165 16.5676 61.0816 16.2713 61.5277 15.8309C61.9382 15.383 62.1762 14.8007 62.1982 14.1901H59.2933V13.2172H63.1697C63.2063 13.4188 63.2251 13.6233 63.2257 13.8283Z" fill="white"/>
<path d="M69.3714 10.4454H65.7282V13.0135H69.0134V13.9865H65.7282V16.5546H69.3714V17.55H64.7009V9.45002H69.3714V10.4454Z" fill="white"/>
<path d="M73.7061 17.55H72.6774V10.4454H70.443V9.45002H75.9405V10.4454H73.7061V17.55Z" fill="white"/>
<path d="M79.9183 17.55V9.45002H80.9457V17.55H79.9183Z" fill="white"/>
<path d="M85.5055 17.55H84.4769V10.4454H82.2426V9.45002H87.7399V10.4454H85.5055V17.55Z" fill="white"/>
<path d="M98.1469 16.5032C97.3682 17.2892 96.3135 17.7306 95.2139 17.7306C94.1144 17.7306 93.0597 17.2892 92.281 16.5032C91.8958 16.1081 91.593 15.6387 91.3905 15.1228C91.1881 14.6069 91.0902 14.055 91.1026 13.5C91.0902 12.945 91.1881 12.3931 91.3905 11.8772C91.593 11.3613 91.8958 10.8918 92.281 10.4968C92.6659 10.107 93.1229 9.79791 93.6259 9.58717C94.1289 9.37644 94.6681 9.26822 95.2124 9.26871C95.7568 9.2692 96.2957 9.37839 96.7984 9.59002C97.301 9.80166 97.7575 10.1116 98.1417 10.5021C98.5272 10.8961 98.8306 11.3645 99.0339 11.8794C99.2372 12.3944 99.3363 12.9455 99.3253 13.5C99.3374 14.055 99.2393 14.6067 99.0369 15.1226C98.8345 15.6385 98.5318 16.1079 98.1469 16.5032ZM93.0401 15.825C93.6168 16.4079 94.3984 16.7353 95.2133 16.7353C96.0282 16.7353 96.8098 16.4079 97.3865 15.825C97.6822 15.5184 97.9135 15.1543 98.0664 14.7547C98.2192 14.3551 98.2905 13.9283 98.2758 13.5C98.2905 13.0717 98.2192 12.6449 98.0664 12.2453C97.9135 11.8457 97.6822 11.4816 97.3865 11.175C96.8098 10.5921 96.0282 10.2647 95.2133 10.2647C94.3984 10.2647 93.6168 10.5921 93.0401 11.175C92.7448 11.4818 92.5138 11.846 92.3612 12.2456C92.2086 12.6451 92.1375 13.0718 92.1521 13.5C92.1375 13.9281 92.2086 14.3549 92.3612 14.7544C92.5138 15.154 92.7448 15.5182 93.0401 15.825Z" fill="white"/>
<path d="M100.768 17.55V9.45002H102.019L105.907 15.7511H105.952L105.907 14.1901V9.45002H106.936V17.55H105.863L101.795 10.9436H101.751L101.795 12.5046V17.55H100.768Z" fill="white"/>
<path d="M63.2257 13.8283C63.2499 14.3237 63.1743 14.8189 63.0035 15.2837C62.8327 15.7486 62.5702 16.1734 62.2321 16.5322C61.8531 16.9301 61.3955 17.2426 60.889 17.4491C60.3826 17.6556 59.8388 17.7515 59.2933 17.7306C58.7442 17.7356 58.1997 17.6294 57.6918 17.4183C57.1839 17.2071 56.7228 16.8953 56.3356 16.5012C55.9484 16.107 55.6429 15.6385 55.4371 15.1231C55.2313 14.6077 55.1293 14.0559 55.1371 13.5C55.1294 12.9441 55.2314 12.3923 55.4372 11.8769C55.643 11.3615 55.9485 10.8929 56.3357 10.4987C56.7228 10.1045 57.1839 9.79266 57.6918 9.58143C58.1997 9.37021 58.7442 9.26389 59.2933 9.26871C59.8578 9.26698 60.4166 9.38254 60.9353 9.60824C61.417 9.80593 61.8457 10.116 62.1866 10.5133L61.4834 11.2258C61.2154 10.9065 60.8786 10.6537 60.4989 10.4871C60.1191 10.3205 59.7066 10.2444 59.2933 10.2647C58.8772 10.2626 58.4649 10.3454 58.0812 10.5084C57.6974 10.6713 57.3502 10.911 57.0601 11.2131C56.77 11.5152 56.5431 11.8734 56.3931 12.2664C56.243 12.6593 56.1727 13.0789 56.1866 13.5C56.1767 14.1307 56.352 14.7502 56.6902 15.2799C57.0285 15.8096 57.5145 16.2257 58.0866 16.4754C58.6588 16.7251 59.2912 16.7971 59.9038 16.6824C60.5165 16.5676 61.0816 16.2713 61.5277 15.8309C61.9382 15.383 62.1762 14.8007 62.1982 14.1901H59.2933V13.2172H63.1697C63.2063 13.4188 63.2251 13.6233 63.2257 13.8283Z" stroke="white" stroke-width="0.2" stroke-miterlimit="10"/>
<path d="M69.3714 10.4454H65.7282V13.0135H69.0134V13.9865H65.7282V16.5546H69.3714V17.55H64.7009V9.45002H69.3714V10.4454Z" stroke="white" stroke-width="0.2" stroke-miterlimit="10"/>
<path d="M73.7061 17.55H72.6774V10.4454H70.443V9.45002H75.9405V10.4454H73.7061V17.55Z" stroke="white" stroke-width="0.2" stroke-miterlimit="10"/>
<path d="M79.9183 17.55V9.45002H80.9457V17.55H79.9183Z" stroke="white" stroke-width="0.2" stroke-miterlimit="10"/>
<path d="M85.5055 17.55H84.4769V10.4454H82.2426V9.45002H87.7399V10.4454H85.5055V17.55Z" stroke="white" stroke-width="0.2" stroke-miterlimit="10"/>
<path d="M98.1469 16.5032C97.3682 17.2892 96.3135 17.7306 95.2139 17.7306C94.1144 17.7306 93.0597 17.2892 92.281 16.5032C91.8958 16.1081 91.593 15.6387 91.3905 15.1228C91.1881 14.6069 91.0902 14.055 91.1026 13.5C91.0902 12.945 91.1881 12.3931 91.3905 11.8772C91.593 11.3613 91.8958 10.8918 92.281 10.4968C92.6659 10.107 93.1229 9.79791 93.6259 9.58717C94.1289 9.37644 94.6681 9.26822 95.2124 9.26871C95.7568 9.2692 96.2957 9.37839 96.7984 9.59002C97.301 9.80166 97.7575 10.1116 98.1417 10.5021C98.5272 10.8961 98.8306 11.3645 99.0339 11.8794C99.2372 12.3944 99.3363 12.9455 99.3253 13.5C99.3374 14.055 99.2393 14.6067 99.0369 15.1226C98.8345 15.6385 98.5318 16.1079 98.1469 16.5032ZM93.0401 15.825C93.6168 16.4079 94.3984 16.7353 95.2133 16.7353C96.0282 16.7353 96.8098 16.4079 97.3865 15.825C97.6822 15.5184 97.9135 15.1543 98.0664 14.7547C98.2192 14.3551 98.2905 13.9283 98.2758 13.5C98.2905 13.0717 98.2192 12.6449 98.0664 12.2453C97.9135 11.8457 97.6822 11.4816 97.3865 11.175C96.8098 10.5921 96.0282 10.2647 95.2133 10.2647C94.3984 10.2647 93.6168 10.5921 93.0401 11.175C92.7448 11.4818 92.5138 11.846 92.3612 12.2456C92.2086 12.6451 92.1375 13.0718 92.1521 13.5C92.1375 13.9281 92.2086 14.3549 92.3612 14.7544C92.5138 15.154 92.7448 15.5182 93.0401 15.825Z" stroke="white" stroke-width="0.2" stroke-miterlimit="10"/>
<path d="M100.768 17.55V9.45002H102.019L105.907 15.7511H105.952L105.907 14.1901V9.45002H106.936V17.55H105.863L101.795 10.9436H101.751L101.795 12.5046V17.55H100.768Z" stroke="white" stroke-width="0.2" stroke-miterlimit="10"/>
<path d="M90.8485 29.3646C89.7278 29.3689 88.6335 29.7093 87.7038 30.3428C86.774 30.9763 86.0505 31.8746 85.6246 32.9241C85.1987 33.9737 85.0894 35.1275 85.3107 36.2398C85.5319 37.3522 86.0737 38.3732 86.8677 39.174C87.6616 39.9749 88.6721 40.5196 89.7716 40.7393C90.871 40.9591 92.0102 40.8441 93.0451 40.4089C94.0801 39.9737 94.9645 39.2377 95.5867 38.2939C96.2089 37.3502 96.5409 36.2409 96.5409 35.1062C96.5519 34.3473 96.412 33.5939 96.1296 32.8908C95.8471 32.1877 95.4279 31.5493 94.8968 31.0136C94.3657 30.4779 93.7336 30.0559 93.0381 29.7726C92.3427 29.4893 91.598 29.3505 90.8485 29.3646ZM90.8485 38.5861C90.1583 38.6359 89.4693 38.4742 88.8712 38.122C88.2731 37.7698 87.7935 37.2435 87.495 36.6114C87.1965 35.9794 87.0928 35.2711 87.1975 34.5786C87.3022 33.8861 87.6103 33.2415 88.0819 32.7288C88.5534 32.2161 89.1665 31.8591 89.8412 31.7041C90.516 31.5491 91.2212 31.6034 91.8651 31.86C92.509 32.1165 93.0616 32.5633 93.4511 33.1423C93.8407 33.7213 94.049 34.4057 94.049 35.1062C94.07 35.5488 94.0032 35.9912 93.8528 36.4072C93.7023 36.8233 93.4712 37.2047 93.1729 37.529C92.8747 37.8533 92.5154 38.1138 92.1162 38.2954C91.717 38.4769 91.286 38.5758 90.8485 38.5861ZM78.4306 29.3646C77.3099 29.3688 76.2156 29.7092 75.2859 30.3427C74.3561 30.9763 73.6326 31.8745 73.2066 32.924C72.7807 33.9736 72.6714 35.1274 72.8927 36.2397C73.1139 37.3521 73.6557 38.3732 74.4496 39.174C75.2436 39.9748 76.2541 40.5195 77.3535 40.7393C78.453 40.9591 79.5921 40.8441 80.6271 40.4089C81.6621 39.9737 82.5465 39.2377 83.1687 38.294C83.7908 37.3502 84.1229 36.2409 84.1229 35.1062C84.1339 34.3473 83.994 33.5939 83.7116 32.8908C83.4292 32.1877 83.0099 31.5494 82.4788 31.0137C81.9478 30.478 81.3157 30.0559 80.6202 29.7726C79.9248 29.4893 79.1801 29.3506 78.4306 29.3646ZM78.4306 38.5861C77.7404 38.6359 77.0515 38.4742 76.4533 38.122C75.8552 37.7698 75.3757 37.2435 75.0772 36.6114C74.7786 35.9794 74.675 35.2711 74.7796 34.5786C74.8843 33.8861 75.1924 33.2415 75.664 32.7288C76.1355 32.2161 76.7486 31.8591 77.4234 31.7041C78.0981 31.5491 78.8034 31.6034 79.4472 31.86C80.0911 32.1165 80.6438 32.5633 81.0333 33.1423C81.4228 33.7213 81.6311 34.4057 81.6311 35.1062C81.6521 35.5488 81.5854 35.9912 81.4349 36.4073C81.2845 36.8233 81.0533 37.2047 80.7551 37.529C80.4569 37.8533 80.0976 38.1139 79.6984 38.2954C79.2992 38.4769 78.8681 38.5758 78.4306 38.5861ZM63.6589 31.1263V33.5621H69.4158C69.3327 34.7046 68.871 35.7852 68.1054 36.6288C67.5285 37.2241 66.8347 37.6905 66.0688 37.9976C65.303 38.3048 64.482 38.446 63.6589 38.4121C61.9762 38.389 60.3701 37.696 59.1883 36.4831C58.0064 35.2701 57.3438 33.6348 57.3438 31.9309C57.3438 30.227 58.0064 28.5917 59.1883 27.3787C60.3701 26.1658 61.9762 25.4728 63.6589 25.4497C65.2752 25.4283 66.8345 26.0536 67.9981 27.1896L69.695 25.4715C68.9011 24.6757 67.9582 24.0484 66.9217 23.6263C65.8852 23.2043 64.7759 22.9961 63.6589 23.0138C62.4915 22.9966 61.3324 23.2145 60.249 23.6549C59.1656 24.0953 58.1795 24.7494 57.348 25.5792C56.5164 26.4089 55.8561 27.3977 55.4054 28.4882C54.9548 29.5786 54.7227 30.7489 54.7227 31.9309C54.7227 33.113 54.9548 34.2832 55.4054 35.3737C55.8561 36.4641 56.5164 37.4529 57.348 38.2827C58.1795 39.1124 59.1656 39.7665 60.249 40.2069C61.3324 40.6473 62.4915 40.8652 63.6589 40.848C64.7995 40.8959 65.9371 40.6977 66.9963 40.2665C68.0555 39.8353 69.012 39.1809 69.8023 38.3469C71.2056 36.7961 71.9535 34.7508 71.8861 32.6487C71.8916 32.1382 71.8484 31.6284 71.757 31.1263H63.6589ZM124.07 33.0183C123.729 31.9783 123.08 31.0698 122.212 30.4161C121.343 29.7624 120.297 29.3953 119.215 29.3646C118.487 29.3692 117.767 29.5233 117.098 29.8176C116.43 30.112 115.828 30.5405 115.328 31.0771C114.828 31.6138 114.441 32.2476 114.19 32.9401C113.939 33.6326 113.829 34.3695 113.867 35.1062C113.85 35.8611 113.984 36.6116 114.261 37.3129C114.537 38.0142 114.951 38.6518 115.476 39.1878C116.001 39.7237 116.628 40.147 117.318 40.4322C118.009 40.7175 118.749 40.8589 119.495 40.848C120.429 40.8533 121.35 40.6235 122.174 40.1794C122.999 39.7352 123.702 39.0906 124.22 38.3034L122.287 36.9985C121.997 37.4855 121.588 37.8879 121.098 38.1662C120.609 38.4445 120.056 38.5892 119.495 38.5861C118.917 38.6085 118.346 38.4546 117.856 38.1443C117.365 37.8341 116.978 37.3818 116.745 36.8462L124.328 33.6709L124.07 33.0183ZM116.337 34.9324C116.31 34.5145 116.366 34.0954 116.501 33.6996C116.637 33.3038 116.848 32.9393 117.124 32.6274C117.4 32.3156 117.735 32.0625 118.109 31.8832C118.483 31.7039 118.888 31.6018 119.301 31.583C119.731 31.5544 120.16 31.6546 120.535 31.8712C120.909 32.0878 121.212 32.4111 121.406 32.801L116.337 34.9324ZM110.172 40.5H112.664V23.6229H110.172V40.5ZM106.091 30.6477H106.005C105.626 30.231 105.164 29.901 104.649 29.6797C104.134 29.4584 103.578 29.351 103.019 29.3646C101.557 29.4276 100.175 30.0601 99.1622 31.1299C98.1496 32.1998 97.5842 33.6244 97.5842 35.1063C97.5842 36.5882 98.1496 38.0128 99.1622 39.0827C100.175 40.1525 101.557 40.785 103.019 40.848C103.58 40.8631 104.138 40.7542 104.654 40.5289C105.17 40.3035 105.631 39.9672 106.005 39.5431H106.091V40.3696C106.091 42.5663 104.931 43.7407 103.062 43.7407C102.439 43.7256 101.835 43.5231 101.326 43.159C100.817 42.7949 100.427 42.2857 100.205 41.6962L98.0354 42.6098C98.4443 43.6178 99.1412 44.4792 100.037 45.0837C100.932 45.6881 101.986 46.0081 103.062 46.0026C105.983 46.0026 108.454 44.2627 108.454 40.0216V29.7125H106.091V30.6477ZM103.234 38.5861C102.373 38.5122 101.57 38.1135 100.985 37.4691C100.401 36.8247 100.076 35.9814 100.076 35.1063C100.076 34.2312 100.401 33.3879 100.985 32.7435C101.57 32.0991 102.373 31.7004 103.234 31.6265C103.662 31.6477 104.082 31.756 104.468 31.945C104.855 32.134 105.199 32.3997 105.482 32.7265C105.765 33.0533 105.979 33.4343 106.113 33.8469C106.248 34.2594 106.298 34.6951 106.262 35.128C106.296 35.5581 106.243 35.9907 106.108 36.3998C105.973 36.8089 105.757 37.1862 105.474 37.509C105.192 37.8319 104.847 38.0937 104.462 38.2787C104.077 38.4638 103.66 38.5683 103.234 38.5861ZM135.742 23.6232H129.78V40.5H132.268V34.1059H135.742C136.445 34.1449 137.15 34.0383 137.811 33.7926C138.473 33.5468 139.078 33.1671 139.59 32.6765C140.102 32.186 140.509 31.595 140.788 30.9395C141.066 30.2841 141.21 29.5781 141.21 28.8645C141.21 28.151 141.066 27.445 140.788 26.7895C140.509 26.1341 140.102 25.5431 139.59 25.0525C139.078 24.562 138.473 24.1823 137.811 23.9365C137.15 23.6907 136.445 23.5841 135.742 23.6232ZM135.806 31.7572H132.268V25.972H135.806C136.186 25.9641 136.564 26.033 136.918 26.1748C137.271 26.3166 137.593 26.5283 137.865 26.7977C138.136 27.0671 138.352 27.3887 138.5 27.7436C138.647 28.0985 138.723 28.4796 138.723 28.8646C138.723 29.2496 138.647 29.6307 138.5 29.9856C138.352 30.3405 138.136 30.6621 137.865 30.9315C137.593 31.2009 137.271 31.4127 136.918 31.5544C136.564 31.6962 136.186 31.7651 135.806 31.7572ZM151.182 29.3335C150.274 29.2799 149.37 29.4957 148.581 29.9547C147.793 30.4137 147.154 31.0958 146.743 31.9173L148.951 32.8509C149.17 32.4432 149.502 32.109 149.906 31.8891C150.31 31.6693 150.768 31.5734 151.224 31.6133C151.856 31.5509 152.485 31.7444 152.976 32.1514C153.466 32.5584 153.777 33.1456 153.841 33.7845V33.9582C153.042 33.5285 152.151 33.3047 151.246 33.3068C148.866 33.3068 146.442 34.6313 146.442 37.1065C146.466 37.6282 146.592 38.1398 146.814 38.611C147.036 39.0823 147.35 39.5036 147.736 39.8498C148.122 40.1961 148.572 40.4604 149.061 40.6269C149.55 40.7934 150.067 40.8588 150.581 40.8193C151.208 40.8566 151.832 40.7232 152.391 40.433C152.949 40.1428 153.42 39.7064 153.755 39.1692H153.841V40.4719H156.242V34.0017C156.242 31.0054 154.034 29.3335 151.182 29.3335ZM150.881 38.5829C150.066 38.5829 148.93 38.1704 148.93 37.1499C148.93 35.8472 150.345 35.3477 151.568 35.3477C152.362 35.3263 153.147 35.5213 153.841 35.9123C153.749 36.6443 153.399 37.3181 152.855 37.809C152.311 38.3 151.61 38.5748 150.881 38.5829ZM164.992 29.7026L162.14 37.0196H162.054L159.095 29.7026H156.414L160.853 39.9291L158.323 45.6177H160.917L167.758 29.7026H164.992ZM142.582 40.5H145.07V23.6232H142.582V40.5Z" fill="white"/>
<path d="M13.9129 10.176C13.4757 10.7053 13.2549 11.3838 13.2959 12.0726V41.9292C13.2548 42.618 13.4756 43.2966 13.9129 43.8258L14.0116 43.9231L30.5303 27.1982V26.8036L14.0116 10.078L13.9129 10.176Z" fill="url(#paint0_linear_1621_9288)"/>
<path d="M36.0352 32.7755L30.5293 27.1982V26.8036L36.0365 21.2275L36.1606 21.2992L42.6844 25.0523C44.5478 26.1242 44.5478 27.8781 42.6844 28.9507L36.1606 32.7038L36.0352 32.7755Z" fill="url(#paint1_linear_1621_9288)"/>
<path d="M36.1608 32.7032L30.5294 27.001L13.9121 43.8258C14.2918 44.1649 14.7767 44.3588 15.2827 44.3739C15.7888 44.389 16.2841 44.2245 16.6829 43.9087L36.1608 32.7032Z" fill="url(#paint2_linear_1621_9288)"/>
<path d="M36.1608 21.2986L16.6829 10.0931C16.2841 9.77735 15.7888 9.61277 15.2827 9.62791C14.7767 9.64305 14.2918 9.83695 13.9121 10.176L30.5294 27.001L36.1608 21.2986Z" fill="url(#paint3_linear_1621_9288)"/>
<path opacity="0.2" d="M36.0366 32.5781L16.6829 43.7119C16.2995 44.0075 15.8315 44.1687 15.3496 44.1713C14.8677 44.1739 14.398 44.0178 14.0114 43.7264L13.9121 43.8269L14.0108 43.9243L14.0114 43.9236C14.3979 44.2152 14.8676 44.3714 15.3496 44.3688C15.8315 44.3662 16.2995 44.2049 16.6829 43.9092L36.1608 32.7037L36.0366 32.5781Z" fill="black"/>
<path opacity="0.12" d="M13.9129 43.6293C13.4757 43.1 13.255 42.4214 13.2958 41.7327V41.9299C13.2549 42.6187 13.4757 43.2972 13.9129 43.8265L14.0122 43.7259L13.9129 43.6293Z" fill="black"/>
<path opacity="0.12" d="M42.685 28.7533L36.0371 32.5781L36.1612 32.7036L42.685 28.9505C43.0687 28.7819 43.4008 28.5122 43.6466 28.1695C43.8925 27.8268 44.0431 27.4236 44.0827 27.002C44.0002 27.3838 43.8309 27.7409 43.5883 28.0449C43.3457 28.3489 43.0364 28.5915 42.685 28.7533Z" fill="black"/>
<path opacity="0.25" d="M16.6828 10.2913L42.6844 25.2492C43.0359 25.411 43.3453 25.6537 43.588 25.9578C43.8306 26.262 43.9998 26.6193 44.0821 27.0013C44.0427 26.5794 43.8923 26.1761 43.6464 25.8332C43.4006 25.4903 43.0683 25.2205 42.6844 25.052L16.6828 10.0941C14.8193 9.02205 13.2949 9.91251 13.2949 12.0736V12.2708C13.2949 10.1099 14.8193 9.21942 16.6828 10.2913Z" fill="white"/>
<defs>
<linearGradient id="paint0_linear_1621_9288" x1="29.0654" y1="11.7578" x2="6.41099" y2="34.1326" gradientUnits="userSpaceOnUse">
<stop stop-color="#00A0FF"/>
<stop offset="0.00657" stop-color="#00A1FF"/>
<stop offset="0.2601" stop-color="#00BEFF"/>
<stop offset="0.5122" stop-color="#00D2FF"/>
<stop offset="0.7604" stop-color="#00DFFF"/>
<stop offset="1" stop-color="#00E3FF"/>
</linearGradient>
<linearGradient id="paint1_linear_1621_9288" x1="45.1106" y1="27.0015" x2="12.8481" y2="27.0015" gradientUnits="userSpaceOnUse">
<stop stop-color="#FFE000"/>
<stop offset="0.4087" stop-color="#FFBD00"/>
<stop offset="0.7754" stop-color="#FFA500"/>
<stop offset="1" stop-color="#FF9C00"/>
</linearGradient>
<linearGradient id="paint2_linear_1621_9288" x1="33.1008" y1="30.0993" x2="2.37969" y2="60.4414" gradientUnits="userSpaceOnUse">
<stop stop-color="#FF3A44"/>
<stop offset="1" stop-color="#C31162"/>
</linearGradient>
<linearGradient id="paint3_linear_1621_9288" x1="9.72802" y1="0.2376" x2="23.4463" y2="13.7866" gradientUnits="userSpaceOnUse">
<stop stop-color="#32A071"/>
<stop offset="0.0685" stop-color="#2DA771"/>
<stop offset="0.4762" stop-color="#15CF74"/>
<stop offset="0.8009" stop-color="#06E775"/>
<stop offset="1" stop-color="#00F076"/>
</linearGradient>
</defs>
</svg>
