<svg width="42" height="42" viewBox="0 0 42 42" fill="none" xmlns="http://www.w3.org/2000/svg">
<path d="M25.0921 22.4943L22.6259 22.9035C21.9797 23.0107 21.3689 22.5737 21.2617 21.9274C20.4576 17.0805 23.735 12.4994 28.5819 11.6953L32.7467 11.0044C32.9239 10.975 33.0914 11.0949 33.1208 11.2721C34.0027 16.5881 30.4081 21.6125 25.0921 22.4943Z" fill="white"/>
<path d="M20.9454 23.7197C20.4394 23.7197 20.0293 24.1299 20.0293 24.6359V26.0857C20.0293 26.3476 19.8269 26.564 19.5666 26.5931C18.1358 26.753 16.8079 27.1594 15.7629 27.769C14.9408 28.2486 14.3342 28.8303 13.9794 29.4631C13.6031 30.1342 14.24 30.7921 15.0093 30.7921L26.8817 30.7921C27.651 30.7921 28.2879 30.1342 27.9116 29.4631C27.5568 28.8303 26.9502 28.2486 26.128 27.769C25.0831 27.1594 23.7551 26.7529 22.3242 26.5931C22.0639 26.564 21.8616 26.3476 21.8616 26.0857V24.6359C21.8616 24.1299 21.4514 23.7197 20.9454 23.7197Z" fill="white"/>
<path d="M19.1612 23.4886H17.0888C12.6215 23.4886 9 19.8671 9 15.3998C9 15.2509 9.12072 15.1302 9.26963 15.1302H12.7695C16.8426 15.1302 20.1445 18.4321 20.1445 22.5053C20.1445 23.0484 19.7043 23.4886 19.1612 23.4886Z" fill="white"/>
</svg>
