<svg width="42" height="42" viewBox="0 0 42 42" fill="none" xmlns="http://www.w3.org/2000/svg">
<path d="M17.875 30.0017C17.875 30.554 18.3227 31.0017 18.875 31.0017H22.125C22.6773 31.0017 23.125 30.554 23.125 30.0017V24.125C23.125 23.5727 23.5727 23.125 24.125 23.125H30C30.5523 23.125 31 22.6773 31 22.125V18.875C31 18.3227 30.5523 17.875 30 17.875H24.125C23.5727 17.875 23.125 17.4273 23.125 16.875V11C23.125 10.4477 22.6773 10 22.125 10H18.875C18.3227 10 17.875 10.4477 17.875 11V16.875C17.875 17.4273 17.4273 17.875 16.875 17.875H11C10.4477 17.875 10 18.3227 10 18.875V22.125C10 22.6773 10.4477 23.125 11 23.125H16.875C17.4273 23.125 17.875 23.5727 17.875 24.125V30.0017Z" fill="white"/>
</svg>
