<svg width="150" height="50" viewBox="0 0 150 50" fill="none" xmlns="http://www.w3.org/2000/svg">
<g clip-path="url(#clip0_1143_1709)">
<path d="M45.6315 23.6674C45.6315 23.6674 44.9115 38.3028 35.608 43.7979C35.608 43.7979 23.6464 49.1842 14.4536 41.5673C14.4536 41.5673 11.0755 39.4998 8.30664 30.8491L12.8476 22.3072C12.8476 22.3072 13.346 14.1461 13.346 13.8197C13.346 13.4933 12.7369 6.63797 12.7369 6.63797L18.2193 1.57812L28.1874 3.48237L32.3407 10.5553L35.9403 18.7707L45.6315 23.6674Z" fill="url(#paint0_radial_1143_1709)"/>
<path d="M14.2875 4.24348L12.8477 10.9355L14.2875 15.1793L16.4472 12.4589L18.607 15.1793L20.2683 14.0911L19.2715 6.25654L23.3141 10.4459L26.083 12.3501L29.0734 15.3425L31.5654 16.5395C31.5654 16.5395 28.4089 8.86807 28.2428 9.14011C28.0212 9.41214 32.0638 13.5471 32.0638 13.5471L31.5654 7.88875L28.8519 3.80823L19.2161 0.707031L14.2875 4.24348Z" fill="#E5FF94"/>
<path d="M29.627 4.24414L34.6664 17.0298L45.4097 22.8513L45.6312 17.4106L38.3767 14.3094L35.2201 5.87635L29.627 4.24414Z" fill="#1C821C"/>
<path opacity="0.67" d="M16.2256 31.7734C16.2256 31.7734 16.6686 39.8801 19.4929 44.9943C19.4929 44.9943 25.7506 49.2925 31.953 45.8104C31.953 45.8104 38.8752 35.2011 38.1553 27.8017L24.7538 27.04L16.2256 31.7734Z" fill="url(#paint1_radial_1143_1709)"/>
<path d="M15.6719 3.59061C15.4504 3.80824 12.8477 8.2152 12.8477 8.2152L16.9456 6.41977L19.936 3.97146L27.9659 5.54926L29.6272 4.24349L20.3237 1.08789L15.6719 3.59061Z" fill="#FFFFB3"/>
<path d="M39.3182 14.6895L36.6047 14.9615L34.9434 16.5393L40.2043 20.7286L46.1851 22.8505V16.9745L39.3182 14.6895Z" fill="#0F5B0F"/>
<path d="M27.1348 47.3345C18.5512 47.3345 13.2349 43.0908 12.958 42.8187L14.3425 41.1865C14.6747 41.4586 22.9814 48.0418 35.6076 43.7437L36.3275 45.7567C32.9495 46.8993 29.9037 47.3345 27.1348 47.3345Z" fill="black"/>
<path d="M39.5955 43.4166L37.8788 42.0565C37.9342 41.9477 45.5764 32.4808 44.4134 23.5581C42.6967 22.8508 37.6019 20.6201 33.947 17.791L33.7255 17.6277L28.7414 4.95092C26.8032 3.97159 22.1514 1.90413 19.2718 2.17616C18.4411 2.72023 15.5614 4.8421 13.8447 6.96397L14.7308 17.5733C14.7308 17.791 14.6754 23.4493 8.52843 30.9574C9.02683 32.4264 10.5774 36.5614 12.2388 38.6288L10.522 39.989C8.19616 37.1054 6.31331 31.2839 6.25793 31.0663L6.0918 30.5222L6.47944 30.0869C12.1834 23.3405 12.5157 18.1174 12.571 17.6821L11.6296 6.31109L11.8511 5.98465C13.9555 3.15549 18.0535 0.38073 18.2196 0.217509L18.4411 0.0542885L18.718 -0.000118457C23.0929 -0.544188 29.9044 3.15549 30.1813 3.31871L30.5135 3.48193L35.5529 16.322C39.6509 19.3688 45.7425 21.8171 45.8532 21.8171L46.407 22.0347L46.5178 22.6332C48.2345 32.6985 39.9278 42.9814 39.5955 43.4166Z" fill="black"/>
<path d="M46.5174 27.2573L44.8007 26.8765C45.7421 22.7416 45.133 19.1507 44.9114 18.0082L37.7123 14.907L34.5557 6.47388C33.0605 5.71218 25.9168 2.23014 20.7666 1.9581L20.8774 0.271484C27.0243 0.597926 35.331 4.95048 35.6633 5.1137L35.9402 5.27693L39.0967 13.6556L46.4067 16.7568L46.5174 17.1376C46.5174 17.3553 47.7357 21.8166 46.5174 27.2573Z" fill="black"/>
<path d="M38.1557 27.8014C38.1557 27.8014 38.4326 34.3846 29.406 39.8253C29.406 39.8253 23.6466 40.2062 17.8873 37.4314C17.8873 37.4314 12.6264 22.6327 20.7116 18.6066C28.7968 14.5805 38.1557 27.8014 38.1557 27.8014Z" fill="#FCBB38"/>
<path d="M19.4377 19.5317C19.4377 19.5317 17.6656 22.8505 17.5549 24.6459C17.5549 24.6459 15.5059 21.8712 18.9393 22.6329L21.8744 20.6742L26.4707 20.7286L30.4026 23.0681L33.7253 22.8505C33.7806 22.9049 25.8616 14.5262 19.4377 19.5317Z" fill="#FFE964"/>
<path d="M28.9069 12.6769C28.4085 12.9489 28.0208 13.3298 27.6886 13.765C27.3563 14.2003 27.0794 14.6899 26.8025 15.234C26.3041 16.2677 25.9165 17.3559 25.5288 18.444C25.1965 19.5322 24.9197 20.6747 24.6428 21.8173C24.4213 22.9598 24.1997 24.1024 24.0336 25.1905L23.9782 25.3537C23.8675 25.6257 23.5906 25.7346 23.3691 25.6802C23.2583 25.6257 23.1476 25.5713 23.0922 25.4625L21.9846 23.7215C21.9292 23.6127 21.9292 23.5039 22.04 23.4495C22.0954 23.3951 22.2061 23.3951 22.3169 23.4495L23.9228 24.7552L22.9814 25.0273C23.2029 23.8847 23.4798 22.7422 23.8121 21.5996C24.1444 20.4571 24.4766 19.3145 24.8643 18.2264C25.2519 17.1383 25.7503 16.0501 26.3041 14.962C26.581 14.4179 26.9133 13.9282 27.3009 13.493C27.6886 13.0577 28.187 12.6225 28.7407 12.3504C28.8515 12.296 28.9623 12.3504 29.0176 12.4593C29.073 12.4593 29.0176 12.6225 28.9069 12.6769Z" fill="black"/>
<path d="M20.7667 27.9653C21.3784 27.9653 21.8743 27.4782 21.8743 26.8772C21.8743 26.2762 21.3784 25.7891 20.7667 25.7891C20.1551 25.7891 19.6592 26.2762 19.6592 26.8772C19.6592 27.4782 20.1551 27.9653 20.7667 27.9653Z" fill="black"/>
<path d="M24.2003 26.4956C24.812 26.4956 25.3079 26.0084 25.3079 25.4075C25.3079 24.8065 24.812 24.3193 24.2003 24.3193C23.5886 24.3193 23.0928 24.8065 23.0928 25.4075C23.0928 26.0084 23.5886 26.4956 24.2003 26.4956Z" fill="black"/>
<path d="M19.438 19.5321C19.438 19.5321 15.34 29.8151 19.8257 36.1807C19.8257 36.1807 24.5882 39.3907 29.6276 37.432C34.667 35.4734 36.5498 28.074 36.5498 28.074C36.5498 28.074 30.5136 19.5866 26.8033 18.7704C26.8033 18.7704 29.6276 18.444 35.6638 24.7552L38.1558 27.802C38.1558 27.802 38.4881 33.95 29.4061 39.8259C29.4061 39.8259 23.1484 40.1524 17.8874 37.432C17.9428 37.4864 13.6787 24.7008 19.438 19.5321Z" fill="#F27520"/>
<path d="M22.9263 39.1724L20.7666 32.3716C20.7666 32.3716 26.1383 22.6871 36.8816 32.3716C36.8816 32.3716 29.9594 32.9156 27.1905 34.7655C24.4216 36.6153 24.7538 39.6077 24.7538 39.6077L22.9263 39.1724Z" fill="url(#paint2_radial_1143_1709)"/>
<path d="M21.874 30.9026L23.6461 31.501C23.6461 31.501 27.6887 31.229 30.1254 28.3454C30.1807 28.3454 25.5844 26.6588 21.874 30.9026Z" fill="white"/>
<path d="M35.3867 40.5875L40.26 45.3753L43.9703 49.7278L46.4623 49.1838L42.1428 45.0488L35.6636 40.3154L35.3867 40.5875Z" fill="black"/>
<path d="M46.1855 40.5875L50.505 43.7431L52.0002 42.0565L46.4624 40.3154L46.1855 40.5875Z" fill="black"/>
<path d="M49.1201 36.1807L51.003 36.888L51.5014 36.1807H49.1201Z" fill="black"/>
<path d="M42.1426 12.4592L44.9115 6.85525L47.1266 3.97168L48.4557 5.6583L45.2991 8.75949L42.7517 12.4592H42.1426Z" fill="black"/>
<path d="M17.8867 25.3538L18.1636 26.7684L19.105 26.9316L19.2158 25.0273L17.8867 25.3538Z" fill="#FFE964"/>
<path d="M30.5684 24.8641L30.7345 25.8978L31.399 26.0067L31.5098 24.6465L30.5684 24.8641Z" fill="#FFE964"/>
<path d="M14.0657 37.4316L14.6195 37.7037L4.81754 45.6471L2.76855 44.1781L14.0657 37.4316Z" fill="black"/>
<path d="M11.6848 45.6475L12.8477 46.0283L10.6879 50H9.46963L8.69434 48.7487L11.6848 45.6475Z" fill="black"/>
<path d="M4.81827 36.5071L4.09836 37.432L1.32946 38.0305L0.831055 36.888V36.1807L4.81827 36.5071Z" fill="black"/>
<path d="M6.25772 23.6673H4.59638L0 21.9263V20.1309L5.15016 22.4704L6.25772 23.6673Z" fill="black"/>
<path d="M21.874 30.9025L22.8155 31.229C22.8155 31.229 25.0859 28.4542 29.6823 28.8895L30.1807 28.3454C30.1807 28.3454 25.5844 26.7676 21.874 30.9025Z" fill="#99C3FF"/>
<path d="M4.26465 12.4589L6.86742 13.8191L7.31044 13.1662L5.31683 10.9355L4.26465 12.4589Z" fill="black"/>
<path d="M7.8083 18.6614C8.97124 19.1511 10.0788 19.6952 11.1864 20.1848C12.2939 20.7289 13.4569 21.273 14.5644 21.817C15.672 22.3611 16.7795 22.9596 17.8871 23.6125C18.9947 24.211 20.0469 24.8638 21.099 25.6255L20.2684 26.0064L20.5453 23.9933C20.5453 23.8845 20.656 23.7757 20.7668 23.8301C20.8775 23.8301 20.9329 23.9389 20.9329 23.9933L21.2098 26.0064C21.2652 26.2784 21.0437 26.496 20.8221 26.5505C20.7114 26.5505 20.5453 26.5505 20.4899 26.4416L20.4345 26.3872C19.4931 25.6799 18.4409 24.9727 17.4441 24.3198C16.3919 23.6669 15.3397 23.014 14.2875 22.4155C13.2354 21.817 12.1278 21.2186 11.0202 20.6201C9.91267 20.0216 8.80511 19.4775 7.69755 18.9335C7.64217 18.8791 7.58679 18.8247 7.64217 18.7703C7.69755 18.607 7.75293 18.607 7.8083 18.6614Z" fill="black"/>
<path d="M30.0149 33.5692L29.6826 31.5017C29.6826 31.5017 31.6762 29.4343 34.0575 30.1416L36.8818 32.3178C36.8818 32.3722 32.1193 32.4267 30.0149 33.5692Z" fill="white"/>
<path d="M33.2822 32.6438C33.2822 32.6438 33.5037 30.9572 34.8882 30.7939L36.5495 32.1541L33.2822 32.6438Z" fill="#99C3FF"/>
<path d="M24.809 39.7715C24.809 39.7715 24.7537 39.7715 24.809 39.7715L22.8708 39.3906C22.8154 39.3906 22.7047 39.3362 22.7047 39.2274L20.5449 32.4266C20.5449 32.3721 20.5449 32.3177 20.5449 32.2633C20.6003 32.1001 22.5939 28.6181 26.6365 27.9652C29.7931 27.4211 33.2819 28.8901 37.0476 32.2089C37.103 32.2633 37.1583 32.3721 37.103 32.4266C37.0476 32.481 36.9922 32.5898 36.9368 32.5898C36.8814 32.5898 30.0699 33.1338 27.3564 34.9293C24.6983 36.6703 25.0305 39.445 25.0305 39.5539C25.0305 39.6083 25.0305 39.7171 24.9752 39.7171C24.9198 39.7715 24.8644 39.7715 24.809 39.7715ZM23.0923 39.0098L24.5875 39.2818C24.5875 38.4657 24.7537 36.0718 27.1349 34.5484C29.5162 32.9706 34.7771 32.3721 36.4384 32.2089C32.9496 29.2165 29.7377 27.9108 26.8026 28.4004C23.3138 28.9445 21.3756 31.8825 21.0987 32.4266L23.0923 39.0098Z" fill="black"/>
<path d="M38.3771 27.7471C38.3771 27.9103 38.3771 27.9648 38.3771 28.0736C38.3771 28.1824 38.3771 28.2368 38.3771 28.3456C38.3771 28.5088 38.3217 28.672 38.3217 28.8353C38.2664 29.1617 38.211 29.4881 38.1556 29.8146L38.0448 30.3043L37.8787 30.7939C37.768 31.1204 37.6572 31.3924 37.5464 31.7188C37.048 32.9158 36.3281 34.0583 35.5528 35.0921L34.8883 35.7449C34.6668 36.017 34.4453 36.2346 34.2238 36.4522C33.7807 36.9419 33.2823 37.3772 32.7839 37.8124C32.2855 38.2477 31.7317 38.6285 31.2333 39.0638L29.6274 40.1519L29.572 40.2063H29.4612C28.4091 40.2607 27.4676 40.1519 26.4155 40.0975C25.4186 39.9887 24.4218 39.8255 23.425 39.6078C22.4282 39.3902 21.4868 39.1182 20.5454 38.7917C19.604 38.4653 18.6625 38.0844 17.7765 37.6492L17.7211 37.5948V37.5404C16.6135 34.2216 15.8382 30.7939 15.949 27.2575C16.0044 25.5164 16.2813 23.721 17.0566 22.0888C17.4442 21.2727 17.9426 20.511 18.6071 19.8581C19.2717 19.2052 20.047 18.6612 20.8776 18.2803C22.539 17.4642 24.5326 17.4098 26.2493 17.8451C28.0214 18.2803 29.6274 19.1508 31.0672 20.1846C32.507 21.2183 33.8361 22.4152 35.0544 23.6666C35.6636 24.3195 36.2174 24.9724 36.8265 25.6253C37.1034 25.9517 37.3803 26.2781 37.6572 26.659L38.0448 27.2031L38.2664 27.4751L38.3771 27.5839L38.4325 27.6383L38.4879 27.6927C38.3771 27.6927 38.3771 27.6927 38.3771 27.7471ZM37.9895 27.8559C37.9895 27.8559 37.9895 27.9103 37.9895 27.8559L37.9341 27.8015L37.8233 27.6927L37.6018 27.4207L37.2142 26.931C36.9373 26.6046 36.6604 26.2781 36.3835 25.9517C35.8297 25.2988 35.2206 24.6459 34.6114 24.0474C33.3931 22.8505 32.064 21.6535 30.6796 20.7286C29.2397 19.7493 27.7445 18.9332 26.0832 18.5523C24.4218 18.1715 22.7051 18.2259 21.1545 18.9876C20.3792 19.3685 19.7147 19.8037 19.1055 20.4022C18.4964 21.0007 18.0534 21.7079 17.7211 22.4696C17.0012 23.993 16.7243 25.6797 16.6689 27.3663C16.6135 29.0529 16.7243 30.7939 17.0566 32.4805C17.3335 34.1671 17.7211 35.8538 18.2195 37.486L18.1087 37.3772C18.9948 37.758 19.9362 38.1389 20.8223 38.4109C21.7637 38.6829 22.7051 38.955 23.6466 39.1182C24.588 39.2814 25.5848 39.4446 26.5262 39.499C27.523 39.5534 28.4644 39.6078 29.4612 39.5534L29.2951 39.6078L30.9011 38.5741C31.3995 38.1933 31.9533 37.8124 32.3963 37.4316C32.8947 36.9963 33.3931 36.6155 33.7807 36.1258C34.0022 35.9082 34.2238 35.6905 34.4453 35.4185L35.0544 34.7112C35.8297 33.7319 36.5496 32.6438 37.048 31.5012C37.1588 31.2292 37.3249 30.9027 37.3803 30.6307L37.5464 30.1954L37.6572 29.7602C37.768 29.4337 37.8233 29.1617 37.8787 28.8353C37.8787 28.672 37.9341 28.5088 37.9341 28.3456C37.9341 28.2912 37.9341 28.1824 37.9341 28.128C37.9895 27.9648 37.9341 27.8559 37.9895 27.8559Z" fill="black"/>
<path d="M25.6406 22.3063L27.1912 23.9385L28.631 23.3401L27.0805 20.7285L25.6406 22.3063Z" fill="#FFE964"/>
<path d="M21.3203 10.8818L21.8741 13.9286H24.8091L23.037 11.5891L21.3203 10.8818Z" fill="#E5FF94"/>
</g>
<g clip-path="url(#clip1_1143_1709)">
<path d="M61.4521 9.3819L61.8608 16.2541L61.5884 21.3572L64.926 21.6293L65.1984 17.5469L69.762 16.5262L69.8983 14.6891L65.4027 14.9613L65.6071 12.3757L70.1707 11.6953L71.533 9.51798L71.1924 8.76953L61.4521 9.3819Z" fill="#1A3C3E"/>
<path d="M73.3037 9.72147L76.7094 8.76889L77.5268 17.274C77.5268 17.274 78.1398 18.7029 79.8426 17.4101L80.7962 12.5792L81.273 8.63281L83.1121 9.04106H84.7468L83.657 18.4988C83.657 18.4988 80.047 24.6225 74.9384 19.5875L73.3718 14.1442L73.3037 9.72147Z" fill="#1A3C3E"/>
<path d="M98.1653 18.4992L95.3045 15.7095L97.8928 13.2601C97.8928 13.2601 99.9362 8.225 95.7132 7.74871C91.4901 7.27243 86.8584 10.1982 86.8584 10.1982V14.4848L86.9946 17.8869L87.1309 21.6972L89.9235 22.5137L90.1279 18.8394L92.6481 17.8188L96.803 21.9693L100.277 21.1528L98.1653 18.4992ZM90.3322 15.7095L90.196 12.3755C90.196 12.3755 96.3943 9.3817 95.577 11.1508C94.6915 13.192 90.3322 15.7095 90.3322 15.7095Z" fill="#1A3C3E"/>
<path d="M101.979 8.36133L101.639 12.1036L101.911 21.1531L105.317 20.949L105.794 13.1923L105.521 9.10978L101.979 8.36133Z" fill="#1A3C3E"/>
<path d="M121.732 11.7633C121.324 11.0829 119.485 7.74885 114.444 8.29318C109.268 8.83751 107.973 12.1035 107.905 16.8664L108.382 17.955C108.382 17.955 110.494 23.0581 117.714 22.0375C124.934 21.0169 122.141 12.5117 121.732 11.7633ZM118.259 18.0231C115.398 19.3839 113.695 18.7035 113.695 18.7035C110.902 16.9344 110.766 14.6891 111.243 13.8726C113.899 9.99421 116.76 11.4231 116.76 11.4231C120.643 14.2128 118.259 18.0231 118.259 18.0231Z" fill="#1A3C3E"/>
<path d="M124.525 9.72183H128.067L128.68 14.3486L129.157 17.8868C129.157 17.8868 130.451 18.8394 131.609 17.9548V12.1033L131.745 8.56513L133.993 8.29297C133.993 8.29297 134.947 8.70122 136.105 10.2662C136.105 10.2662 135.424 17.6146 134.402 19.9961C134.402 19.9961 131.269 24.4868 126.228 19.86L125.275 15.0971L124.73 12.9198L124.525 9.72183Z" fill="#1A3C3E"/>
<path d="M146.458 7.61269V9.4498C146.458 9.4498 143.393 10.2663 142.303 11.5591C142.303 11.5591 142.03 12.1715 142.712 12.8519C142.712 12.8519 147.343 13.4642 147.48 14.6209C147.616 15.7776 147.888 18.4312 146.049 20.4725C144.21 22.5137 137.739 22.1055 137.739 22.1055L138.761 19.1117C138.761 19.1117 143.12 19.0436 143.597 18.2952C144.074 17.5467 143.938 16.9343 143.325 16.7302C142.712 16.5261 138.625 15.8457 138.42 14.8251C138.216 13.8044 137.807 12.8519 138.284 10.5385C138.761 8.22506 144.346 7.06836 144.346 7.06836L146.458 7.61269Z" fill="#1A3C3E"/>
<path d="M68.1272 26.1882C68.1272 26.1882 63.768 25.3036 61.997 26.2562C61.997 26.2562 59.1362 36.4624 59 38.7078L59.8174 39.184L60.2942 38.4356L62.4057 38.2315L62.9506 36.3944C62.9506 36.3944 66.8331 33.8088 67.5142 34.2851L68.3316 37.3469L71.9416 38.5036C71.9416 38.5717 69.2852 28.1614 68.1272 26.1882ZM66.4244 31.4273C66.4244 31.4273 65.2665 32.0397 63.4955 33.4005L64.4491 28.6377L65.8795 28.4335L66.4244 31.4273Z" fill="#1A3C3E"/>
<path d="M72.0098 27.9571L73.8488 27.1406L74.4619 27.4128L75.0068 26.9365L77.4589 35.3736L79.1617 29.9984L80.2515 27.1406L82.1587 27.0046L83.6572 27.2087L80.9327 35.8499L80.1834 38.3675L74.8024 39.0479L73.4402 34.0128L72.4866 31.4272L72.0098 27.9571Z" fill="#1A3C3E"/>
<path d="M91.8309 26.6642C87.7441 26.1199 85.292 28.0931 84.6789 31.291C84.0659 34.4889 84.9514 38.1632 89.4469 39.1838C94.283 40.3405 96.3264 37.959 97.28 34.557C98.2336 31.1549 95.9858 27.2085 91.8309 26.6642ZM94.2149 34.0126C94.2149 34.0126 92.2396 36.7343 90.9454 36.5982C89.6512 36.3941 88.4933 35.1013 87.8803 34.3529C87.8803 34.3529 87.0629 32.2436 89.1063 30.5425C91.1497 28.8415 93.5337 30.8827 93.5337 30.8827L94.4192 32.6518L94.2149 34.0126Z" fill="#1A3C3E"/>
<path d="M108.178 25.5076C108.178 25.5756 108.382 26.3241 108.586 27.0725C108.859 27.9571 109.267 28.7736 109.267 28.7736L108.246 29.1818L106.338 29.454C106.338 29.454 103.205 31.5633 102.66 33.9447C102.66 33.9447 104.976 37.0746 109.063 35.9179C109.063 35.9179 110.085 37.4828 109.131 39.2519C109.131 39.2519 102.184 41.4292 99.1865 35.1014V32.788C99.1865 32.788 100.14 29.5901 103.546 27.1406C107.02 24.6911 108.178 25.5076 108.178 25.5076Z" fill="#1A3C3E"/>
<path d="M124.321 38.4357L123.163 35.9862C123.163 35.9862 121.801 28.4336 119.962 25.0996L116.011 26.0522L113.764 27.345L112.538 34.081C112.538 34.081 111.652 37.8914 112.061 39.2522L113.083 39.1161L113.491 38.912L113.968 38.98L114.785 38.7759L115.058 37.0068C115.058 37.0068 118.259 34.4893 119.485 34.2171L120.575 37.7553L121.801 39.5924L122.414 39.2522L122.687 38.98L124.321 38.4357ZM117.374 32.1079L115.603 33.6728L116.42 29.1821L117.714 28.5017C117.714 29.9305 118.532 31.4955 118.532 31.4955L117.374 32.1079Z" fill="#1A3C3E"/>
<path d="M135.083 31.6311C135.083 31.6311 135.288 29.794 134.743 28.161C134.198 26.528 128.817 23.8064 125.615 25.6435L125.411 32.5156L126.092 39.4558L126.637 39.5239L126.841 39.9321C126.841 39.9321 132.563 39.1156 134.266 34.6249L134.606 32.8558L135.083 31.6311ZM129.157 36.3259L128.34 28.9775C129.702 28.2971 131.541 29.4538 131.541 29.4538L132.018 30.4064C131.609 34.1486 129.157 36.3259 129.157 36.3259Z" fill="#1A3C3E"/>
<path d="M142.235 25.6437C139.442 26.1881 135.423 29.454 136.581 33.9448C137.739 38.4355 142.711 39.5241 144.482 38.9798C146.253 38.4355 150.204 36.7345 150 31.6314C149.795 26.5283 145.368 25.0314 142.235 25.6437ZM144.006 36.3262C143.052 36.5984 140.6 36.1901 139.714 33.1963C138.829 30.2025 141.758 28.7056 142.507 28.6375C143.869 28.5015 146.594 29.318 146.594 32.0396C146.594 34.7613 144.959 36.054 144.006 36.3262Z" fill="#1A3C3E"/>
</g>
<defs>
<radialGradient id="paint0_radial_1143_1709" cx="0" cy="0" r="1" gradientUnits="userSpaceOnUse" gradientTransform="translate(20.8058 6.9599) scale(45.7683 44.9657)">
<stop stop-color="#D2F675"/>
<stop offset="1" stop-color="#BEE951"/>
</radialGradient>
<radialGradient id="paint1_radial_1143_1709" cx="0" cy="0" r="1" gradientUnits="userSpaceOnUse" gradientTransform="translate(27.7529 37.9088) scale(13.8172 6.89331)">
<stop stop-color="#48D140"/>
<stop offset="1" stop-color="#5F8F00"/>
</radialGradient>
<radialGradient id="paint2_radial_1143_1709" cx="0" cy="0" r="1" gradientUnits="userSpaceOnUse" gradientTransform="translate(29.3153 33.3876) scale(8.03979 7.8988)">
<stop offset="0.000761218" stop-color="#740011"/>
<stop offset="0.9989" stop-color="#250000"/>
</radialGradient>
<clipPath id="clip0_1143_1709">
<rect width="52" height="50" fill="white"/>
</clipPath>
<clipPath id="clip1_1143_1709">
<rect width="91" height="33" fill="white" transform="translate(59 7)"/>
</clipPath>
</defs>
</svg>
