<svg width="42" height="42" viewBox="0 0 42 42" fill="none" xmlns="http://www.w3.org/2000/svg">
<path d="M30.8704 17.9547C31.4708 17.9547 31.9394 17.4271 31.8027 16.8425C30.8191 12.6389 27.3072 9.43711 22.9986 9.00456C22.4491 8.94939 22 9.40242 22 9.9547V16.9547C22 17.507 22.4477 17.9547 23 17.9547H30.8704Z" fill="white"/>
<path d="M11.2084 20.0717C11.0643 19.4864 11.5337 18.9547 12.1365 18.9547H30.8635C31.4663 18.9547 31.9357 19.4864 31.7916 20.0717C30.6784 24.5934 26.493 27.9547 21.5 27.9547C16.507 27.9547 12.3216 24.5934 11.2084 20.0717Z" fill="white"/>
<path d="M18 30.9547C18 32.0593 17.1046 32.9547 16 32.9547C14.8954 32.9547 14 32.0593 14 30.9547C14 29.8501 14.8954 28.9547 16 28.9547C17.1046 28.9547 18 29.8501 18 30.9547Z" fill="white"/>
<path d="M29 30.9547C29 32.0593 28.1046 32.9547 27 32.9547C25.8954 32.9547 25 32.0593 25 30.9547C25 29.8501 25.8954 28.9547 27 28.9547C28.1046 28.9547 29 29.8501 29 30.9547Z" fill="white"/>
<path d="M15.8832 17.3936C15.9652 17.6855 15.7298 17.9547 15.4266 17.9547H11.5C11.2239 17.9547 11 17.7308 11 17.4547V14.4547C11 14.1786 11.2244 13.9523 11.4995 13.9769C13.6279 14.1669 15.3676 15.5584 15.8832 17.3936Z" fill="white"/>
</svg>
