<svg width="42" height="32" viewBox="0 0 42 32" fill="none" xmlns="http://www.w3.org/2000/svg">
<path opacity="0.5" d="M9.54185 12.5586C9.07726 12.5586 8.63143 12.6294 8.18768 12.694C8.33143 12.2107 8.47935 11.719 8.71685 11.2773C8.95435 10.6357 9.32518 10.0794 9.69393 9.51901C10.0023 8.91276 10.546 8.50234 10.946 7.98359C11.3648 7.47943 11.9356 7.14401 12.3877 6.72526C12.8314 6.28776 13.4127 6.06901 13.8752 5.76068C14.3585 5.48359 14.7793 5.17734 15.2293 5.03151L16.3523 4.56901L17.3398 4.15859L16.3293 0.121094L15.0856 0.421093C14.6877 0.521093 14.2023 0.63776 13.6502 0.777343C13.0856 0.88151 12.4835 1.16693 11.8127 1.42734C11.1502 1.72318 10.3835 1.92318 9.67101 2.39818C8.95435 2.85234 8.12726 3.23151 7.3981 3.83984C6.69185 4.46693 5.83976 5.01068 5.2106 5.80859C4.5231 6.55443 3.84393 7.33776 3.31685 8.22943C2.70643 9.07943 2.29185 10.0128 1.85435 10.9357C1.45851 11.8586 1.13976 12.8023 0.879347 13.719C0.385597 15.5565 0.164764 17.3023 0.0793471 18.7961C0.00851381 20.2919 0.0501805 21.5357 0.13768 22.4357C0.16893 22.8607 0.227264 23.2732 0.268931 23.5586L0.321014 23.9086L0.37518 23.8961C0.745724 25.627 1.59873 27.2176 2.83552 28.484C4.07231 29.7503 5.64235 30.6407 7.36401 31.052C9.08568 31.4633 10.8886 31.3788 12.5643 30.8082C14.2399 30.2377 15.7198 29.2044 16.8327 27.8279C17.9456 26.4514 18.6461 24.788 18.8531 23.03C19.0602 21.2721 18.7653 19.4914 18.0025 17.8941C17.2398 16.2967 16.0405 14.9479 14.5432 14.0037C13.0459 13.0595 11.312 12.5585 9.54185 12.5586ZM32.4585 12.5586C31.9939 12.5586 31.5481 12.6294 31.1043 12.694C31.2481 12.2107 31.396 11.719 31.6335 11.2773C31.871 10.6357 32.2418 10.0794 32.6106 9.51901C32.9189 8.91276 33.4627 8.50234 33.8627 7.98359C34.2814 7.47943 34.8523 7.14401 35.3043 6.72526C35.7481 6.28776 36.3293 6.06901 36.7918 5.76068C37.2752 5.48359 37.696 5.17734 38.146 5.03151L39.2689 4.56901L40.2564 4.15859L39.246 0.121094L38.0023 0.421093C37.6043 0.521093 37.1189 0.63776 36.5668 0.777343C36.0023 0.88151 35.4002 1.16693 34.7293 1.42734C34.0689 1.72526 33.3002 1.92318 32.5877 2.40026C31.871 2.85443 31.0439 3.23359 30.3148 3.84193C29.6085 4.46901 28.7564 5.01276 28.1273 5.80859C27.4398 6.55443 26.7606 7.33776 26.2335 8.22943C25.6231 9.07943 25.2085 10.0128 24.771 10.9357C24.3752 11.8586 24.0564 12.8023 23.796 13.719C23.3023 15.5565 23.0814 17.3023 22.996 18.7961C22.9252 20.2919 22.9668 21.5357 23.0543 22.4357C23.0856 22.8607 23.1439 23.2732 23.1856 23.5586L23.2377 23.9086L23.2918 23.8961C23.6624 25.627 24.5154 27.2176 25.7522 28.484C26.989 29.7503 28.559 30.6407 30.2807 31.052C32.0023 31.4633 33.8053 31.3788 35.4809 30.8082C37.1566 30.2377 38.6364 29.2044 39.7494 27.8279C40.8623 26.4514 41.5628 24.788 41.7698 23.03C41.9768 21.2721 41.6819 19.4914 40.9192 17.8941C40.1565 16.2967 38.9571 14.9479 37.4599 14.0037C35.9626 13.0595 34.2286 12.5585 32.4585 12.5586Z" fill="#DEE6EB"/>
</svg>
