<svg width="42" height="42" viewBox="0 0 42 42" fill="none" xmlns="http://www.w3.org/2000/svg">
<path d="M20.4006 18.6375C20.902 18.8096 21.459 18.9817 21.9047 19.0391C22.8517 19.2112 23.6316 19.0391 23.6873 18.6375C23.6883 18.6326 23.6892 18.6277 23.6902 18.6228C23.7444 18.3466 23.7679 18.227 22.0161 17.7197L21.6261 17.6049C21.5919 17.5932 21.5556 17.5809 21.5177 17.568C20.4443 17.2035 17.9647 16.3615 18.3951 13.6467C18.6737 12.2699 19.6207 11.352 21.0691 11.0078V10.3768C21.0691 9.63103 21.6261 9 22.406 9C23.1302 9 23.743 9.63103 23.743 10.3768V11.0652C24.0215 11.1226 24.4115 11.2373 24.8014 11.352C25.5256 11.6388 25.8599 12.3846 25.637 13.1304C25.4142 13.8761 24.6343 14.2203 23.9658 13.9909C23.4645 13.8188 23.1302 13.704 22.8517 13.6467C21.9047 13.5319 21.1248 13.704 21.0691 14.1056L21.0676 14.1116C21.0125 14.3381 20.9704 14.5112 22.406 14.9661L22.6846 15.0235C22.7221 15.0353 22.7604 15.0474 22.7994 15.0597C24.2665 15.5224 26.7396 16.3024 26.3055 19.0965C26.0827 20.4733 25.1357 21.3911 23.743 21.7353V22.309C23.743 23.1121 23.1302 23.6858 22.406 23.6858C21.6261 23.6858 21.0691 23.1121 21.0691 22.309V21.6206C20.512 21.5058 20.0106 21.3338 19.5093 21.1617L19.2307 21.0469C18.5623 20.8175 18.228 19.957 18.4509 19.3259C18.6737 18.6375 19.4536 18.236 20.1778 18.5228L20.4006 18.6375Z" fill="white"/>
<path d="M32.6975 25.7304C32.1551 24.9794 31.1121 24.8126 30.3611 25.3549L25.3546 29.0681H20.3064C19.9726 29.0681 19.6806 28.7343 19.6806 28.4006C19.6806 28.0251 20.0143 27.733 20.3064 27.733H23.6023C24.2281 27.733 24.854 27.2741 24.9791 26.6066C25.1043 25.7721 24.4785 25.0629 23.644 25.0629H16.9687C15.884 25.0629 14.7158 25.4384 13.8396 26.1476L11.9205 27.733L9.62581 27.6913C9.29205 27.6913 9 28.0251 9 28.3588V32.364C9 32.7395 9.29205 33.0316 9.62581 33.0316H24.0613C24.9791 33.0316 25.897 32.7395 26.6062 32.1972L32.2803 28.0668C33.073 27.5244 33.2399 26.4814 32.6975 25.7304Z" fill="white"/>
</svg>
