<svg width="577" height="88" viewBox="0 0 577 88" fill="none" xmlns="http://www.w3.org/2000/svg">
<path d="M55.8108 44.3303C54.8497 37.9631 30.5822 34.7194 27.9392 34.359C23.8546 30.6348 25.4163 27.6314 25.6566 27.271C27.9392 24.628 31.6634 22.4655 35.5078 20.6635L46.3201 25.7092L54.2491 16.3385L49.804 3.12355L37.6702 1.80205C34.4266 2.40273 5.1133 8.16927 2.35016 21.3843C-0.29284 34.4791 1.62934 38.2034 2.83071 43.8498C3.91193 49.4962 27.9392 52.4996 31.5433 53.7009C35.0272 54.9023 35.6279 62.2306 32.9849 66.4354C31.6634 68.4777 27.5788 68.2375 19.7699 68.718C18.4484 68.718 15.6853 62.2306 15.445 61.5098L2.10989 60.1883L0.427979 70.0395L3.91193 85.4169C5.35357 85.6572 11.9611 86.6183 19.8901 86.6183C29.7413 86.6183 41.5146 85.0565 47.4013 78.6893C57.9733 67.1562 56.7719 50.8177 55.8108 44.3303Z" fill="url(#paint0_radial_1563_9244)"/>
<path d="M87.0069 67.7569L85.5652 57.1849L86.286 51.2982L94.0949 53.3405L107.79 51.2982V38.6839L91.8123 37.6027L86.6465 36.5215V16.699H102.625L114.038 18.0205L117.642 2.04232L100.222 0.961093L65.8629 2.40273L66.4635 16.699L62.2588 86.0176L87.9679 82.8941H103.946L114.278 83.9753L117.642 67.9972L101.663 66.9159L87.0069 67.7569Z" fill="url(#paint1_radial_1563_9244)"/>
<path d="M181.182 69.4388L172.413 63.5521C171.211 63.3119 168.688 60.9091 166.165 58.2661L172.413 55.503C178.059 49.0156 182.504 43.0088 184.546 37.9631C185.628 34.5993 195.719 3.9645 172.893 1.3215C170.49 1.08123 168.088 0.961093 165.685 0.961093C145.622 0.961093 127.602 9.73105 125.319 10.8123L124.358 40.6061L126.4 60.0682V83.8552L146.583 87.219L145.142 65.3542L150.668 63.9125L157.396 74.6047C159.678 78.449 166.766 87.219 167.367 87.219L184.426 85.4169L188.271 71.361L181.182 69.4388ZM143.58 47.3337V23.3064C143.46 23.3064 154.152 18.501 161.48 18.501C165.204 18.501 168.088 19.8225 168.088 23.5467C168.088 42.8887 147.785 47.3337 143.58 47.3337Z" fill="url(#paint2_radial_1563_9244)"/>
<path d="M195.34 3.36382L196.781 23.787L194.619 86.4982L214.802 83.1344L219.007 31.2355L217.445 1.20136L195.34 3.36382Z" fill="url(#paint3_radial_1563_9244)"/>
<path d="M294.159 40.6061C294.159 19.8225 284.788 0 261.361 0C258.959 0 256.556 0.240277 254.874 0.600681C248.387 2.04232 235.532 8.89009 234.21 9.97132C233.009 11.8935 224.359 30.6348 224.359 46.1324C224.359 65.3542 240.458 86.9787 260.881 86.9787C263.043 86.9787 264.965 86.6183 266.407 86.1378C271.813 84.0954 284.908 73.8838 286.59 72.3221C287.191 70.8804 294.159 52.019 294.159 40.6061ZM258.959 65.4743C248.867 65.4743 242.86 55.0224 241.419 51.0579C241.779 48.5351 248.387 23.1863 258.718 20.0628C259.439 19.8225 260.28 19.7024 261.001 19.7024C267.368 19.7024 273.976 27.1508 273.976 41.2068C273.976 58.2661 264.124 65.4743 258.959 65.4743Z" fill="url(#paint4_radial_1563_9244)"/>
<path d="M350.533 0.240277L342.725 3.12355L339 28.3522V62.3508C336.718 64.1528 334.555 64.6334 332.513 64.6334C328.428 64.6334 325.305 62.4709 324.824 62.1105L322.061 41.2068L320.499 2.643L299.475 1.80205V30.6348L306.443 74.1241C316.655 83.6149 325.545 86.7384 332.873 86.7384C346.329 86.7384 354.378 76.0463 355.579 74.3644C362.307 59.948 364.349 16.9392 363.748 6.2471L350.533 0.240277Z" fill="url(#paint5_radial_1563_9244)"/>
<path d="M425.019 44.3303C424.058 37.9631 399.79 34.7194 397.147 34.359C393.063 30.6348 394.624 27.6314 394.865 27.271C397.147 24.628 400.871 22.4655 404.716 20.6635L415.528 25.7092L423.457 16.3385L419.012 3.12355L406.878 1.80205C403.635 2.40273 374.321 8.16927 371.558 21.3843C368.915 34.4791 370.837 38.2034 372.039 43.8498C373.12 49.4962 397.147 52.4996 400.751 53.7009C404.235 54.9023 404.836 62.2306 402.193 66.4354C400.871 68.4777 396.787 68.2375 388.978 68.718C387.656 68.718 384.893 62.2306 384.653 61.5098L371.318 60.1883L369.636 70.0395L373.12 85.4169C374.562 85.6572 381.169 86.6183 389.098 86.6183C398.949 86.6183 410.723 85.0565 416.609 78.6893C427.181 67.1562 425.98 50.8177 425.019 44.3303Z" fill="url(#paint6_radial_1563_9244)"/>
<path d="M472.433 56.4641L470.391 67.3965H454.413L457.416 30.9952L455.494 1.44164L434.47 3.24368L435.311 24.628L433.029 86.8586L453.692 85.1767L474.115 86.378L485.889 85.5371L489.973 65.9549V56.4641H472.433Z" fill="url(#paint7_radial_1563_9244)"/>
<path d="M538.929 1.92219L535.205 2.88327L531.721 1.08123L525.113 1.44164L522.951 19.4621L517.304 35.0798L506.973 13.4553L500.125 1.92219L488.592 1.3215L479.822 2.28259L496.04 37.002L506.973 56.4641L504.81 87.219L527.636 84.0954L526.315 54.662L541.452 32.6771L547.218 19.2218L550.102 5.04573L538.929 1.92219Z" fill="url(#paint8_radial_1563_9244)"/>
<path d="M562.851 66.3152C560.088 68.3575 556.964 71.6012 556.244 72.9227C556.244 73.163 556.003 75.2053 556.244 77.7281C556.724 82.6537 558.406 85.537 565.013 86.1377C572.822 86.9786 576.186 83.9752 576.547 79.5302C576.907 75.2053 575.105 70.52 574.144 69.1985C571.261 65.1138 563.812 66.3152 562.851 66.3152Z" fill="url(#paint9_radial_1563_9244)"/>
<defs>
<radialGradient id="paint0_radial_1563_9244" cx="0" cy="0" r="1" gradientUnits="userSpaceOnUse" gradientTransform="translate(93.1302 51.7902) scale(340.466 1893.11)">
<stop offset="0.0660254" stop-color="#FFA944"/>
<stop offset="0.530983" stop-color="#FF8B20"/>
<stop offset="1" stop-color="#F9B935"/>
</radialGradient>
<radialGradient id="paint1_radial_1563_9244" cx="0" cy="0" r="1" gradientUnits="userSpaceOnUse" gradientTransform="translate(93.1302 51.7902) scale(340.466 1893.11)">
<stop offset="0.0660254" stop-color="#FFA944"/>
<stop offset="0.530983" stop-color="#FF8B20"/>
<stop offset="1" stop-color="#F9B935"/>
</radialGradient>
<radialGradient id="paint2_radial_1563_9244" cx="0" cy="0" r="1" gradientUnits="userSpaceOnUse" gradientTransform="translate(93.1302 51.7902) scale(340.466 1893.11)">
<stop offset="0.0660254" stop-color="#FFA944"/>
<stop offset="0.530983" stop-color="#FF8B20"/>
<stop offset="1" stop-color="#F9B935"/>
</radialGradient>
<radialGradient id="paint3_radial_1563_9244" cx="0" cy="0" r="1" gradientUnits="userSpaceOnUse" gradientTransform="translate(93.1302 51.7902) scale(340.466 1893.11)">
<stop offset="0.0660254" stop-color="#FFA944"/>
<stop offset="0.530983" stop-color="#FF8B20"/>
<stop offset="1" stop-color="#F9B935"/>
</radialGradient>
<radialGradient id="paint4_radial_1563_9244" cx="0" cy="0" r="1" gradientUnits="userSpaceOnUse" gradientTransform="translate(93.1302 51.7902) scale(340.466 1893.11)">
<stop offset="0.0660254" stop-color="#FFA944"/>
<stop offset="0.530983" stop-color="#FF8B20"/>
<stop offset="1" stop-color="#F9B935"/>
</radialGradient>
<radialGradient id="paint5_radial_1563_9244" cx="0" cy="0" r="1" gradientUnits="userSpaceOnUse" gradientTransform="translate(93.1302 51.7902) scale(340.466 1893.11)">
<stop offset="0.0660254" stop-color="#FFA944"/>
<stop offset="0.530983" stop-color="#FF8B20"/>
<stop offset="1" stop-color="#F9B935"/>
</radialGradient>
<radialGradient id="paint6_radial_1563_9244" cx="0" cy="0" r="1" gradientUnits="userSpaceOnUse" gradientTransform="translate(93.1302 51.7902) scale(340.466 1893.11)">
<stop offset="0.0660254" stop-color="#FFA944"/>
<stop offset="0.530983" stop-color="#FF8B20"/>
<stop offset="1" stop-color="#F9B935"/>
</radialGradient>
<radialGradient id="paint7_radial_1563_9244" cx="0" cy="0" r="1" gradientUnits="userSpaceOnUse" gradientTransform="translate(93.1302 51.7902) scale(340.466 1893.11)">
<stop offset="0.0660254" stop-color="#FFA944"/>
<stop offset="0.530983" stop-color="#FF8B20"/>
<stop offset="1" stop-color="#F9B935"/>
</radialGradient>
<radialGradient id="paint8_radial_1563_9244" cx="0" cy="0" r="1" gradientUnits="userSpaceOnUse" gradientTransform="translate(93.1302 51.7902) scale(340.466 1893.11)">
<stop offset="0.0660254" stop-color="#FFA944"/>
<stop offset="0.530983" stop-color="#FF8B20"/>
<stop offset="1" stop-color="#F9B935"/>
</radialGradient>
<radialGradient id="paint9_radial_1563_9244" cx="0" cy="0" r="1" gradientUnits="userSpaceOnUse" gradientTransform="translate(93.1302 51.7902) scale(340.466 1893.11)">
<stop offset="0.0660254" stop-color="#FFA944"/>
<stop offset="0.530983" stop-color="#FF8B20"/>
<stop offset="1" stop-color="#F9B935"/>
</radialGradient>
</defs>
</svg>
