<svg width="21" height="22" viewBox="0 0 21 22" fill="none" xmlns="http://www.w3.org/2000/svg">
<path d="M16.5 12.5C15.1406 12.5 13.9219 13.1094 13.0781 14.0938L8.85938 11.9844C8.95312 11.6562 9 11.3281 9 11C9 10.7188 8.95312 10.3906 8.85938 10.0625L13.0781 7.95312C13.9219 8.89062 15.1406 9.5 16.5 9.5C18.9844 9.5 21 7.53125 21 5C21 2.51562 18.9844 0.5 16.5 0.5C13.9688 0.5 12 2.51562 12 5C12 5.32812 12 5.65625 12.0938 5.98438L7.875 8.09375C7.03125 7.10938 5.8125 6.5 4.5 6.5C1.96875 6.5 0 8.51562 0 11C0 13.5312 1.96875 15.5 4.5 15.5C5.8125 15.5 7.03125 14.9375 7.875 13.9531L12.0938 16.0625C12 16.3906 12 16.7188 12 17C12 19.5312 13.9688 21.5 16.5 21.5C18.9844 21.5 21 19.5312 21 17C21 14.5156 18.9844 12.5 16.5 12.5ZM16.5 2.75C17.7188 2.75 18.75 3.78125 18.75 5C18.75 6.26562 17.7188 7.25 16.5 7.25C15.2344 7.25 14.25 6.26562 14.25 5C14.25 3.78125 15.2344 2.75 16.5 2.75ZM4.5 13.25C3.23438 13.25 2.25 12.2656 2.25 11C2.25 9.78125 3.23438 8.75 4.5 8.75C5.71875 8.75 6.75 9.78125 6.75 11C6.75 12.2656 5.71875 13.25 4.5 13.25ZM16.5 19.25C15.2344 19.25 14.25 18.2656 14.25 17C14.25 15.7812 15.2344 14.75 16.5 14.75C17.7188 14.75 18.75 15.7812 18.75 17C18.75 18.2656 17.7188 19.25 16.5 19.25Z" fill="#287471"/>
</svg>
