<svg width="42" height="42" viewBox="0 0 42 42" fill="none" xmlns="http://www.w3.org/2000/svg">
<path d="M14.7575 13.4876C14.4461 13.7367 14.2649 14.1138 14.2649 14.5125V21.1004C14.2649 21.4629 14.5587 21.7567 14.9211 21.7567H26.7336C27.0961 21.7567 27.3899 21.4629 27.3899 21.1004V14.5125C27.3899 14.1138 27.2087 13.7367 26.8973 13.4876L21.6473 9.28761C21.168 8.90413 20.4868 8.90413 20.0075 9.28761L14.7575 13.4876Z" fill="white"/>
<path d="M32.1423 22.0548C32.3943 21.6623 32.9223 21.5583 33.3044 21.8259C33.577 22.0168 33.7075 22.3533 33.6348 22.6781L32.6028 27.2873C32.3708 28.3236 31.6516 29.1836 30.6726 29.5952L27.7602 30.8197C27.1769 31.065 26.7894 31.4996 26.5196 31.9554C26.255 32.4023 26.0826 32.9059 25.9451 33.3358C25.8972 33.4857 25.7887 33.6093 25.418 33.6546C25.0252 33.7027 24.4909 33.63 23.9056 33.4789C23.3338 33.3312 22.7723 33.1245 22.3489 32.952C22.2207 32.8997 22.1062 32.851 22.0092 32.8087L21.7984 29.1423C21.7661 28.5805 21.8789 28.0198 22.1258 27.5142L22.5717 26.601C23.0323 25.6577 23.9165 24.9917 24.9504 24.8095L27.9623 24.2784C28.4154 24.1985 28.8474 24.501 28.9273 24.9541C29.0224 25.4935 28.7199 26.0241 28.2072 26.217L25.063 27.4C24.7238 27.5277 24.5523 27.9061 24.6799 28.2454C24.8076 28.5846 25.186 28.7561 25.5253 28.6285L28.6694 27.4454C29.687 27.0625 30.3201 26.0616 30.2524 24.9976L32.1423 22.0548Z" fill="white"/>
<path d="M9.5124 22.0548C9.26033 21.6623 8.73237 21.5583 8.35026 21.8259C8.07764 22.0168 7.94717 22.3533 8.01988 22.6781L9.05185 27.2873C9.28387 28.3236 10.0031 29.1836 10.9821 29.5952L13.8945 30.8197C14.4778 31.065 14.8653 31.4996 15.1351 31.9554C15.3996 32.4023 15.5721 32.9059 15.7096 33.3358C15.7575 33.4857 15.866 33.6093 16.2367 33.6546C16.6294 33.7027 17.1638 33.63 17.7491 33.4789C18.3208 33.3312 18.8823 33.1245 19.3058 32.952C19.434 32.8997 19.5484 32.851 19.6455 32.8087L19.8562 29.1423C19.8885 28.5805 19.7758 28.0198 19.5289 27.5142L19.083 26.601C18.6223 25.6577 17.7381 24.9917 16.7043 24.8095L13.6924 24.2784C13.2393 24.1985 12.8073 24.501 12.7274 24.9541C12.6323 25.4935 12.9348 26.0241 13.4474 26.217L16.5916 27.4C16.9308 27.5277 17.1024 27.9061 16.9747 28.2454C16.8471 28.5846 16.4686 28.7561 16.1294 28.6285L12.9852 27.4454C11.9677 27.0625 11.3345 26.0616 11.4023 24.9976L9.5124 22.0548Z" fill="white"/>
</svg>
