<svg width="42" height="42" viewBox="0 0 42 42" fill="none" xmlns="http://www.w3.org/2000/svg">
<path fill-rule="evenodd" clip-rule="evenodd" d="M13.2682 13.5779C12.8776 13.9684 12.8776 14.6016 13.2682 14.9921L13.5147 15.2387C11.895 17.2498 11 19.7641 11 22.3707C11 25.3072 12.1359 28.1265 14.1643 30.2414L14.1643 30.2431L14.1643 30.2448L14.3304 30.411C14.9782 31.0588 16.0553 31.022 16.2417 30.1249C16.2693 29.9918 16.2912 29.8529 16.3072 29.7082C16.4859 28.1001 17.3793 27.2068 18.9873 27.0281C20.5954 26.8494 21.4888 25.9561 21.6674 24.348C21.8461 22.7399 22.7395 21.8466 24.3475 21.6679C25.9556 21.4892 26.849 20.5959 27.0276 18.9878C27.2063 17.3797 28.0997 16.4864 29.7077 16.3077C30.1664 16.2568 30.5669 16.1477 30.9092 15.9804C31.3209 15.7793 31.3209 15.2413 30.997 14.9173L30.4107 14.3311L30.3819 14.3021C30.3627 14.2828 30.3435 14.2634 30.3242 14.2446L30.2441 14.1645L30.2429 14.1645L30.2416 14.1645C28.1267 12.136 25.3073 11 22.3707 11C19.7636 11 17.2489 11.8953 15.2376 13.5156L14.9911 13.2692C14.6005 12.8786 13.9674 12.8786 13.5769 13.2692L13.2682 13.5779ZM18.2797 13.6162C19.0735 13.3667 20.4463 13.1392 22.4663 13.7132C24.1143 14.1815 25.3577 15.2438 25.7968 15.7437C25.979 15.9511 25.9586 16.2671 25.7511 16.4493C25.5436 16.6315 25.2277 16.6111 25.0455 16.4036C24.7034 16.0142 23.6166 15.0797 22.193 14.6751C20.3734 14.1581 19.2001 14.3751 18.5795 14.5702C18.3161 14.653 18.0354 14.5065 17.9526 14.2431C17.8698 13.9797 18.0162 13.699 18.2797 13.6162ZM16.0396 15.9731C16.2348 15.7778 16.5514 15.7778 16.7467 15.9731L21.3661 20.5925C21.5614 20.7878 21.5614 21.1044 21.3661 21.2997C21.1709 21.4949 20.8543 21.4949 20.659 21.2997L16.0396 16.6802C15.8443 16.4849 15.8443 16.1684 16.0396 15.9731ZM14.2432 17.9525C14.5066 18.0353 14.6531 18.3159 14.5703 18.5794C14.3752 19.2 14.1582 20.3733 14.6753 22.1928C15.0798 23.6165 16.0143 24.7033 16.4037 25.0454C16.6112 25.2276 16.6317 25.5435 16.4494 25.751C16.2672 25.9585 15.9513 25.9789 15.7438 25.7967C15.2439 25.3576 14.1816 24.1142 13.7133 22.4662C13.1394 20.4462 13.3668 19.0734 13.6163 18.2796C13.6991 18.0161 13.9798 17.8697 14.2432 17.9525Z" fill="white"/>
<path d="M28.3388 29.2583L22.8245 23.7439C22.9187 23.4981 23.0416 23.3159 23.1786 23.1789C23.4242 22.9332 23.8153 22.7331 24.4579 22.6617C24.8941 22.6132 25.3087 22.5181 25.6918 22.3687L30.4601 27.137C30.8507 27.5275 30.8507 28.1607 30.4601 28.5512L29.753 29.2583C29.3625 29.6488 28.7293 29.6488 28.3388 29.2583Z" fill="white"/>
</svg>
