<svg width="42" height="42" viewBox="0 0 42 42" fill="none" xmlns="http://www.w3.org/2000/svg">
<path fill-rule="evenodd" clip-rule="evenodd" d="M13.1586 11C12.2181 11 11.5425 11.9294 11.81 12.8552L12.3093 14.5835H10.7535C8.71794 14.5835 7.38788 16.7181 8.28489 18.5453L9.86671 21.7676C10.3289 22.7091 11.2864 23.3057 12.3353 23.3057H14.8576C15.2691 24.3422 15.9679 25.2372 16.8728 25.876C17.4101 26.2553 18.0046 26.5333 18.6284 26.7011C18.5705 26.7754 18.5187 26.8546 18.4738 26.9384C18.2974 27.2669 18.0113 27.5332 17.6586 27.6975L15.2233 28.8314C15.1415 28.8695 15.0668 28.9196 15.0021 28.9799C14.4657 29.4793 14.8456 30.3333 15.6041 30.3333H25.4534C26.2119 30.3333 26.5918 29.4793 26.0555 28.9799C25.9907 28.9196 25.916 28.8695 25.8342 28.8314L23.3989 27.6975C23.0462 27.5332 22.7601 27.2669 22.5837 26.9384C22.5281 26.8348 22.4621 26.7382 22.3872 26.6493C22.9453 26.4785 23.4772 26.2186 23.9625 25.876C24.8674 25.2372 25.5662 24.3422 25.9777 23.3057H28.752C29.8009 23.3057 30.7584 22.7091 31.2206 21.7676L32.8024 18.5453C33.6994 16.7181 32.3694 14.5835 30.3338 14.5835H28.526L29.0253 12.8552C29.2928 11.9294 28.6172 11 27.6767 11H13.1586ZM12.7426 16.0835H10.7535C9.82823 16.0835 9.22366 17.0538 9.63139 17.8843L11.2132 21.1066C11.4233 21.5345 11.8585 21.8057 12.3353 21.8057H14.3958L12.7426 16.0835ZM26.4395 21.8057L28.0927 16.0835H30.3338C31.2591 16.0835 31.8637 17.0538 31.4559 17.8843L29.8741 21.1066C29.664 21.5345 29.2288 21.8057 28.752 21.8057H26.4395ZM21.0979 16.2815C21.017 15.9062 20.485 15.9062 20.4041 16.2815C20.3415 16.5719 19.9745 16.663 19.785 16.4351C19.5401 16.1405 19.069 16.3894 19.1707 16.7596C19.2494 17.046 18.9665 17.2983 18.6934 17.1851C18.3405 17.0389 18.0383 17.4795 18.2993 17.7597C18.5013 17.9765 18.3672 18.3322 18.0732 18.3597C17.6932 18.3953 17.6291 18.9268 17.9896 19.0529C18.2685 19.1504 18.3141 19.5281 18.0665 19.6899C17.7464 19.8991 17.9351 20.3998 18.3125 20.3428C18.6045 20.2987 18.8192 20.6117 18.6747 20.8709C18.4879 21.2058 18.8861 21.5609 19.194 21.3339C19.4322 21.1583 19.7669 21.3351 19.7586 21.6321C19.7478 22.0161 20.2644 22.1442 20.4322 21.7992C20.562 21.5323 20.94 21.5323 21.0698 21.7992C21.2376 22.1442 21.7541 22.0161 21.7434 21.6321C21.7351 21.3351 22.0698 21.1583 22.308 21.3339C22.6158 21.5609 23.0141 21.2058 22.8273 20.8709C22.6827 20.6117 22.8975 20.2987 23.1895 20.3428C23.5669 20.3998 23.7556 19.8991 23.4355 19.6899C23.1879 19.5281 23.2334 19.1504 23.5123 19.0529C23.8729 18.9268 23.8087 18.3953 23.4287 18.3597C23.1347 18.3322 23.0007 17.9765 23.2026 17.7597C23.4636 17.4795 23.1614 17.0389 22.8085 17.1851C22.5355 17.2983 22.2525 17.046 22.3313 16.7596C22.433 16.3894 21.9619 16.1405 21.7169 16.4351C21.5274 16.663 21.1604 16.5719 21.0979 16.2815Z" fill="white"/>
</svg>
