<svg version="1.0" xmlns="http://www.w3.org/2000/svg" width="841.333" height="841.333" viewBox="0 0 631 631"><path d="M208.7 23.7c-29.1 22.1-54.5 45.7-64.1 59.6l-3.7 5.3 5.6 66.1c3 36.3 5.5 68.6 5.5 71.7 0 3.1-1.1 10.7-2.5 16.8-3.2 15.2-4 17.4-5.6 17-.8-.2-11.5-4.9-23.9-10.6-26.8-12.3-27-12.4-27-9.8 0 1.4 1.3 2.5 4.3 3.7 4.6 1.8 41.4 20.9 44.1 22.8 1.6 1.2 1.4 2-1.9 10.6-12.2 32-34.9 69.1-60.8 99.4l-5 5.8 3.7 11.2c10.1 30.2 29.4 72.9 41 90.6 3.1 4.6 5.6 8.7 5.6 9 0 .3-19.6 12.3-43.6 26.6-24 14.2-44.2 26.4-45 27-1.2.8.9 2.8 10.6 9.8 6.7 4.8 12.5 8.5 13 8.2.5-.3 23.8-19.1 51.7-41.7 28-22.6 54.3-43.9 58.7-47.4l7.8-6.3-3.5-1.7-3.4-1.6-11.2 6.6c-6.2 3.6-11.4 6.6-11.6 6.6-1.1 0-14.1-21.8-20.1-33.9-6.6-13.4-21.3-48.8-22.9-55.3-.6-2.3.4-4.2 7.2-13 21.8-28.3 39.5-58.4 50.8-86.6l4.1-10.2 14.1 8.2c7.7 4.6 15 9 16.2 9.8l2.2 1.5-2 9.5c-4.7 22.3-5.1 51.2-1.1 81 3 23.1 6.9 40 15 66.1l4 12.6 11.1 4.7c25.2 10.8 48 17.5 74.9 22 15.2 2.6 50 5.2 55 4.3 3.6-.8 18.7-11.1 34.1-23.4 15.9-12.7 40.8-38 48.2-49 16.8-25.1 26-50.3 26.8-73.6l.2-6.8-8.1-10.7c-4.4-5.9-15-18.4-23.5-27.7-39.9-44-79-71-116.4-80.5-2.4-.6-4.3-1.4-4.3-1.8 0-1.8 8.5-22.4 12.7-30.9 7.3-14.5 15.3-24.2 24.9-29.9 1.6-.9 1.7-1.3.5-2.7-1.2-1.5-1.6-1.5-5.2.3-5.3 2.7-16.3 13.3-20.9 20-4.4 6.5-11.9 21.1-17 33.2l-3.6 8.8-14.5.4c-11.9.3-15.9.8-23.2 3-16.4 4.9-30 13.1-41.8 25.3-8.5 8.7-13.6 16.1-18.7 27.2-1.9 4.2-3.6 7.8-3.9 8.1-.2.2-7.8-3.4-16.8-8-12.4-6.4-16.3-8.9-15.9-10 .3-.8 2.1-7.4 4-14.6 5.7-22.8 5.8-22-.2-93.4-3-34.9-5.4-64.3-5.4-65.2-.1-5.3 38.6-41 61-56.3l5.5-3.7 10 .6c18.8 1.1 39.8 6.6 68 17.7 8.3 3.2 19.7 8.2 25.5 11.1l10.5 5.3 11.8 30c6.5 16.5 19.9 50.7 29.8 76 16.3 41.8 18.3 46.3 21.7 49.4 5.4 4.9 32.6 22.7 48.2 31.6 14.9 8.5 51.8 26.8 67.7 33.6 11.7 5 10.9 3.6 11.8 19.4.7 10.8-.6 29.5-3.1 44-8 47.4-32.5 102.1-68.3 152.7-4.2 5.9-8 10.8-8.4 10.8-.4 0-6.7-4.3-13.9-9.6-10.2-7.5-13.5-9.4-14.7-8.7-.9.6-1.6 1.5-1.6 2s13 13.7 29 29.3c22.6 22.1 34 34.2 51.7 55l22.8 26.7 14.5-3.2c8-1.7 14.7-3.4 14.8-3.6.2-.2-11-11.3-24.9-24.6-18.5-17.7-29.4-27.3-40.4-35.4-8.2-6.1-15-11.4-15-11.9 0-.4 2.3-3.7 5-7.4 2.8-3.6 9.3-13 14.4-20.9 36.2-55.4 58.6-112.4 63.6-162.2.6-6.1 1.8-17.1 2.8-24.5 1.2-9.7 1.7-20.9 1.7-40 0-27-.7-34.7-4.7-55.1l-2-10.7-44.5-18.8-44.5-18.9-19.2-50.9-19.1-50.9-11-5.5c-41.9-21.1-83.6-36.8-129.1-48.6-31.9-8.3-39.6-9.6-57-9.6h-14.1l-15.6 11.7zM300 235.1c0 .6-2.3 8.4-5 17.2-4.2 13.2-10.4 35.6-13.8 49.1l-.7 2.8-5-4.1c-5.1-4.2-9.5-5.4-9.5-2.6 0 .9 3.1 6.4 6.8 12.3 3.8 5.9 7.2 12 7.6 13.5.3 1.5 1.9 4.1 3.5 5.9 2.3 2.6 3.7 3.2 8.2 3.5 7 .6 11.7-2.3 13.9-8.5 1.3-3.7 1.3-4.7 0-8.4-1.6-4.7-6.7-8.8-10.7-8.8-1.9 0-2.2-.4-1.8-2.3.2-1.2 1.4-7.4 2.6-13.7 2.5-13.9 5.9-28.7 10.1-43.8l3.1-11.4 4.3.7c19.1 2.8 53.8 21.9 80.4 44.2 15.1 12.6 39.6 37.5 53.7 54.4l12.1 14.5-.8 8c-.9 8.6-4.6 22-8.6 31.7-4.5 10.8-3.5 10.5-12.3 3.4-11.5-9.4-30.9-22.1-43.3-28.3-20-10-37.2-14.6-55.8-14.7-27.9-.1-52.6 10.6-73.6 32-8.5 8.5-16.4 19.3-16.4 22.2 0 .9 3.8 13.6 8.4 28.2 12.5 39.4 15.8 50.1 15.4 50.4-1.2 1.1-38-11-47.8-15.8-4.3-2.1-4.5-2.4-6.7-10.2-11.8-42.1-17.8-87.8-15.5-118.7 1.1-14.4 3.6-30.5 5-32 .5-.5 31.6 19.3 33.9 21.6.2.1-.6 2-1.7 4.1-2.5 4.9-2.5 8.1-.2 12.4 3.4 6.3 11.9 8.9 18.3 5.6 6.3-3.3 8.8-12.4 5.2-18.6-1-1.6-2-2.9-2.3-2.9-.3 0-1.3-.7-2.3-1.4-1.2-1-2.1-4.3-3.2-12.2-1.8-13.1-1.9-13.4-4.4-13.4-1.5 0-2 1-2.5 4.7-.4 2.7-.9 6.1-1.2 7.6l-.6 2.8-3.1-2.1c-1.8-1.1-9.7-6-17.7-10.7-8-4.8-14.7-8.8-14.8-8.9-.2-.1 1.7-4.6 4.2-9.9 5.1-10.8 11.2-19.8 17.7-26.3 11.1-11.1 30.6-20.9 45.8-23.1 8.7-1.3 21.1-1.3 21.1 0zm52.7 121c11.2 1.6 11.4 1.8 5.1 7.3-16.3 14.5-35.6 23.7-59.7 28.6l-10.3 2.1-9.5-3.2-9.5-3.1 4.4-4.5c20.4-20.9 50.5-31.2 79.5-27.2zm62.3 26c10.4 7.1 25 18.6 25 19.7 0 .4-5.5 1.3-12.2 2.1-13.2 1.3-43.2 6.7-56.2 10.1-4.4 1.1-8 2-8.1 2-.1 0-1-4.9-2-11-2.1-12.8-2.5-11.9 8.1-18.9 8.3-5.6 16.3-8.8 24.4-10 8.5-1.3 11.7-.3 21 6zm24.9 28.1c-2.8 5.4-11.5 17.5-18.3 25.6-16.6 19.6-30.6 32-53 46.9l-12.9 8.6-20.6-.7c-11.3-.3-23-.9-26-1.3l-5.4-.6.6-8.1c1-13.9 5.8-24.6 15.6-35 17.3-18.3 46-27.8 110.1-36.5 11.1-1.5 11.3-1.4 9.9 1.1z"/><path d="M557.7 77.6c-12.5 16.3-13.1 17.2-29.7 50.5-9.4 18.6-17 34.1-17 34.5 0 .3 1.7.4 3.7.2 3.6-.3 4.1-.9 18.5-21.8 14.1-20.3 15.9-22.6 34.4-41.1l19.5-19.6-7.6-9.6c-4.2-5.3-7.9-9.7-8.3-9.7-.4 0-6.5 7.5-13.5 16.6zM58 153.7c-3.3 4.8-5.7 9-5.3 9.4 1.8 1.8 29.8 15.9 30.8 15.5.6-.2 1.9-2 3-3.9l1.9-3.5-11.8-13.1c-6.4-7.2-11.9-13.1-12.1-13.1-.2 0-3.1 3.9-6.5 8.7zM0 267c0 6.1.2 11 .3 11 .2 0 12.9 4.7 28.1 10.5L56.2 299h9.5c5.2 0 9.3-.4 9.1-.9-.1-.4-3-3.7-6.3-7.3-5.9-6.4-6.3-6.6-32-18.3-14.3-6.5-28.4-12.8-31.2-14.1L0 256v11zM10 454.9c0 5.3 5.8 18.3 7.9 17.7.9-.3 8.4-1.9 16.7-3.7l15.1-3.2 4.2-5.4c2.3-3 4.1-5.6 3.9-5.7-.4-.4-41.6-3.6-45-3.6-2.6 0-2.8.3-2.8 3.9zM600 452.2c1.4.5 6 2.3 10.2 3.9l7.8 2.8 2.5-3.3c1.4-1.8 2.5-3.6 2.5-3.9 0-.4-5.7-.7-12.7-.6-9.8 0-12.2.3-10.3 1.1zM561.1 502.4c-1.3 1.6-3.1.2 32.2 26 10.4 7.6 19 13.6 19.1 13.4.1-.2 4.2-4.8 9-10.2l8.9-9.9-32.9-10.3c-18.1-5.7-33.4-10.4-34-10.4-.6 0-1.7.6-2.3 1.4zM165.3 521.1l-8.3 9.7 3.8 3c11.1 8.8 34.9 22 53.2 29.5 57.5 23.7 124.4 28.6 189 13.8 17.8-4.1 37.2-10.2 36.7-11.5-.2-.6-2.1-6.2-4.3-12.4-3-8.7-4.2-11.1-5.4-10.6-11.9 4.6-36.7 10.4-60.3 14.1-16.1 2.6-64.4 2.6-80.2 0-40.1-6.4-77.9-20.2-104.5-37.9-5.2-3.4-9.9-6.6-10.5-6.9-.5-.3-4.7 3.8-9.2 9.2zM123.7 583.7C114 593.8 106 602.4 106 603c0 .5 2 4.1 4.5 8l4.5 7h14.5l12.8-23.4c7-12.9 12.7-23.8 12.7-24.3s-3.1-1.8-6.8-2.9l-6.8-2-17.7 18.3z"/></svg>