<svg width="180" height="54" fill="none" xmlns="http://www.w3.org/2000/svg"><path fill="#000" d="M0 0h180v54H0z"/><path d="M43.73 27.405a6.744 6.744 0 01.86-3.211 6.644 6.644 0 012.282-2.394 6.783 6.783 0 00-2.32-2.093 6.689 6.689 0 00-3.002-.82c-2.239-.238-4.41 1.357-5.55 1.357-1.163 0-2.92-1.333-4.812-1.294-1.223.04-2.416.4-3.46 1.046a7.136 7.136 0 00-2.504 2.637c-2.578 4.52-.655 11.164 1.816 14.818 1.235 1.789 2.68 3.788 4.57 3.717 1.849-.078 2.54-1.194 4.772-1.194 2.212 0 2.86 1.194 4.788 1.149 1.985-.033 3.235-1.798 4.427-3.604a14.874 14.874 0 002.025-4.175 6.394 6.394 0 01-2.829-2.376 6.513 6.513 0 01-1.063-3.563zM40.089 16.485a6.633 6.633 0 001.486-4.713 6.584 6.584 0 00-4.277 2.24 6.28 6.28 0 00-1.209 2.116 6.334 6.334 0 00-.316 2.423 5.408 5.408 0 002.392-.531 5.476 5.476 0 001.924-1.535zM67.107 36.639h-6.31l-1.516 4.53h-2.674l5.978-16.763h2.778L71.34 41.17h-2.72l-1.514-4.531zm-5.657-2.091h5.002l-2.466-7.354h-.069l-2.467 7.354zM84.25 35.06c0 3.797-2.007 6.238-5.037 6.238a4.052 4.052 0 01-2.203-.517 4.119 4.119 0 01-1.595-1.622h-.058v6.054H72.88V28.947h2.399v2.033h.046a4.308 4.308 0 011.627-1.618 4.24 4.24 0 012.216-.543c3.064 0 5.084 2.453 5.084 6.24zm-2.546 0c0-2.475-1.263-4.102-3.19-4.102-1.894 0-3.167 1.66-3.167 4.101 0 2.463 1.273 4.112 3.167 4.112 1.927 0 3.19-1.615 3.19-4.112zM97.537 35.06c0 3.797-2.008 6.238-5.038 6.238a4.052 4.052 0 01-2.202-.517A4.119 4.119 0 0188.7 39.16h-.057v6.054h-2.478V28.947h2.398v2.033h.046a4.308 4.308 0 011.627-1.618 4.24 4.24 0 012.217-.543c3.064 0 5.083 2.453 5.083 6.24zm-2.547 0c0-2.475-1.263-4.102-3.19-4.102-1.893 0-3.167 1.66-3.167 4.101 0 2.463 1.274 4.112 3.167 4.112 1.927 0 3.19-1.615 3.19-4.112zM106.318 36.499c.184 1.662 1.779 2.754 3.959 2.754 2.088 0 3.591-1.092 3.591-2.59 0-1.302-.906-2.081-3.052-2.615l-2.146-.523c-3.04-.744-4.452-2.184-4.452-4.52 0-2.892 2.49-4.879 6.025-4.879 3.499 0 5.897 1.987 5.978 4.88h-2.502c-.149-1.674-1.515-2.684-3.511-2.684-1.996 0-3.362 1.022-3.362 2.51 0 1.184.872 1.882 3.006 2.416l1.824.453c3.398.814 4.809 2.195 4.809 4.647 0 3.137-2.467 5.101-6.392 5.101-3.672 0-6.151-1.918-6.311-4.95h2.536zM121.833 26.055v2.892h2.295v1.987h-2.295v6.738c0 1.047.459 1.535 1.468 1.535a7.68 7.68 0 00.816-.058v1.975a6.73 6.73 0 01-1.377.116c-2.444 0-3.397-.93-3.397-3.3v-7.006h-1.755v-1.987h1.755v-2.892h2.49zM125.458 35.06c0-3.846 2.237-6.263 5.725-6.263 3.5 0 5.727 2.416 5.727 6.262 0 3.856-2.215 6.262-5.727 6.262-3.51 0-5.725-2.406-5.725-6.262zm8.927 0c0-2.639-1.194-4.196-3.202-4.196s-3.201 1.569-3.201 4.195c0 2.649 1.193 4.194 3.201 4.194s3.202-1.545 3.202-4.194zM138.952 28.947h2.364v2.08h.057c.16-.65.536-1.223 1.065-1.625a2.853 2.853 0 011.839-.583c.285 0 .57.03.849.094v2.347a3.426 3.426 0 00-1.114-.152 2.472 2.472 0 00-1.93.805 2.545 2.545 0 00-.652 2.007v7.25h-2.478V28.947zM156.55 37.58c-.333 2.219-2.467 3.741-5.198 3.741-3.512 0-5.691-2.382-5.691-6.204 0-3.834 2.191-6.32 5.587-6.32 3.34 0 5.44 2.323 5.44 6.029v.86h-8.526v.151a3.195 3.195 0 00.852 2.473c.307.328.68.585 1.093.755.413.171.857.25 1.303.234a2.702 2.702 0 001.675-.392c.502-.31.892-.775 1.112-1.327h2.353zm-8.376-3.648h6.035a2.97 2.97 0 00-.811-2.206 2.903 2.903 0 00-.983-.675 2.87 2.87 0 00-1.167-.221 3.028 3.028 0 00-2.175.902 3.091 3.091 0 00-.667 1.01 3.133 3.133 0 00-.232 1.19zM61.14 11.787c.519-.038 1.04.041 1.526.232.485.191.923.489 1.28.872.359.383.629.841.79 1.342.162.502.212 1.033.147 1.556 0 2.574-1.374 4.053-3.744 4.053h-2.873v-8.055h2.873zM59.5 18.703h1.5a2.473 2.473 0 001.993-.817 2.562 2.562 0 00.631-2.08 2.568 2.568 0 00-.641-2.067 2.508 2.508 0 00-.901-.632A2.478 2.478 0 0061 12.925h-1.5v5.778zM66.279 16.8a2.915 2.915 0 01.726-2.212c.267-.297.592-.534.954-.696a2.814 2.814 0 013.256.696 2.888 2.888 0 01.726 2.212 2.913 2.913 0 01-.724 2.214 2.815 2.815 0 01-4.214 0 2.915 2.915 0 01-.725-2.215zm4.444 0c0-1.318-.585-2.089-1.611-2.089-1.03 0-1.61.77-1.61 2.089 0 1.328.58 2.092 1.61 2.092 1.026 0 1.61-.77 1.61-2.092zM79.469 19.842h-1.23L77 15.365h-.094l-1.236 4.477h-1.217l-1.655-6.08h1.202l1.075 4.64h.089l1.234-4.64h1.137l1.234 4.64h.094l1.07-4.64h1.185l-1.648 6.08zM82.51 13.763h1.14v.965h.088c.15-.346.404-.637.725-.831a1.779 1.779 0 011.067-.252 1.929 1.929 0 011.576.625 1.983 1.983 0 01.502 1.636v3.936h-1.185v-3.634c0-.977-.42-1.463-1.295-1.463a1.361 1.361 0 00-1.067.437 1.4 1.4 0 00-.367 1.103v3.557h-1.185v-6.08zM89.496 11.39h1.185v8.452h-1.185V11.39zM92.328 16.8a2.916 2.916 0 01.727-2.212c.266-.297.591-.534.954-.696a2.814 2.814 0 013.256.696 2.914 2.914 0 01.727 2.211 2.915 2.915 0 01-.725 2.215 2.816 2.816 0 01-4.214 0 2.913 2.913 0 01-.725-2.215zm4.444 0c0-1.318-.585-2.089-1.61-2.089-1.03 0-1.61.77-1.61 2.089 0 1.328.58 2.092 1.61 2.092 1.025 0 1.61-.77 1.61-2.092zM99.239 18.122c0-1.094.805-1.724 2.233-1.814l1.626-.095v-.525c0-.642-.419-1.004-1.229-1.004-.661 0-1.12.246-1.251.675h-1.147c.12-1.044 1.091-1.714 2.453-1.714 1.505 0 2.354.76 2.354 2.043v4.154h-1.141v-.855h-.093a2.036 2.036 0 01-.775.724 2 2 0 01-1.029.23 1.793 1.793 0 01-1.4-.46 1.838 1.838 0 01-.601-1.359zm3.859-.519v-.508l-1.466.095c-.827.056-1.202.34-1.202.877 0 .547.469.865 1.114.865a1.401 1.401 0 001.055-.33 1.436 1.436 0 00.499-.999zM105.835 16.8c0-1.921.976-3.138 2.492-3.138.376-.018.748.073 1.074.262.326.19.592.468.768.804h.088V11.39h1.185v8.452h-1.135v-.96h-.094c-.189.333-.464.609-.797.796a2.062 2.062 0 01-1.089.264c-1.527 0-2.492-1.217-2.492-3.142zm1.224 0c0 1.289.601 2.065 1.604 2.065.999 0 1.616-.787 1.616-2.06 0-1.267-.623-2.065-1.616-2.065-.997 0-1.604.78-1.604 2.06zM116.344 16.8a2.93 2.93 0 01.133-1.184 2.88 2.88 0 011.548-1.724 2.811 2.811 0 012.302 0 2.854 2.854 0 011.548 1.724c.125.381.17.784.132 1.184a2.901 2.901 0 01-.724 2.214 2.849 2.849 0 01-.955.698 2.815 2.815 0 01-3.259-.698 2.887 2.887 0 01-.594-1.03 2.936 2.936 0 01-.131-1.184zm4.444 0c0-1.318-.584-2.089-1.61-2.089-1.03 0-1.61.77-1.61 2.089 0 1.328.58 2.092 1.61 2.092 1.026 0 1.61-.77 1.61-2.092zM123.597 13.763h1.141v.965h.088c.15-.346.404-.637.725-.831a1.779 1.779 0 011.067-.252c.292-.022.585.023.858.13a1.955 1.955 0 011.153 1.255c.087.284.11.583.067.876v3.936h-1.185v-3.634c0-.977-.419-1.463-1.296-1.463a1.36 1.36 0 00-1.066.437 1.41 1.41 0 00-.367 1.103v3.557h-1.185v-6.08zM135.391 12.25v1.54h1.301v1.01h-1.301v3.127c0 .637.259.915.849.915.151 0 .302-.01.452-.027v.999a3.847 3.847 0 01-.644.061c-1.318 0-1.843-.47-1.843-1.641V14.8h-.953v-1.01h.953v-1.542h1.186zM138.311 11.39h1.174v3.35h.094c.157-.35.418-.643.745-.838a1.83 1.83 0 011.085-.251 1.955 1.955 0 011.561.64 2.019 2.019 0 01.507 1.626v3.925h-1.186v-3.63c0-.97-.447-1.462-1.284-1.462a1.388 1.388 0 00-1.11.415 1.43 1.43 0 00-.402 1.126v3.55h-1.184V11.39zM150.386 18.2a2.468 2.468 0 01-.985 1.358 2.415 2.415 0 01-1.616.401 2.728 2.728 0 01-2.105-.919 2.79 2.79 0 01-.669-2.219 2.837 2.837 0 01.668-2.227c.263-.301.586-.542.949-.705a2.739 2.739 0 011.151-.244c1.671 0 2.679 1.156 2.679 3.065v.418h-4.24v.068c-.018.223.009.447.081.659a1.587 1.587 0 001.518 1.082c.283.035.571-.017.825-.148.254-.132.464-.336.603-.589h1.141zm-4.168-1.959h3.033a1.482 1.482 0 00-.395-1.118 1.443 1.443 0 00-1.083-.457 1.516 1.516 0 00-1.106.456 1.566 1.566 0 00-.449 1.12z" fill="#fff"/></svg>