<svg width="530" height="80" fill="none" xmlns="http://www.w3.org/2000/svg"><path d="M51.68 40.6c-.88-5.83-23.1-8.8-25.52-9.13-3.74-3.41-2.31-6.16-2.09-6.49 2.09-2.42 5.5-4.4 9.02-6.05l9.9 4.62 7.26-8.58-4.07-12.1-11.11-1.21C32.1 2.21 5.26 7.49 2.73 19.59c-2.42 11.99-.66 15.4.44 20.57.99 5.17 22.99 7.92 26.29 9.02 3.19 1.1 3.74 7.81 1.32 11.66-1.21 1.87-4.95 1.65-12.1 2.09-1.21 0-3.74-5.94-3.96-6.6L2.51 55.12.97 64.14l3.19 14.08c1.32.22 7.37 1.1 14.63 1.1 9.02 0 19.8-1.43 25.19-7.26 9.68-10.56 8.58-25.52 7.7-31.46zm28.564 21.45l-1.32-9.68.66-5.39 7.15 1.87 12.54-1.87V35.43l-14.63-.99-4.73-.99V15.3h14.63l10.45 1.21 3.3-14.63-15.95-.99-31.46 1.32.55 13.09-3.85 63.47 23.54-2.86h14.63l9.46.99 3.08-14.63-14.63-.99-13.42.77zm86.23 1.54l-8.03-5.39c-1.1-.22-3.41-2.42-5.72-4.84l5.72-2.53c5.17-5.94 9.24-11.44 11.11-16.06.99-3.08 10.23-31.13-10.67-33.55-2.2-.22-4.4-.33-6.6-.33-18.37 0-34.87 8.03-36.96 9.02l-.88 27.28 1.87 17.82v21.78l18.48 3.08-1.32-20.02 5.06-1.32 6.16 9.79c2.09 3.52 8.58 11.55 9.13 11.55l15.62-1.65 3.52-12.87-6.49-1.76zm-34.43-20.24v-22c-.11 0 9.68-4.4 16.39-4.4 3.41 0 6.05 1.21 6.05 4.62 0 17.71-18.59 21.78-22.44 21.78zm47.392-40.26l1.32 18.7-1.98 57.42 18.48-3.08 3.85-47.52-1.43-27.5-20.24 1.98zm90.481 34.1c0-19.03-8.58-37.18-30.03-37.18-2.2 0-4.4.22-5.94.55-5.94 1.32-17.71 7.59-18.92 8.58-1.1 1.76-9.02 18.92-9.02 33.11 0 17.6 14.74 37.4 33.44 37.4 1.98 0 3.74-.33 5.06-.77 4.95-1.87 16.94-11.22 18.48-12.65.55-1.32 6.93-18.59 6.93-29.04zm-32.23 22.77c-9.24 0-14.74-9.57-16.06-13.2.33-2.31 6.38-25.52 15.84-28.38.66-.22 1.43-.33 2.09-.33 5.83 0 11.88 6.82 11.88 19.69 0 15.62-9.02 22.22-13.75 22.22zM321.536.23l-7.15 2.64-3.41 23.1V57.1c-2.09 1.65-4.07 2.09-5.94 2.09-3.74 0-6.6-1.98-7.04-2.31l-2.53-19.14-1.43-35.31-19.25-.77v26.4l6.38 39.82c9.35 8.69 17.49 11.55 24.2 11.55 12.32 0 19.69-9.79 20.79-11.33 6.16-13.2 8.03-52.58 7.48-62.37l-12.1-5.5zm68.201 40.37c-.88-5.83-23.1-8.8-25.52-9.13-3.74-3.41-2.31-6.16-2.09-6.49 2.09-2.42 5.5-4.4 9.02-6.05l9.9 4.62 7.26-8.58-4.07-12.1-11.11-1.21c-2.97.55-29.81 5.83-32.34 17.93-2.42 11.99-.66 15.4.44 20.57.99 5.17 22.99 7.92 26.29 9.02 3.19 1.1 3.74 7.81 1.32 11.66-1.21 1.87-4.95 1.65-12.1 2.09-1.21 0-3.74-5.94-3.96-6.6l-12.21-1.21-1.54 9.02 3.19 14.08c1.32.22 7.37 1.1 14.63 1.1 9.02 0 19.8-1.43 25.19-7.26 9.68-10.56 8.58-25.52 7.7-31.46zm43.414 11.11l-1.87 10.01h-14.63l2.75-33.33-1.76-27.06-19.25 1.65.77 19.58-2.09 56.98 18.92-1.54 18.7 1.1 10.78-.77 3.74-17.93v-8.69h-16.06zm60.885-49.94l-3.41.88-3.19-1.65-6.05.33-1.98 16.5-5.17 14.3-9.46-19.8-6.27-10.56-10.56-.55-8.03.88 14.85 31.79 10.01 17.82-1.98 28.16 20.9-2.86-1.21-26.95 13.86-20.13 5.28-12.32 2.64-12.98-10.23-2.86zm31.913 52.25l3.08-31.57.77-21.12-21.67 1.43 3.96 38.5v13.31l13.86-.55zm-10.01 6.71c-2.53 1.87-5.39 4.84-6.05 6.05 0 .22-.22 2.09 0 4.4.44 4.51 1.98 7.15 8.03 7.7 7.15.77 10.23-1.98 10.56-6.05.33-3.96-1.32-8.25-2.2-9.46-2.64-3.74-9.46-2.64-10.34-2.64z" fill="url(#paint0_radial_1177_754)"/><defs><radialGradient id="paint0_radial_1177_754" cx="0" cy="0" r="1" gradientUnits="userSpaceOnUse" gradientTransform="matrix(311.74 0 0 1733.38 85.85 47.43)"><stop offset=".066" stop-color="#FFA944"/><stop offset=".531" stop-color="#FF8B20"/><stop offset="1" stop-color="#F9B935"/></radialGradient></defs></svg>