<svg width="219" height="74" fill="none" xmlns="http://www.w3.org/2000/svg"><g clip-path="url(#clip0_825_4503)" fill="#fff"><path d="M98.342 19.25l.557 9.37-.372 6.959 4.548.371.372-5.567 6.218-1.392.186-2.505-6.126.371.278-3.525 6.219-.928 1.856-2.97-.464-1.02-13.272.835zM114.492 19.713l4.641-1.299 1.114 11.598s.835 1.948 3.155.186l1.3-6.588.649-5.381 2.506.556h2.228L128.6 31.682s-4.919 8.35-11.88 1.485l-2.135-7.423-.093-6.03zM148.369 31.68l-3.898-3.804 3.527-3.34s2.784-6.866-2.97-7.515c-5.755-.65-12.066 3.34-12.066 3.34v5.845l.186 4.64.185 5.195 3.806 1.114.278-5.01 3.434-1.392 5.662 5.66 4.733-1.114-2.877-3.619zm-10.674-3.804l-.185-4.546s8.446-4.082 7.332-1.67c-1.206 2.783-7.147 6.216-7.147 6.216zM153.567 17.857l-.464 5.104.371 12.34 4.641-.279.649-10.577-.371-5.567-4.826-1.02zM180.483 22.495c-.557-.928-3.063-5.474-9.931-4.732-7.054.742-8.818 5.196-8.91 11.69l.649 1.485s2.878 6.96 12.716 5.567c9.838-1.391 6.033-12.99 5.476-14.01zm-4.734 8.536c-3.898 1.856-6.218.928-6.218.928-3.806-2.412-3.991-5.474-3.341-6.588 3.619-5.288 7.517-3.34 7.517-3.34 5.291 3.804 2.042 9 2.042 9zM184.288 19.712h4.826l.836 6.31.649 4.824s1.764 1.3 3.342.093v-7.98l.185-4.824 3.063-.371s1.3.556 2.878 2.69c0 0-.929 10.021-2.321 13.268 0 0-4.269 6.124-11.138-.185l-1.299-6.495-.742-2.97-.279-4.36zM214.174 16.836v2.505s-4.176 1.114-5.661 2.877c0 0-.372.834.556 1.762 0 0 6.312.835 6.497 2.413.186 1.577.557 5.196-1.949 7.98-2.506 2.783-11.323 2.226-11.323 2.226l1.392-4.083s5.94-.092 6.59-1.113c.65-1.02.464-1.856-.371-2.134-.836-.278-6.404-1.206-6.683-2.598-.278-1.392-.835-2.69-.185-5.845.649-3.155 8.26-4.732 8.26-4.732l2.877.742zM107.437 42.166s-5.94-1.206-8.353.093c0 0-3.898 13.917-4.084 16.979l1.114.65.65-1.021 2.877-.278.742-2.506s5.291-3.525 6.219-2.876l1.114 4.175 4.919 1.578c0 .093-3.62-14.103-5.198-16.794zm-2.32 7.144s-1.578.835-3.991 2.69l1.299-6.494 1.949-.278.743 4.082zM112.728 44.58l2.506-1.114.835.371.742-.65 3.342 11.506 2.32-7.33 1.485-3.897 2.599-.186 2.042.279-3.713 11.783-1.021 3.433-7.332.928-1.856-6.866-1.3-3.526-.649-4.732zM139.736 42.816c-5.569-.742-8.91 1.948-9.745 6.31-.836 4.36.371 9.37 6.497 10.762 6.59 1.578 9.374-1.67 10.673-6.31 1.3-4.638-1.763-10.02-7.425-10.762zm3.249 10.02s-2.692 3.712-4.455 3.526c-1.764-.278-3.342-2.04-4.177-3.061 0 0-1.114-2.877 1.671-5.196 2.784-2.32 6.033.464 6.033.464l1.206 2.412-.278 1.856zM162.012 41.239c0 .093.279 1.113.557 2.134.371 1.206.928 2.32.928 2.32l-1.392.556-2.599.371s-4.269 2.876-5.012 6.124c0 0 3.156 4.268 8.725 2.69 0 0 1.392 2.135.093 4.547 0 0-9.467 2.969-13.551-5.66v-3.154s1.299-4.361 5.94-7.702c4.733-3.34 6.311-2.226 6.311-2.226zM184.009 58.867l-1.578-3.34s-1.856-10.299-4.362-14.845l-5.384 1.299-3.063 1.762-1.67 9.186s-1.207 5.196-.65 7.052l1.392-.186.557-.278.65.092 1.114-.278.371-2.412s4.362-3.433 6.033-3.804l1.485 4.824 1.671 2.505.835-.463.371-.372 2.228-.742zm-9.467-8.629l-2.414 2.134 1.114-6.123 1.764-.928c0 1.948 1.113 4.082 1.113 4.082l-1.577.835zM198.674 49.589s.278-2.505-.464-4.732c-.743-2.227-8.075-5.938-12.437-3.433l-.279 9.371.928 9.464.743.093.278.557s7.797-1.114 10.117-7.237l.464-2.413.65-1.67zm-8.075 6.402l-1.114-10.02c1.856-.928 4.362.649 4.362.649l.65 1.299c-.557 5.103-3.898 8.072-3.898 8.072zM208.419 41.424c-3.805.742-9.281 5.196-7.703 11.32 1.578 6.123 8.353 7.608 10.766 6.866 2.414-.743 7.797-3.062 7.518-10.021-.278-6.959-6.311-9-10.581-8.165zm2.414 14.567c-1.3.371-4.641-.185-5.848-4.268-1.206-4.082 2.785-6.124 3.806-6.216 1.856-.186 5.569.927 5.569 4.639 0 3.711-2.228 5.474-3.527 5.845z"/></g><g clip-path="url(#clip1_825_4503)" fill="#fff"><path d="M20.963 60.955l-2.024 2.416c.405.402 8.256 6.683 20.72 6.683 3.966 0 8.499-.644 13.355-2.335l-1.052-2.98c-18.373 6.362-30.514-3.3-31-3.784z"/><path d="M58.032 64.015c1.457-1.852 9.793-13.125 10.198-25.364 1.295-7.247-.243-13.045-.324-13.287l-.162-.563-10.683-4.59-4.614-12.4-.404-.242c-.405-.242-8.822-4.67-16.835-6.442C32.537.322 29.704-.242 27.276.08l-.405.081-.324.242c-.162.16-6.15 4.267-9.226 8.454l-.324.484 1.376 16.748c0 .322-.081 1.852-.89 4.348-.324-.16-.729-.322-1.053-.563-1.618-.805-3.318-1.53-4.937-2.255-.08-.08-.243 0-.243.08-.08.081 0 .242.081.242 1.619.805 3.238 1.691 4.856 2.496.405.242.81.403 1.134.644-1.134 3.302-3.319 7.972-7.77 13.367l-.567.644.243.806c.08.322 2.67 8.374 5.908 12.722L4.047 65.384l2.995 2.174 14.325-11.676-.809-.402-2.67 1.61c-2.429-3.14-4.614-9.099-5.343-11.273 4.128-5.153 6.394-9.663 7.608-13.125.243.161.486.322.729.403l2.913 1.69c-.485 1.611-.728 3.463-.809 5.476-.08 4.831.81 9.824 2.671 15.3l.081.24.243.081c.404.161.81.403 1.295.564v.08c.89.403 1.78.806 2.752 1.128 1.295.483 2.752.886 4.29 1.208 1.375.322 2.913.563 4.37.724 1.376.162 2.509.242 3.642.242h1.052l2.59-1.772c.243-.241.486-.402.81-.644.485-.402.97-.805 1.457-1.207.161-.162.404-.323.566-.564.486-.483 1.052-.966 1.538-1.45.08-.16.243-.241.324-.402.242-.242.404-.483.647-.725l.89-1.127c1.295-1.691 2.267-3.382 2.914-5.073l.162-.322c.162-.322.243-.725.405-1.047l.243-.725.162-.724a4.931 4.931 0 00.242-1.45v-.16c0-.162.081-.403.081-.565v-.16-.322V40.905c0-.081-.08-.081-.08-.162l-1.134-1.53c-.404-.483-.81-1.047-1.214-1.53a30.069 30.069 0 00-2.59-2.898c-2.023-2.094-3.966-3.785-5.908-5.154-2.348-1.69-4.776-2.899-7.123-3.543-.162-.08-.404-.08-.566-.16a26.12 26.12 0 011.456-3.463c.405-.725.81-1.45 1.296-2.175.485-.644 1.052-1.288 1.78-1.61.162-.08.243-.242.162-.402-.08-.162-.243-.242-.405-.162-.89.403-1.538 1.047-2.104 1.691a16.99 16.99 0 00-1.457 2.175 30.668 30.668 0 00-1.7 3.703c-2.266-.241-4.532.081-6.474.967a12.961 12.961 0 00-3.4 2.416c-.89.966-1.7 2.093-2.266 3.381l-.486 1.208c-.89-.483-1.861-.966-2.752-1.45a8.816 8.816 0 01-.89-.482c1.133-3.463 1.133-5.637 1.133-5.798l-1.457-15.621c2.51-3.14 6.718-6.281 7.932-7.086 4.209-.403 11.008 2.657 13.84 4.187l7.285 18.762.324.241c5.341 4.107 12.788 7.489 15.297 8.536 1.618 12.48-8.256 25.686-9.47 27.216l-3.4-2.496-.404.403 7.122 7.086 5.504 6.522 3.642-.805-6.313-6.12-3.561-2.738zM32.618 45.978l1.942.725s5.423-.403 8.984-4.107c1.538.322 3.076.967 4.614 1.933-2.833 0-4.857 2.254-4.857 2.254l.405 2.416c-1.619.483-3.237 1.047-4.29 1.852-3.156 2.094-3.723 5.073-3.804 6.764-.323-.08-.728-.08-1.052-.161-.162 0-.404-.08-.566-.161l-2.914-9.34c.243-.564.728-1.37 1.538-2.175zm18.372 5.073l-.89 1.047c-.162.241-.405.403-.566.644-.081.08-.243.242-.324.403-.405.483-.971.885-1.457 1.368-.162.162-.405.323-.567.564-.485.403-.97.725-1.376 1.128-.242.241-.566.402-.809.563l-2.185 1.45c-1.214.08-2.51 0-3.966-.081l-1.943-.242c0-1.207.405-4.026 3.238-5.878 2.994-2.013 9.712-2.979 12.545-3.301a33.273 33.273 0 01-1.7 2.335zM26.143 33.256c.566-1.128 1.214-2.175 2.023-2.9.81-.804 1.78-1.53 2.914-2.012a9.936 9.936 0 015.099-.886 73.463 73.463 0 00-1.376 4.51c-.324 1.288-.647 2.496-.89 3.784l-1.295-1.128c-.081-.08-.243-.08-.405 0-.162.081-.162.323-.08.403l1.618 2.577.08.08c0 .483.325 1.047.81 1.289.729.402 1.78.16 2.185-.564.405-.725.162-1.771-.566-2.174-.243-.161-.567-.242-.89-.242.242-1.288.485-2.576.728-3.784.324-1.53.728-3.14 1.214-4.59.243.08.486.08.729.161 2.104.564 4.29 1.61 6.636 3.221 1.862 1.288 3.642 2.818 5.747 4.912.89.886 1.78 1.852 2.59 2.818l1.214 1.45 1.052 1.288v.402c0 .162 0 .323-.08.484v.16c-.082.403-.163.886-.244 1.29l-.162.643-.404.644c-.081.322-.243.645-.405.967l-.162.322c-.08.16-.162.322-.243.402-5.26-4.509-10.36-6.12-14.73-5.717-6.07.564-8.984 6.281-9.065 6.523-.081.16-.081.322-.081.483l2.752 8.938c-.729-.161-1.457-.403-2.105-.564a29.712 29.712 0 01-3.723-1.45c-.647-2.254-1.214-4.59-1.618-7.085-.405-2.657-.648-5.154-.486-7.489.08-1.771.324-3.301.648-4.67.08.08.161.08.323.16 1.295.806 2.59 1.692 3.804 2.658-.162.08-.242.242-.323.403-.405.724-.162 1.771.566 2.174.728.402 1.78.16 2.185-.564s.162-1.771-.566-2.174h-.081l-.405-2.98c0-.16-.162-.24-.243-.24-.162 0-.323.08-.323.24l-.243 1.692c-1.214-.806-2.428-1.53-3.642-2.255-.162-.08-.405-.242-.567-.322.081-.403.243-.886.486-1.288zm25.819-9.019l-6.556-16.99c2.428 1.047 4.209 1.932 5.018 2.335l4.613 12.481 10.522 4.59c.162.886.567 2.899.567 5.395-2.186-.967-9.227-4.026-14.164-7.81z"/><path d="M67.906 59.668l-.405.403 6.313 4.67L76 62.245l-8.093-2.577zM75.272 53.547h-3.48l2.751 1.047.728-1.047zM66.206 12.965l4.614-4.59-1.943-2.496-3.237 4.268-4.047 8.293h.89l3.723-5.475zM12.707 72.148L13.84 74h1.78l3.157-5.878-1.7-.563-4.37 4.59zM7.041 54.03l-5.827-.483v1.047l.728 1.69L5.99 55.4l1.052-1.369zM9.146 35.027l-1.619-1.772L0 29.793v2.657l6.718 2.577h2.428zM10.684 19.485L7.77 16.184l-1.538 2.254 3.804 2.013.648-.966z"/></g><defs><clipPath id="clip0_825_4503"><path fill="#fff" transform="translate(95 16)" d="M0 0h124v45H0z"/></clipPath><clipPath id="clip1_825_4503"><path fill="#fff" d="M0 0h76v74H0z"/></clipPath></defs></svg>