<svg width="42" height="42" fill="none" xmlns="http://www.w3.org/2000/svg"><path d="M24.168 24c.774 0 1.458-.656 1.458-1.5v-3c0-.797-.684-1.5-1.458-1.5-.82 0-1.458.703-1.458 1.5v3c0 .844.638 1.5 1.458 1.5zm-2.916-1.5V18c0-.797-.684-1.5-1.458-1.5-.82 0-1.458.703-1.458 1.5v2.672c1.184 0 2.324.703 2.916 1.828zm7.29-10.5c-.82 0-1.458.703-1.458 1.5v9c0 1.688-1.321 3-2.916 3-.911 0-1.686-.375-2.187-1.031a4.867 4.867 0 01-.547.468c-.319 1.172-1.185 2.11-2.37 2.391l-2.824.656-.82-1.359 3.28-.797a1.83 1.83 0 001.458-1.781c0-.985-.774-1.922-1.822-1.922-.137 0-.274.047-.41.047l-5.468 1.312C11.091 23.812 11 25.125 11 25.312c0 .235.091.516.182.75l1.003 2.297c1.23 2.86 3.964 4.641 6.97 4.641h2.826C26.4 33 30 29.344 30 24.75V13.5c0-.797-.683-1.5-1.458-1.5zm-11.664-1.5c0-.797-.684-1.5-1.458-1.5-.82 0-1.458.703-1.458 1.5v11.063l2.916-.657V10.5z" fill="#fff"/></svg>