<svg width="180" height="54" fill="none" xmlns="http://www.w3.org/2000/svg"><path fill="#000" d="M0 0h180v54H0z"/><path d="M63.226 13.828a3.697 3.697 0 01-.994 2.704c-.379.398-.837.71-1.343.917a3.836 3.836 0 01-1.596.282 4.075 4.075 0 01-1.601-.313 4.118 4.118 0 01-1.356-.917 4.176 4.176 0 01-.899-1.378 4.218 4.218 0 01-.3-1.623 4.22 4.22 0 01.3-1.623c.206-.516.512-.984.899-1.378a4.116 4.116 0 011.356-.918 4.077 4.077 0 011.601-.312 4.083 4.083 0 011.642.34 3.3 3.3 0 011.252.904l-.704.713a2.705 2.705 0 00-.984-.739 2.674 2.674 0 00-1.206-.222 3.06 3.06 0 00-2.233.948 3.165 3.165 0 00-.873 2.287c-.01.63.165 1.25.503 1.78.339.53.825.946 1.397 1.195a3.11 3.11 0 003.44-.644c.411-.448.65-1.03.671-1.64h-2.905v-.974h3.877c.036.202.055.406.056.611zM69.371 10.445h-3.643v2.569h3.285v.973h-3.285v2.568h3.643v.995h-4.67v-8.1h4.67v.995zM73.706 17.55h-1.029v-7.105h-2.234V9.45h5.498v.995h-2.235v7.105zM79.918 17.55v-8.1h1.028v8.1h-1.028zM85.505 17.55h-1.028v-7.105h-2.234V9.45h5.497v.995h-2.234v7.105zM98.147 16.503a4.128 4.128 0 01-2.933 1.228c-1.1 0-2.154-.442-2.933-1.228a4.148 4.148 0 01-.89-1.38 4.188 4.188 0 01-.288-1.623 4.188 4.188 0 01.288-1.623c.202-.516.505-.985.89-1.38.385-.39.842-.7 1.345-.91a4.096 4.096 0 014.516.915c.385.394.689.862.892 1.377.203.515.302 1.066.291 1.621a4.193 4.193 0 01-.288 1.623 4.153 4.153 0 01-.89 1.38zm-5.107-.678c.577.583 1.358.91 2.173.91s1.597-.327 2.174-.91a3.177 3.177 0 00.889-2.325 3.206 3.206 0 00-.89-2.325 3.057 3.057 0 00-2.173-.91c-.815 0-1.596.327-2.173.91a3.21 3.21 0 00-.888 2.325 3.21 3.21 0 00.888 2.325zM100.768 17.55v-8.1h1.251l3.888 6.301h.045l-.045-1.56V9.45h1.029v8.1h-1.073l-4.068-6.606h-.044l.044 1.56v5.046h-1.027z" fill="#fff"/><path d="M63.226 13.828a3.697 3.697 0 01-.994 2.704c-.379.398-.837.71-1.343.917a3.836 3.836 0 01-1.596.282 4.075 4.075 0 01-1.601-.313 4.118 4.118 0 01-1.356-.917 4.176 4.176 0 01-.899-1.378 4.218 4.218 0 01-.3-1.623 4.22 4.22 0 01.3-1.623c.206-.516.512-.984.899-1.378a4.116 4.116 0 011.356-.918 4.077 4.077 0 011.601-.312 4.083 4.083 0 011.642.34 3.3 3.3 0 011.252.904l-.704.713a2.705 2.705 0 00-.984-.739 2.674 2.674 0 00-1.206-.222 3.06 3.06 0 00-2.233.948 3.165 3.165 0 00-.873 2.287c-.01.63.165 1.25.503 1.78.339.53.825.946 1.397 1.195a3.11 3.11 0 003.44-.644c.411-.448.65-1.03.671-1.64h-2.905v-.974h3.877c.036.202.055.406.056.611zM69.371 10.445h-3.643v2.569h3.285v.973h-3.285v2.568h3.643v.995h-4.67v-8.1h4.67v.995zM73.706 17.55h-1.029v-7.105h-2.234V9.45h5.498v.995h-2.235v7.105zM79.918 17.55v-8.1h1.028v8.1h-1.028zM85.505 17.55h-1.028v-7.105h-2.234V9.45h5.497v.995h-2.234v7.105zM98.147 16.503a4.128 4.128 0 01-2.933 1.228c-1.1 0-2.154-.442-2.933-1.228a4.148 4.148 0 01-.89-1.38 4.188 4.188 0 01-.288-1.623 4.188 4.188 0 01.288-1.623c.202-.516.505-.985.89-1.38.385-.39.842-.7 1.345-.91a4.096 4.096 0 014.516.915c.385.394.689.862.892 1.377.203.515.302 1.066.291 1.621a4.193 4.193 0 01-.288 1.623 4.153 4.153 0 01-.89 1.38zm-5.107-.678c.577.583 1.358.91 2.173.91s1.597-.327 2.174-.91a3.177 3.177 0 00.889-2.325 3.206 3.206 0 00-.89-2.325 3.057 3.057 0 00-2.173-.91c-.815 0-1.596.327-2.173.91a3.21 3.21 0 00-.888 2.325 3.21 3.21 0 00.888 2.325zM100.768 17.55v-8.1h1.251l3.888 6.301h.045l-.045-1.56V9.45h1.029v8.1h-1.073l-4.068-6.606h-.044l.044 1.56v5.046h-1.027z" stroke="#fff" stroke-width=".2" stroke-miterlimit="10"/><path d="M90.849 29.365a5.622 5.622 0 00-3.145.978 5.727 5.727 0 00-2.08 2.581 5.808 5.808 0 00-.313 3.316 5.763 5.763 0 001.557 2.934 5.648 5.648 0 002.904 1.565c1.099.22 2.238.105 3.273-.33a5.687 5.687 0 002.542-2.115 5.793 5.793 0 00.954-3.188 5.723 5.723 0 00-.411-2.215 5.666 5.666 0 00-1.233-1.877 5.584 5.584 0 00-1.859-1.241 5.527 5.527 0 00-2.19-.408zm0 9.221c-.69.05-1.38-.112-1.978-.464a3.472 3.472 0 01-1.376-1.51 3.527 3.527 0 01.587-3.883 3.436 3.436 0 011.76-1.025c.674-.155 1.38-.1 2.023.156a3.453 3.453 0 011.586 1.282c.39.58.598 1.264.598 1.964a3.36 3.36 0 01-.876 2.423 3.247 3.247 0 01-2.324 1.057zM78.43 29.365a5.62 5.62 0 00-3.145.978 5.729 5.729 0 00-2.08 2.581 5.808 5.808 0 00-.313 3.316 5.764 5.764 0 001.557 2.934 5.65 5.65 0 002.903 1.565c1.1.22 2.24.105 3.274-.33a5.687 5.687 0 002.542-2.115 5.794 5.794 0 00.954-3.188 5.723 5.723 0 00-.411-2.215 5.664 5.664 0 00-1.233-1.877 5.583 5.583 0 00-1.859-1.241 5.529 5.529 0 00-2.19-.408zm0 9.221c-.69.05-1.38-.112-1.978-.464a3.472 3.472 0 01-1.376-1.51 3.527 3.527 0 01.587-3.883 3.436 3.436 0 011.76-1.025c.674-.155 1.38-.1 2.023.156a3.453 3.453 0 011.586 1.282 3.52 3.52 0 01.598 1.964 3.358 3.358 0 01-.876 2.423 3.248 3.248 0 01-2.325 1.057zm-14.772-7.46v2.436h5.757a5.116 5.116 0 01-1.31 3.067 5.889 5.889 0 01-2.037 1.369 5.827 5.827 0 01-2.41.414 6.364 6.364 0 01-4.47-1.929 6.524 6.524 0 01-1.845-4.552c0-1.704.662-3.34 1.844-4.552a6.364 6.364 0 014.47-1.93 6.095 6.095 0 014.34 1.74l1.697-1.718a8.386 8.386 0 00-2.773-1.845 8.302 8.302 0 00-3.263-.612 8.712 8.712 0 00-3.41.64 8.798 8.798 0 00-2.901 1.925 8.922 8.922 0 00-1.943 2.91 9.016 9.016 0 000 6.885 8.925 8.925 0 001.943 2.909 8.799 8.799 0 002.901 1.924 8.712 8.712 0 003.41.641 7.963 7.963 0 003.337-.581 8.047 8.047 0 002.806-1.92 8.107 8.107 0 002.084-5.698 8.018 8.018 0 00-.129-1.523h-8.098zm60.411 1.892a5.338 5.338 0 00-1.858-2.602 5.23 5.23 0 00-2.997-1.051 5.34 5.34 0 00-2.117.453 5.392 5.392 0 00-1.77 1.26c-.5.536-.887 1.17-1.138 1.862a5.523 5.523 0 00-.323 2.166 5.66 5.66 0 001.609 4.082c.525.536 1.152.959 1.842 1.244a5.492 5.492 0 002.177.416 5.58 5.58 0 002.679-.669 5.666 5.666 0 002.046-1.876L122.287 37c-.29.486-.699.889-1.189 1.167a3.206 3.206 0 01-1.603.42 2.856 2.856 0 01-1.639-.442 2.905 2.905 0 01-1.111-1.298l7.583-3.175-.258-.653zm-7.733 1.914a3.184 3.184 0 01.787-2.305 3.114 3.114 0 012.177-1.044c.43-.029.859.072 1.234.288.374.217.677.54.871.93l-5.069 2.131zm-6.165 5.568h2.492V23.623h-2.492V40.5zm-4.081-9.852h-.086a3.931 3.931 0 00-1.356-.968 3.89 3.89 0 00-1.63-.315 5.647 5.647 0 00-3.857 1.765 5.786 5.786 0 00-1.578 3.976c0 1.482.566 2.907 1.578 3.977a5.647 5.647 0 003.857 1.765 3.828 3.828 0 001.635-.32 3.863 3.863 0 001.351-.985h.086v.827c0 2.196-1.16 3.37-3.029 3.37a3.112 3.112 0 01-1.736-.581 3.171 3.171 0 01-1.121-1.463l-2.17.914a5.457 5.457 0 002.002 2.474 5.356 5.356 0 003.025.919c2.921 0 5.392-1.74 5.392-5.981v-10.31h-2.363v.936zm-2.857 7.938a3.436 3.436 0 01-2.249-1.117 3.52 3.52 0 01-.909-2.363c0-.875.325-1.718.909-2.363a3.436 3.436 0 012.249-1.117 3.197 3.197 0 012.248 1.1 3.252 3.252 0 01.78 2.401 3.244 3.244 0 01-.788 2.382 3.163 3.163 0 01-2.24 1.077zm32.508-14.963h-5.962V40.5h2.488v-6.394h3.474a5.126 5.126 0 002.069-.313 5.175 5.175 0 001.779-1.117 5.252 5.252 0 001.198-1.737 5.315 5.315 0 000-4.15 5.254 5.254 0 00-1.198-1.737 5.176 5.176 0 00-1.779-1.116 5.123 5.123 0 00-2.069-.313zm.064 8.134h-3.538v-5.785h3.538a2.832 2.832 0 012.059.826 2.917 2.917 0 010 4.134 2.832 2.832 0 01-2.059.826zm15.376-2.424a4.629 4.629 0 00-2.601.622 4.706 4.706 0 00-1.838 1.962l2.208.934c.219-.408.551-.742.955-.962.404-.22.862-.316 1.318-.276a2.376 2.376 0 011.752.538c.49.407.801.995.865 1.633v.174a5.45 5.45 0 00-2.595-.651c-2.38 0-4.804 1.324-4.804 3.8.024.521.15 1.033.372 1.504.222.471.536.893.922 1.239a3.81 3.81 0 002.845.97 3.476 3.476 0 001.81-.387 3.526 3.526 0 001.364-1.264h.086v1.303h2.401v-6.47c0-2.997-2.208-4.669-5.06-4.669zm-.301 9.25c-.815 0-1.951-.413-1.951-1.433 0-1.303 1.415-1.802 2.638-1.802a4.388 4.388 0 012.273.564 3.07 3.07 0 01-.986 1.897 2.995 2.995 0 01-1.974.774zm14.111-8.88l-2.852 7.317h-.086l-2.959-7.317h-2.681l4.439 10.226-2.53 5.689h2.594l6.841-15.915h-2.766zM142.582 40.5h2.488V23.623h-2.488V40.5z" fill="#fff"/><path d="M13.913 10.176a2.725 2.725 0 00-.617 1.897v29.856c-.041.689.18 1.368.617 1.897l.099.097L30.53 27.198v-.394L14.012 10.078l-.1.098z" fill="url(#paint0_linear_1621_9288)"/><path d="M36.035 32.776l-5.506-5.578v-.394l5.507-5.576.125.071 6.523 3.753c1.864 1.072 1.864 2.826 0 3.899l-6.523 3.753-.126.072z" fill="url(#paint1_linear_1621_9288)"/><path d="M36.16 32.703l-5.63-5.702-16.618 16.825a2.151 2.151 0 002.77.083l19.479-11.206z" fill="url(#paint2_linear_1621_9288)"/><path d="M36.16 21.299L16.684 10.093a2.151 2.151 0 00-2.77.083l16.616 16.825 5.632-5.702z" fill="url(#paint3_linear_1621_9288)"/><path opacity=".2" d="M36.037 32.578L16.683 43.712a2.203 2.203 0 01-2.672.014l-.099.1.099.098a2.201 2.201 0 002.672-.015L36.16 32.704l-.124-.126z" fill="#000"/><path opacity=".12" d="M13.913 43.63a2.726 2.726 0 01-.617-1.897v.197c-.041.689.18 1.367.617 1.897l.1-.101-.1-.097zM42.685 28.753l-6.648 3.825.124.126 6.524-3.753c.384-.17.716-.439.962-.782.245-.342.396-.745.436-1.167a2.528 2.528 0 01-.495 1.043 2.487 2.487 0 01-.903.708z" fill="#000"/><path opacity=".25" d="M16.683 10.291L42.684 25.25c.352.162.661.405.904.709.243.304.412.661.494 1.043a2.385 2.385 0 00-.436-1.168 2.343 2.343 0 00-.962-.781L16.683 10.094c-1.864-1.072-3.388-.181-3.388 1.98v.197c0-2.161 1.524-3.052 3.388-1.98z" fill="#fff"/><defs><linearGradient id="paint0_linear_1621_9288" x1="29.065" y1="11.758" x2="6.411" y2="34.133" gradientUnits="userSpaceOnUse"><stop stop-color="#00A0FF"/><stop offset=".007" stop-color="#00A1FF"/><stop offset=".26" stop-color="#00BEFF"/><stop offset=".512" stop-color="#00D2FF"/><stop offset=".76" stop-color="#00DFFF"/><stop offset="1" stop-color="#00E3FF"/></linearGradient><linearGradient id="paint1_linear_1621_9288" x1="45.111" y1="27.002" x2="12.848" y2="27.002" gradientUnits="userSpaceOnUse"><stop stop-color="#FFE000"/><stop offset=".409" stop-color="#FFBD00"/><stop offset=".775" stop-color="orange"/><stop offset="1" stop-color="#FF9C00"/></linearGradient><linearGradient id="paint2_linear_1621_9288" x1="33.101" y1="30.099" x2="2.38" y2="60.441" gradientUnits="userSpaceOnUse"><stop stop-color="#FF3A44"/><stop offset="1" stop-color="#C31162"/></linearGradient><linearGradient id="paint3_linear_1621_9288" x1="9.728" y1=".238" x2="23.446" y2="13.787" gradientUnits="userSpaceOnUse"><stop stop-color="#32A071"/><stop offset=".069" stop-color="#2DA771"/><stop offset=".476" stop-color="#15CF74"/><stop offset=".801" stop-color="#06E775"/><stop offset="1" stop-color="#00F076"/></linearGradient></defs></svg>