<svg width="42" height="42" fill="none" xmlns="http://www.w3.org/2000/svg"><path d="M25.092 22.494l-2.466.41a1.186 1.186 0 01-1.364-.977 8.896 8.896 0 017.32-10.232l4.165-.69c.177-.03.344.09.374.267.882 5.316-2.713 10.34-8.029 11.222zM20.945 23.72a.916.916 0 00-.916.916v1.45a.516.516 0 01-.462.507c-1.431.16-2.76.566-3.804 1.176-.822.48-1.429 1.061-1.784 1.694-.376.671.261 1.33 1.03 1.33h11.873c.769 0 1.406-.659 1.03-1.33-.355-.633-.962-1.214-1.784-1.694-1.045-.61-2.373-1.016-3.804-1.176a.516.516 0 01-.462-.507v-1.45a.916.916 0 00-.917-.916zM19.161 23.489H17.09A8.089 8.089 0 019 15.399c0-.148.12-.269.27-.269h3.5a7.375 7.375 0 017.375 7.375c0 .543-.44.984-.984.984z" fill="#fff"/></svg>