<svg width="150" height="50" fill="none" xmlns="http://www.w3.org/2000/svg"><g clip-path="url(#clip0_1143_1709)"><path d="M45.632 23.667s-.72 14.636-10.024 20.13c0 0-11.962 5.387-21.154-2.23 0 0-3.379-2.067-6.147-10.718l4.54-8.542s.499-8.16.499-8.487c0-.327-.61-7.182-.61-7.182l5.483-5.06 9.968 1.904 4.154 7.073 3.6 8.216 9.69 4.896z" fill="url(#paint0_radial_1143_1709)"/><path d="M14.287 4.243l-1.44 6.692 1.44 4.244 2.16-2.72 2.16 2.72 1.661-1.088-.997-7.834 4.043 4.189 2.769 1.904 2.99 2.992 2.492 1.197S28.41 8.87 28.243 9.14c-.222.272 3.82 4.407 3.82 4.407l-.498-5.658-2.713-4.08L19.216.706l-4.929 3.536z" fill="#E5FF94"/><path d="M29.627 4.244l5.04 12.786L45.41 22.85l.221-5.44-7.254-3.102-3.157-8.433-5.593-1.632z" fill="#1C821C"/><path opacity=".67" d="M16.226 31.773s.443 8.107 3.267 13.221c0 0 6.258 4.298 12.46.816 0 0 6.922-10.609 6.202-18.008l-13.401-.762-8.528 4.733z" fill="url(#paint1_radial_1143_1709)"/><path d="M15.672 3.59c-.222.218-2.824 4.625-2.824 4.625l4.098-1.795 2.99-2.449 8.03 1.578 1.661-1.306-9.303-3.155-4.652 2.503z" fill="#FFFFB3"/><path d="M39.318 14.69l-2.713.271-1.662 1.578 5.261 4.19 5.981 2.122v-5.877l-6.867-2.284z" fill="#0F5B0F"/><path d="M27.135 47.334c-8.584 0-13.9-4.243-14.177-4.515l1.384-1.633c.333.273 8.64 6.856 21.266 2.558l.72 2.013c-3.379 1.142-6.424 1.578-9.193 1.578zM39.596 43.417l-1.717-1.36c.055-.11 7.697-9.576 6.534-18.499-1.716-.707-6.811-2.938-10.466-5.767l-.222-.163L28.741 4.95c-1.938-.98-6.59-3.047-9.47-2.775-.83.544-3.71 2.666-5.426 4.788l.886 10.61c0 .217-.056 5.875-6.203 13.383.499 1.47 2.05 5.604 3.71 7.672l-1.716 1.36c-2.326-2.884-4.209-8.705-4.264-8.923l-.166-.544.387-.435c5.704-6.747 6.037-11.97 6.092-12.405l-.941-11.37.221-.327C13.955 3.155 18.053.38 18.22.218l.221-.164.277-.054c4.375-.544 11.186 3.155 11.463 3.319l.332.163 5.04 12.84c4.098 3.047 10.19 5.495 10.3 5.495l.554.218.11.598c1.717 10.066-6.59 20.348-6.922 20.784z" fill="#000"/><path d="M46.517 27.257l-1.716-.38c.941-4.135.332-7.726.11-8.869l-7.199-3.101-3.156-8.433c-1.495-.762-8.64-4.244-13.79-4.516l.111-1.687c6.147.327 14.454 4.68 14.786 4.843l.277.163 3.157 8.379 7.31 3.1.11.382c0 .217 1.219 4.679 0 10.12z" fill="#000"/><path d="M38.156 27.801s.277 6.584-8.75 12.024c0 0-5.76.381-11.519-2.394 0 0-5.26-14.798 2.825-18.824C28.797 14.58 38.156 27.8 38.156 27.8z" fill="#FCBB38"/><path d="M19.438 19.532s-1.772 3.319-1.883 5.114c0 0-2.05-2.775 1.384-2.013l2.935-1.959 4.597.055 3.932 2.34 3.322-.218c.056.054-7.863-8.325-14.287-3.32z" fill="#FFE964"/><path d="M28.907 12.677c-.498.272-.886.653-1.218 1.088-.333.435-.61.925-.887 1.469-.498 1.034-.886 2.122-1.273 3.21-.332 1.088-.61 2.23-.886 3.373-.222 1.143-.443 2.285-.61 3.373l-.055.164a.53.53 0 01-.609.326c-.11-.054-.221-.109-.277-.218l-1.107-1.74c-.056-.11-.056-.218.055-.273.055-.054.166-.054.277 0l1.606 1.306-.942.272c.222-1.142.499-2.285.831-3.427.332-1.143.665-2.286 1.052-3.374.388-1.088.886-2.176 1.44-3.264.277-.544.61-1.034.997-1.469.388-.435.886-.87 1.44-1.143.11-.054.221 0 .277.11.055 0 0 .162-.111.217zM20.767 27.965c.611 0 1.107-.487 1.107-1.088 0-.6-.496-1.088-1.107-1.088-.612 0-1.108.487-1.108 1.088 0 .601.496 1.088 1.108 1.088z" fill="#000"/><path d="M24.2 26.496c.612 0 1.108-.488 1.108-1.088 0-.602-.496-1.089-1.108-1.089-.611 0-1.107.488-1.107 1.088 0 .601.496 1.089 1.107 1.089z" fill="#000"/><path d="M19.438 19.532s-4.098 10.283.388 16.649c0 0 4.762 3.21 9.802 1.251 5.039-1.959 6.922-9.358 6.922-9.358s-6.036-8.487-9.747-9.304c0 0 2.825-.326 8.86 5.985l2.493 3.047s.332 6.148-8.75 12.024c0 0-6.258.326-11.519-2.394.056.054-4.208-12.731 1.551-17.9z" fill="#F27520"/><path d="M22.926 39.172l-2.16-6.8s5.372-9.685 16.116 0c0 0-6.923.544-9.691 2.394-2.77 1.85-2.437 4.842-2.437 4.842l-1.828-.436z" fill="url(#paint2_radial_1143_1709)"/><path d="M21.874 30.903l1.772.598s4.043-.272 6.48-3.156c.055 0-4.542-1.686-8.252 2.558z" fill="#fff"/><path d="M35.387 40.587l4.873 4.788 3.71 4.353 2.492-.544-4.32-4.135-6.478-4.734-.277.273zM46.185 40.587l4.32 3.156L52 42.056l-5.538-1.74-.277.271zM49.12 36.18l1.883.708.498-.707h-2.38zM42.143 12.46l2.768-5.605 2.216-2.883 1.329 1.686-3.157 3.101-2.547 3.7h-.61z" fill="#000"/><path d="M17.887 25.354l.277 1.414.941.164.11-1.905-1.328.327zM30.568 24.864l.166 1.034.665.109.11-1.36-.94.217z" fill="#FFE964"/><path d="M14.066 37.432l.553.272-9.801 7.943-2.05-1.469 11.298-6.746zM11.685 45.648l1.163.38L10.688 50H9.47l-.776-1.251 2.99-3.102zM4.818 36.507l-.72.925-2.769.599-.498-1.143v-.707l3.987.326zM6.258 23.667H4.596L0 21.927V20.13l5.15 2.34 1.108 1.196z" fill="#000"/><path d="M21.874 30.902l.942.327s2.27-2.775 6.866-2.34l.499-.544s-4.597-1.577-8.307 2.558z" fill="#99C3FF"/><path d="M4.265 12.459l2.602 1.36.443-.653-1.993-2.23-1.052 1.523zM7.808 18.661c1.163.49 2.27 1.034 3.378 1.524 1.108.544 2.27 1.088 3.378 1.632a49.687 49.687 0 013.323 1.796 28.58 28.58 0 013.212 2.012l-.83.381.276-2.013c0-.108.111-.217.222-.163.11 0 .166.109.166.163l.277 2.013c.055.272-.166.49-.388.544-.11 0-.277 0-.332-.108l-.055-.055c-.942-.707-1.994-1.414-2.99-2.067a97.26 97.26 0 00-3.158-1.904c-1.052-.599-2.16-1.197-3.267-1.796a95.216 95.216 0 00-3.322-1.687c-.056-.054-.111-.108-.056-.163.056-.163.11-.163.166-.109z" fill="#000"/><path d="M30.015 33.57l-.332-2.068s1.993-2.068 4.374-1.36l2.825 2.176c0 .054-4.763.109-6.867 1.251z" fill="#fff"/><path d="M33.282 32.644s.222-1.687 1.606-1.85l1.662 1.36-3.268.49z" fill="#99C3FF"/><path d="M24.809 39.772s-.055 0 0 0l-1.938-.381c-.056 0-.166-.055-.166-.164l-2.16-6.8v-.164c.055-.163 2.049-3.645 6.091-4.298 3.157-.544 6.646.925 10.412 4.244.055.054.11.163.055.218-.055.054-.11.163-.166.163-.056 0-6.867.544-9.58 2.34-2.659 1.74-2.326 4.515-2.326 4.624 0 .054 0 .163-.056.163-.055.055-.11.055-.166.055zm-1.717-.762l1.495.272c0-.816.167-3.21 2.548-4.734 2.381-1.577 7.642-2.176 9.303-2.34-3.488-2.991-6.7-4.297-9.635-3.808-3.49.545-5.427 3.483-5.704 4.027l1.993 6.583z" fill="#000"/><path d="M38.377 27.747v.599c0 .163-.055.326-.055.49l-.166.979-.111.49-.166.489c-.111.326-.222.598-.333.925-.498 1.197-1.218 2.34-1.993 3.373l-.665.653c-.221.272-.443.49-.664.707-.443.49-.942.925-1.44 1.36-.498.436-1.052.817-1.55 1.252l-1.607 1.088-.055.054h-.11c-1.053.055-1.994-.054-3.046-.109a28.498 28.498 0 01-2.991-.49 24.93 24.93 0 01-2.88-.815 24.596 24.596 0 01-2.769-1.143l-.055-.054v-.055c-1.108-3.318-1.883-6.746-1.772-10.282.055-1.742.332-3.537 1.108-5.17.387-.815.886-1.577 1.55-2.23a8.07 8.07 0 012.27-1.578c1.662-.816 3.656-.87 5.372-.435 1.772.435 3.378 1.306 4.818 2.34 1.44 1.033 2.77 2.23 3.987 3.482.61.652 1.163 1.305 1.773 1.958.276.327.553.653.83 1.034l.388.544.221.272.111.109.055.054.056.055c-.11 0-.11 0-.11.054zm-.388.109s0 .054 0 0l-.055-.055-.11-.108-.222-.272-.388-.49-.83-.98a29.075 29.075 0 00-1.773-1.904c-1.218-1.197-2.547-2.393-3.931-3.318-1.44-.98-2.936-1.796-4.597-2.177-1.661-.38-3.378-.326-4.928.436-.776.38-1.44.816-2.05 1.414-.609.599-1.052 1.306-1.384 2.068-.72 1.523-.997 3.21-1.052 4.896-.056 1.687.055 3.428.388 5.114a38.64 38.64 0 001.163 5.006l-.111-.109c.886.381 1.827.762 2.713 1.034.942.272 1.883.544 2.825.707.941.163 1.938.327 2.88.381.996.054 1.937.109 2.934.054l-.166.055 1.606-1.034c.498-.38 1.052-.762 1.495-1.142.499-.436.997-.817 1.385-1.306.221-.218.443-.435.664-.707l.61-.708c.775-.98 1.495-2.067 1.993-3.21.11-.272.277-.598.332-.87l.166-.436.111-.435c.111-.326.166-.598.222-.925 0-.163.055-.326.055-.49v-.217c.056-.163 0-.272.056-.272z" fill="#000"/><path d="M25.64 22.306l1.551 1.633 1.44-.599-1.55-2.611-1.44 1.577z" fill="#FFE964"/><path d="M21.32 10.882l.554 3.047h2.935l-1.772-2.34-1.717-.707z" fill="#E5FF94"/></g><g clip-path="url(#clip1_1143_1709)" fill="#1A3C3E"><path d="M61.452 9.382l.409 6.872-.273 5.103 3.338.272.272-4.082 4.564-1.02.136-1.838-4.495.272.204-2.585 4.564-.68 1.362-2.178-.34-.748-9.74.612zM73.304 9.721l3.405-.952.818 8.505s.613 1.429 2.316.136l.953-4.83.477-3.947 1.84.408h1.634l-1.09 9.458s-3.61 6.123-8.719 1.088l-1.566-5.443-.068-4.423zM98.165 18.5l-2.86-2.79 2.588-2.45s2.043-5.035-2.18-5.511c-4.223-.477-8.855 2.45-8.855 2.45v4.286l.137 3.402.136 3.81 2.793.817.204-3.675 2.52-1.02 4.155 4.15 3.474-.816-2.112-2.654zm-7.833-2.79l-.136-3.335s6.198-2.993 5.381-1.224c-.885 2.041-5.245 4.559-5.245 4.559zM101.979 8.361l-.34 3.743.272 9.05 3.406-.205.477-7.757-.273-4.082-3.542-.749zM121.732 11.763c-.408-.68-2.247-4.014-7.288-3.47-5.176.545-6.471 3.81-6.539 8.573l.477 1.089s2.112 5.103 9.332 4.083c7.22-1.021 4.427-9.526 4.018-10.275zm-3.473 6.26c-2.861 1.36-4.564.68-4.564.68-2.793-1.769-2.929-4.014-2.452-4.83 2.656-3.879 5.517-2.45 5.517-2.45 3.883 2.79 1.499 6.6 1.499 6.6zM124.525 9.722h3.542l.613 4.627.477 3.538s1.294.952 2.452.068v-5.852l.136-3.538 2.248-.272s.954.408 2.112 1.973c0 0-.681 7.349-1.703 9.73 0 0-3.133 4.49-8.174-.136l-.953-4.763-.545-2.177-.205-3.198zM146.458 7.613V9.45s-3.065.816-4.155 2.11c0 0-.273.611.409 1.292 0 0 4.631.612 4.768 1.769.136 1.157.408 3.81-1.431 5.851-1.839 2.042-8.31 1.633-8.31 1.633l1.022-2.993s4.359-.068 4.836-.817c.477-.748.341-1.36-.272-1.565-.613-.204-4.7-.884-4.905-1.905-.204-1.02-.613-1.973-.136-4.286.477-2.314 6.062-3.47 6.062-3.47l2.112.544zM68.127 26.188s-4.359-.884-6.13.068c0 0-2.86 10.206-2.997 12.452l.817.476.477-.748 2.112-.205.545-1.837s3.882-2.585 4.563-2.109l.818 3.062 3.61 1.157c0 .068-2.657-10.343-3.815-12.316zm-1.703 5.24s-1.158.612-2.929 1.973l.954-4.763 1.43-.205.545 2.994zM72.01 27.957l1.839-.816.613.272.545-.477 2.452 8.438 1.703-5.376 1.09-2.857 1.907-.136 1.498.204-2.724 8.64-.75 2.519-5.38.68-1.363-5.035-.953-2.586-.477-3.47zM91.83 26.664c-4.086-.544-6.538 1.43-7.151 4.627-.613 3.198.272 6.872 4.768 7.893 4.836 1.157 6.88-1.225 7.833-4.627.954-3.402-1.294-7.349-5.45-7.893zm2.385 7.349s-1.975 2.721-3.27 2.585c-1.294-.204-2.452-1.497-3.065-2.245 0 0-.817-2.11 1.226-3.81 2.044-1.701 4.428.34 4.428.34l.885 1.769-.204 1.36zM108.178 25.508c0 .068.204.816.408 1.565.273.884.681 1.7.681 1.7l-1.021.409-1.908.272s-3.133 2.11-3.678 4.49c0 0 2.316 3.13 6.403 1.974 0 0 1.022 1.565.068 3.334 0 0-6.947 2.177-9.945-4.15v-2.314s.954-3.198 4.36-5.647c3.474-2.45 4.632-1.633 4.632-1.633zM124.321 38.436l-1.158-2.45s-1.362-7.552-3.201-10.886l-3.951.952-2.247 1.293-1.226 6.736s-.886 3.81-.477 5.171l1.022-.136.408-.204.477.068.817-.204.273-1.77s3.201-2.517 4.427-2.789l1.09 3.538 1.226 1.837.613-.34.273-.272 1.634-.544zm-6.947-6.328l-1.771 1.565.817-4.49 1.294-.681c0 1.428.818 2.994.818 2.994l-1.158.612zM135.083 31.631s.205-1.837-.34-3.47c-.545-1.633-5.926-4.355-9.128-2.518l-.204 6.873.681 6.94.545.068.204.408s5.722-.816 7.425-5.307l.34-1.77.477-1.224zm-5.926 4.695l-.817-7.349c1.362-.68 3.201.477 3.201.477l.477.952c-.409 3.743-2.861 5.92-2.861 5.92zM142.235 25.644c-2.793.544-6.812 3.81-5.654 8.3 1.158 4.491 6.13 5.58 7.901 5.036 1.771-.544 5.722-2.245 5.518-7.349-.205-5.103-4.632-6.6-7.765-5.987zm1.771 10.682c-.954.272-3.406-.136-4.292-3.13-.885-2.993 2.044-4.49 2.793-4.558 1.362-.137 4.087.68 4.087 3.402 0 2.721-1.635 4.014-2.588 4.286z"/></g><defs><radialGradient id="paint0_radial_1143_1709" cx="0" cy="0" r="1" gradientUnits="userSpaceOnUse" gradientTransform="matrix(45.7683 0 0 44.9657 20.806 6.96)"><stop stop-color="#D2F675"/><stop offset="1" stop-color="#BEE951"/></radialGradient><radialGradient id="paint1_radial_1143_1709" cx="0" cy="0" r="1" gradientUnits="userSpaceOnUse" gradientTransform="matrix(13.8172 0 0 6.89331 27.753 37.909)"><stop stop-color="#48D140"/><stop offset="1" stop-color="#5F8F00"/></radialGradient><radialGradient id="paint2_radial_1143_1709" cx="0" cy="0" r="1" gradientUnits="userSpaceOnUse" gradientTransform="matrix(8.03979 0 0 7.8988 29.315 33.388)"><stop offset=".001" stop-color="#740011"/><stop offset=".999" stop-color="#250000"/></radialGradient><clipPath id="clip0_1143_1709"><path fill="#fff" d="M0 0h52v50H0z"/></clipPath><clipPath id="clip1_1143_1709"><path fill="#fff" transform="translate(59 7)" d="M0 0h91v33H0z"/></clipPath></defs></svg>