<svg width="42" height="42" fill="none" xmlns="http://www.w3.org/2000/svg"><path d="M30.87 17.955c.6 0 1.07-.528.933-1.112-.984-4.204-4.496-7.406-8.804-7.838-.55-.056-.999.397-.999.95v7a1 1 0 001 1h7.87zM11.208 20.072c-.144-.586.326-1.117.928-1.117h18.727c.603 0 1.073.531.929 1.117-1.114 4.521-5.299 7.883-10.292 7.883-4.993 0-9.178-3.362-10.292-7.883zM18 30.955a2 2 0 11-4 0 2 2 0 014 0zM29 30.955a2 2 0 11-4 0 2 2 0 014 0zM15.883 17.394c.082.292-.153.56-.456.56H11.5a.5.5 0 01-.5-.5v-3c0-.275.224-.502.5-.477 2.128.19 3.868 1.581 4.383 3.417z" fill="#fff"/></svg>