<svg width="42" height="32" fill="none" xmlns="http://www.w3.org/2000/svg"><path opacity=".5" d="M9.542 12.559c-.465 0-.91.07-1.354.135.143-.483.291-.975.529-1.417.237-.641.608-1.198.977-1.758.308-.606.852-1.017 1.252-1.535.419-.505.99-.84 1.442-1.259.443-.437 1.025-.656 1.487-.964.483-.277.904-.584 1.354-.73l1.123-.462.988-.41L16.33.12l-1.244.3c-.398.1-.884.217-1.436.356-.564.105-1.167.39-1.837.65-.663.296-1.43.496-2.142.971-.717.454-1.544.834-2.273 1.442-.706.627-1.558 1.17-2.187 1.969-.688.745-1.367 1.529-1.894 2.42-.61.85-1.025 1.784-1.463 2.707a23.072 23.072 0 00-.975 2.783 25.148 25.148 0 00-.8 5.077c-.07 1.496-.029 2.74.059 3.64.03.425.09.837.13 1.123l.053.35.054-.013A9.375 9.375 0 109.542 12.56zm22.916 0c-.464 0-.91.07-1.354.135.144-.483.292-.975.53-1.417.237-.641.608-1.198.977-1.758.308-.606.852-1.017 1.252-1.535.418-.505.99-.84 1.441-1.259.444-.437 1.025-.656 1.488-.964.483-.277.904-.584 1.354-.73l1.123-.462.987-.41L39.246.12l-1.244.3c-.398.1-.883.217-1.435.356-.565.105-1.167.39-1.838.65-.66.298-1.429.496-2.141.973-.717.454-1.544.834-2.273 1.442-.707.627-1.559 1.17-2.188 1.967-.687.745-1.366 1.529-1.893 2.42-.61.85-1.026 1.784-1.463 2.707a23.077 23.077 0 00-.975 2.783 25.15 25.15 0 00-.8 5.077c-.07 1.496-.03 2.74.058 3.64.032.425.09.837.132 1.123l.052.35.054-.013a9.376 9.376 0 109.166-11.337z" fill="#DEE6EB"/></svg>