<svg width="42" height="42" fill="none" xmlns="http://www.w3.org/2000/svg"><path d="M20.4 18.637c.502.173 1.059.345 1.505.402.947.172 1.727 0 1.782-.402l.003-.014c.054-.276.078-.396-1.674-.903l-.39-.115-.108-.037c-1.074-.365-3.553-1.207-3.123-3.921.279-1.377 1.226-2.295 2.674-2.64v-.63c0-.746.557-1.377 1.337-1.377.724 0 1.337.631 1.337 1.377v.688c.279.058.669.172 1.058.287.725.287 1.059 1.033.836 1.778a1.3 1.3 0 01-1.671.86c-.502-.171-.836-.286-1.114-.343-.947-.115-1.727.057-1.783.459l-.001.006c-.056.226-.098.4 1.338.854l.279.058.114.036c1.468.462 3.94 1.242 3.506 4.036-.222 1.377-1.17 2.295-2.562 2.64v.573c0 .803-.613 1.377-1.337 1.377-.78 0-1.337-.574-1.337-1.377v-.688c-.557-.115-1.058-.287-1.56-.46l-.278-.114c-.669-.23-1.003-1.09-.78-1.721a1.309 1.309 0 011.727-.803l.223.114zM32.697 25.73a1.67 1.67 0 00-2.336-.375l-5.006 3.713h-5.049c-.333 0-.625-.334-.625-.667 0-.376.333-.668.625-.668h3.296c.626 0 1.252-.459 1.377-1.126a1.33 1.33 0 00-1.335-1.544h-6.675c-1.085 0-2.253.375-3.13 1.085l-1.918 1.585-2.295-.042c-.334 0-.626.334-.626.668v4.005c0 .376.292.668.626.668H24.06c.918 0 1.836-.292 2.545-.835l5.674-4.13c.793-.543.96-1.586.417-2.337z" fill="#fff"/></svg>