<svg width="577" height="88" fill="none" xmlns="http://www.w3.org/2000/svg"><path d="M55.81 44.33c-.96-6.367-25.228-9.61-27.87-9.971-4.085-3.724-2.524-6.728-2.283-7.088 2.282-2.643 6.006-4.806 9.85-6.608L46.32 25.71l7.93-9.37-4.446-13.215L37.67 1.802c-3.243.6-32.557 6.367-35.32 19.582-2.643 13.095-.72 16.82.48 22.466 1.082 5.646 25.11 8.65 28.713 9.85 3.484 1.202 4.085 8.53 1.442 12.735-1.322 2.043-5.406 1.802-13.215 2.283-1.322 0-4.085-6.487-4.325-7.208L2.11 60.188.428 70.04l3.484 15.377c1.442.24 8.05 1.201 15.978 1.201 9.851 0 21.625-1.561 27.511-7.929 10.572-11.533 9.37-27.871 8.41-34.359z" fill="url(#paint0_radial_1563_9244)"/><path d="M87.007 67.757l-1.442-10.572.721-5.887 7.809 2.042 13.695-2.042V38.684l-15.978-1.081-5.165-1.081V16.699h15.978l11.413 1.321 3.604-15.978-17.42-1.08-34.36 1.44.602 14.297-4.205 69.319 25.709-3.124h15.978l10.332 1.081 3.364-15.978-15.979-1.081-14.656.84z" fill="url(#paint1_radial_1563_9244)"/><path d="M181.182 69.439l-8.769-5.887c-1.202-.24-3.725-2.643-6.248-5.286l6.248-2.763c5.646-6.487 10.091-12.494 12.133-17.54 1.082-3.364 11.173-33.998-11.653-36.642a72.394 72.394 0 00-7.208-.36c-20.063 0-38.083 8.77-40.366 9.851l-.961 29.794 2.042 19.462v23.787l20.183 3.364-1.441-21.865 5.526-1.441 6.728 10.692c2.282 3.844 9.37 12.614 9.971 12.614l17.059-1.802 3.845-14.056-7.089-1.922zM143.58 47.334V23.306c-.12 0 10.572-4.805 17.9-4.805 3.724 0 6.608 1.322 6.608 5.046 0 19.342-20.303 23.787-24.508 23.787z" fill="url(#paint2_radial_1563_9244)"/><path d="M195.34 3.364l1.441 20.423-2.162 62.711 20.183-3.364 4.205-51.898L217.445 1.2 195.34 3.364z" fill="url(#paint3_radial_1563_9244)"/><path d="M294.159 40.606C294.159 19.822 284.788 0 261.361 0c-2.402 0-4.805.24-6.487.6-6.487 1.442-19.342 8.29-20.664 9.371-1.201 1.922-9.851 20.664-9.851 36.161 0 19.222 16.099 40.847 36.522 40.847 2.162 0 4.084-.36 5.526-.841 5.406-2.043 18.501-12.254 20.183-13.816.601-1.442 7.569-20.303 7.569-31.716zm-35.2 24.868c-10.092 0-16.099-10.452-17.54-14.416.36-2.523 6.968-27.872 17.299-30.995a7.545 7.545 0 012.283-.36c6.367 0 12.975 7.448 12.975 21.504 0 17.06-9.852 24.267-15.017 24.267z" fill="url(#paint4_radial_1563_9244)"/><path d="M350.533.24l-7.808 2.884L339 28.352v33.999c-2.282 1.802-4.445 2.282-6.487 2.282-4.085 0-7.208-2.162-7.689-2.522l-2.763-20.904-1.562-38.564-21.024-.84v28.832l6.968 43.49c10.212 9.49 19.102 12.613 26.43 12.613 13.456 0 21.505-10.692 22.706-12.374 6.728-14.416 8.77-57.425 8.169-68.117L350.533.24z" fill="url(#paint5_radial_1563_9244)"/><path d="M425.019 44.33c-.961-6.367-25.229-9.61-27.872-9.971-4.084-3.724-2.523-6.728-2.282-7.088 2.282-2.643 6.006-4.806 9.851-6.608l10.812 5.046 7.929-9.37-4.445-13.215-12.134-1.322c-3.243.6-32.557 6.367-35.32 19.582-2.643 13.095-.721 16.82.481 22.466 1.081 5.646 25.108 8.65 28.712 9.85 3.484 1.202 4.085 8.53 1.442 12.735-1.322 2.043-5.406 1.802-13.215 2.283-1.322 0-4.085-6.487-4.325-7.208l-13.335-1.322-1.682 9.852 3.484 15.377c1.442.24 8.049 1.201 15.978 1.201 9.851 0 21.625-1.561 27.511-7.929 10.572-11.533 9.371-27.871 8.41-34.359z" fill="url(#paint6_radial_1563_9244)"/><path d="M472.433 56.464l-2.042 10.933h-15.978l3.003-36.402-1.922-29.553-21.024 1.802.841 21.384-2.282 62.23 20.663-1.681 20.423 1.201 11.774-.84 4.084-19.583v-9.49h-17.54z" fill="url(#paint7_radial_1563_9244)"/><path d="M538.929 1.922l-3.724.961-3.484-1.802-6.608.36-2.162 18.021-5.647 15.618-10.331-21.625-6.848-11.533-11.533-.6-8.77.96 16.218 34.72 10.933 19.462-2.163 30.755 22.826-3.124-1.321-29.433 15.137-21.985 5.766-13.455 2.884-14.176-11.173-3.124z" fill="url(#paint8_radial_1563_9244)"/><path d="M562.851 66.315c-2.763 2.043-5.887 5.286-6.607 6.608 0 .24-.241 2.282 0 4.805.48 4.926 2.162 7.809 8.769 8.41 7.809.84 11.173-2.163 11.534-6.608.36-4.325-1.442-9.01-2.403-10.332-2.883-4.084-10.332-2.883-11.293-2.883z" fill="url(#paint9_radial_1563_9244)"/><defs><radialGradient id="paint0_radial_1563_9244" cx="0" cy="0" r="1" gradientUnits="userSpaceOnUse" gradientTransform="matrix(340.466 0 0 1893.11 93.13 51.79)"><stop offset=".066" stop-color="#FFA944"/><stop offset=".531" stop-color="#FF8B20"/><stop offset="1" stop-color="#F9B935"/></radialGradient><radialGradient id="paint1_radial_1563_9244" cx="0" cy="0" r="1" gradientUnits="userSpaceOnUse" gradientTransform="matrix(340.466 0 0 1893.11 93.13 51.79)"><stop offset=".066" stop-color="#FFA944"/><stop offset=".531" stop-color="#FF8B20"/><stop offset="1" stop-color="#F9B935"/></radialGradient><radialGradient id="paint2_radial_1563_9244" cx="0" cy="0" r="1" gradientUnits="userSpaceOnUse" gradientTransform="matrix(340.466 0 0 1893.11 93.13 51.79)"><stop offset=".066" stop-color="#FFA944"/><stop offset=".531" stop-color="#FF8B20"/><stop offset="1" stop-color="#F9B935"/></radialGradient><radialGradient id="paint3_radial_1563_9244" cx="0" cy="0" r="1" gradientUnits="userSpaceOnUse" gradientTransform="matrix(340.466 0 0 1893.11 93.13 51.79)"><stop offset=".066" stop-color="#FFA944"/><stop offset=".531" stop-color="#FF8B20"/><stop offset="1" stop-color="#F9B935"/></radialGradient><radialGradient id="paint4_radial_1563_9244" cx="0" cy="0" r="1" gradientUnits="userSpaceOnUse" gradientTransform="matrix(340.466 0 0 1893.11 93.13 51.79)"><stop offset=".066" stop-color="#FFA944"/><stop offset=".531" stop-color="#FF8B20"/><stop offset="1" stop-color="#F9B935"/></radialGradient><radialGradient id="paint5_radial_1563_9244" cx="0" cy="0" r="1" gradientUnits="userSpaceOnUse" gradientTransform="matrix(340.466 0 0 1893.11 93.13 51.79)"><stop offset=".066" stop-color="#FFA944"/><stop offset=".531" stop-color="#FF8B20"/><stop offset="1" stop-color="#F9B935"/></radialGradient><radialGradient id="paint6_radial_1563_9244" cx="0" cy="0" r="1" gradientUnits="userSpaceOnUse" gradientTransform="matrix(340.466 0 0 1893.11 93.13 51.79)"><stop offset=".066" stop-color="#FFA944"/><stop offset=".531" stop-color="#FF8B20"/><stop offset="1" stop-color="#F9B935"/></radialGradient><radialGradient id="paint7_radial_1563_9244" cx="0" cy="0" r="1" gradientUnits="userSpaceOnUse" gradientTransform="matrix(340.466 0 0 1893.11 93.13 51.79)"><stop offset=".066" stop-color="#FFA944"/><stop offset=".531" stop-color="#FF8B20"/><stop offset="1" stop-color="#F9B935"/></radialGradient><radialGradient id="paint8_radial_1563_9244" cx="0" cy="0" r="1" gradientUnits="userSpaceOnUse" gradientTransform="matrix(340.466 0 0 1893.11 93.13 51.79)"><stop offset=".066" stop-color="#FFA944"/><stop offset=".531" stop-color="#FF8B20"/><stop offset="1" stop-color="#F9B935"/></radialGradient><radialGradient id="paint9_radial_1563_9244" cx="0" cy="0" r="1" gradientUnits="userSpaceOnUse" gradientTransform="matrix(340.466 0 0 1893.11 93.13 51.79)"><stop offset=".066" stop-color="#FFA944"/><stop offset=".531" stop-color="#FF8B20"/><stop offset="1" stop-color="#F9B935"/></radialGradient></defs></svg>