<svg width="21" height="22" fill="none" xmlns="http://www.w3.org/2000/svg"><path d="M16.5 12.5c-1.36 0-2.578.61-3.422 1.594l-4.219-2.11A3.57 3.57 0 009 11c0-.281-.047-.61-.14-.938l4.218-2.109c.844.938 2.063 1.547 3.422 1.547C18.984 9.5 21 7.531 21 5 21 2.516 18.984.5 16.5.5A4.471 4.471 0 0012 5c0 .328 0 .656.094.984l-4.219 2.11C7.031 7.109 5.812 6.5 4.5 6.5A4.471 4.471 0 000 11c0 2.531 1.969 4.5 4.5 4.5a4.419 4.419 0 003.375-1.547l4.219 2.11C12 16.39 12 16.718 12 17c0 2.531 1.969 4.5 4.5 4.5 2.484 0 4.5-1.969 4.5-4.5 0-2.484-2.016-4.5-4.5-4.5zm0-9.75c1.219 0 2.25 1.031 2.25 2.25a2.25 2.25 0 01-2.25 2.25A2.221 2.221 0 0114.25 5a2.25 2.25 0 012.25-2.25zm-12 10.5A2.221 2.221 0 012.25 11 2.25 2.25 0 014.5 8.75c1.219 0 2.25 1.031 2.25 2.25a2.25 2.25 0 01-2.25 2.25zm12 6A2.221 2.221 0 0114.25 17a2.25 2.25 0 012.25-2.25c1.219 0 2.25 1.031 2.25 2.25a2.25 2.25 0 01-2.25 2.25z" fill="#287471"/></svg>