<svg width="42" height="42" fill="none" xmlns="http://www.w3.org/2000/svg"><path d="M14.758 13.488c-.312.249-.493.626-.493 1.024V21.1c0 .363.294.657.656.657h11.813a.656.656 0 00.656-.657v-6.588c0-.398-.181-.775-.493-1.024l-5.25-4.2a1.312 1.312 0 00-1.64 0l-5.25 4.2zM32.142 22.055a.821.821 0 011.493.623l-1.032 4.61a3.281 3.281 0 01-1.93 2.307L27.76 30.82c-.583.245-.97.68-1.24 1.135-.265.447-.437.95-.575 1.38-.048.15-.156.274-.527.32-.393.048-.927-.025-1.512-.176a12.635 12.635 0 01-1.557-.527 15.487 15.487 0 01-.34-.143l-.21-3.667a3.281 3.281 0 01.327-1.628l.446-.913a3.28 3.28 0 012.378-1.791l3.012-.532a.833.833 0 01.965.676c.095.54-.207 1.07-.72 1.263L25.063 27.4a.656.656 0 00.462 1.229l3.144-1.184a2.451 2.451 0 001.583-2.447l1.89-2.943zM9.512 22.055a.821.821 0 00-1.492.623l1.032 4.61a3.281 3.281 0 001.93 2.307l2.913 1.225c.583.245.97.68 1.24 1.135.265.447.437.95.575 1.38.047.15.156.274.527.32.392.048.927-.025 1.512-.176a12.647 12.647 0 001.896-.67l.211-3.667a3.281 3.281 0 00-.327-1.628l-.446-.913a3.281 3.281 0 00-2.379-1.791l-3.012-.532a.833.833 0 00-.965.676c-.095.54.208 1.07.72 1.263l3.145 1.183a.656.656 0 01-.463 1.229l-3.144-1.184a2.451 2.451 0 01-1.583-2.447l-1.89-2.943z" fill="#fff"/></svg>