<svg width="42" height="42" fill="none" xmlns="http://www.w3.org/2000/svg"><path fill-rule="evenodd" clip-rule="evenodd" d="M13.268 13.578a1 1 0 000 1.414l.247.247a11.371 11.371 0 00.65 15.002v.004l.165.166c.648.648 1.725.611 1.912-.286.027-.133.05-.272.065-.417.179-1.608 1.072-2.501 2.68-2.68 1.608-.179 2.502-1.072 2.68-2.68.18-1.608 1.072-2.501 2.68-2.68 1.609-.179 2.502-1.072 2.68-2.68.18-1.608 1.073-2.502 2.68-2.68.46-.051.86-.16 1.202-.328.412-.2.412-.739.088-1.063l-.586-.586-.03-.029c-.018-.02-.038-.039-.057-.057l-.08-.08h-.002a11.371 11.371 0 00-15.004-.65l-.247-.246a1 1 0 00-1.414 0l-.309.309zm5.012.038c.793-.25 2.166-.477 4.186.097 1.648.469 2.892 1.53 3.33 2.03a.5.5 0 11-.75.66c-.343-.389-1.43-1.323-2.853-1.728-1.82-.517-2.993-.3-3.614-.105a.5.5 0 01-.3-.954zm-2.24 2.357a.5.5 0 01.707 0l4.62 4.62a.5.5 0 01-.708.707l-4.62-4.62a.5.5 0 010-.707zm-1.797 1.98a.5.5 0 01.327.626c-.195.621-.412 1.794.105 3.614.405 1.423 1.34 2.51 1.729 2.852a.5.5 0 11-.66.752c-.5-.44-1.562-1.683-2.03-3.33-.575-2.02-.347-3.394-.098-4.187a.5.5 0 01.627-.328z" fill="#fff"/><path d="M28.339 29.258l-5.514-5.514c.094-.246.217-.428.354-.565.245-.246.636-.446 1.279-.517.436-.049.85-.144 1.234-.293l4.768 4.768a1 1 0 010 1.414l-.707.707a1 1 0 01-1.414 0z" fill="#fff"/></svg>