<svg width="42" height="42" fill="none" xmlns="http://www.w3.org/2000/svg"><path fill-rule="evenodd" clip-rule="evenodd" d="M13.159 11c-.94 0-1.617.93-1.349 1.855l.5 1.729h-1.556c-2.036 0-3.366 2.134-2.47 3.961l1.583 3.223a2.75 2.75 0 002.468 1.538h2.523a5.73 5.73 0 002.015 2.57c.537.38 1.132.657 1.755.825-.058.074-.11.154-.154.237a1.766 1.766 0 01-.815.76l-2.436 1.133a.851.851 0 00-.22.149c-.537.5-.157 1.353.601 1.353h9.85c.758 0 1.138-.854.601-1.353a.854.854 0 00-.22-.149l-2.436-1.133a1.766 1.766 0 01-.815-.76 1.686 1.686 0 00-.197-.289c.558-.17 1.09-.43 1.575-.773a5.73 5.73 0 002.016-2.57h2.774a2.75 2.75 0 002.469-1.538l1.581-3.223c.897-1.827-.433-3.962-2.468-3.962h-1.808l.5-1.728c.267-.926-.409-1.855-1.35-1.855H13.16zm-.416 5.084h-1.99c-.925 0-1.53.97-1.122 1.8l1.582 3.223c.21.428.646.699 1.122.699h2.06l-1.652-5.723zm13.696 5.722l1.654-5.723h2.24c.926 0 1.53.97 1.123 1.801l-1.582 3.223c-.21.428-.645.699-1.122.699h-2.313zm-5.341-5.524c-.081-.376-.613-.376-.694 0a.354.354 0 01-.619.153c-.245-.294-.716-.046-.614.325a.356.356 0 01-.478.425c-.353-.146-.655.295-.394.575a.358.358 0 01-.226.6c-.38.035-.444.567-.083.693a.358.358 0 01.077.637c-.32.21-.132.71.245.653a.357.357 0 01.363.528c-.187.335.211.69.519.463a.355.355 0 01.565.298c-.011.384.505.512.673.167a.354.354 0 01.638 0c.168.345.684.217.673-.167a.355.355 0 01.565-.298c.308.227.706-.128.52-.463a.357.357 0 01.361-.528c.378.057.567-.444.247-.653a.358.358 0 01.076-.637c.36-.126.297-.658-.083-.693a.358.358 0 01-.226-.6c.26-.28-.042-.721-.395-.575a.356.356 0 01-.477-.425c.102-.37-.37-.62-.614-.325a.354.354 0 01-.62-.153z" fill="#fff"/></svg>